<svg preserveAspectRatio="xMidYMin meet" width="46" height="22" viewBox="0 0 46 21.6482" fill="none" xmlns="http://www.w3.org/2000/svg">
<path d="M37 0C41.9706 3.22128e-07 46 4.02944 46 9C46 13.9706 41.9706 18 37 18H27.7972C26.4737 18 25.2359 18.6547 24.4909 19.7487L23.333 21.4492C23.1632 21.6986 22.765 21.7177 22.6055 21.4834L21.4241 19.7486C20.6792 18.6546 19.4414 18 18.1179 18H9C4.02944 18 0 13.9706 0 9C0 4.02944 4.02944 0 9 0H37Z" fill="#FFF9CF"/>
<path d="M37 0C41.9706 0 46 4.02944 46 9C46 13.9706 41.9706 18 37 18H27.7972C26.4737 18 25.2359 18.6547 24.4909 19.7487L23.333 21.4492C23.1632 21.6986 22.765 21.7177 22.6055 21.4834L21.4241 19.7486C20.6792 18.6546 19.4414 18 18.1179 18H9C4.02944 18 0 13.9706 0 9C0 4.02944 4.02944 0 9 0H37Z" stroke="#FFE8A2" stroke-width="1"/>
</svg>
