<svg preserveAspectRatio="none" width="100%" height="100%" overflow="visible" style="display: block;" viewBox="0 0 12 12" fill="none" xmlns="http://www.w3.org/2000/svg">
<g id="Welfare_recharge_energy_icon">
<path id="&#232;&#183;&#175;&#229;&#190;&#132;" d="M3.65596 1.24207C3.89357 1.11108 4.17463 1.0847 4.4325 1.1691L6.94082 1.99012L9.31483 2.76733C9.73904 2.90619 9.92733 3.40143 9.70171 3.78657L8.09317 6.53174L8.91853 7.39011C9.18591 7.66842 9.12901 8.12232 8.80134 8.32624L7.93287 8.86559L7.9339 8.86652L4.32387 11.1504C3.55256 11.6385 2.62827 10.801 3.03849 9.98558L3.80098 8.46899L2.33446 7.1318C2.21856 7.02607 2.15213 6.87679 2.15152 6.71991L2.13637 2.60569C2.13521 2.28199 2.31089 1.98315 2.59428 1.82675L3.65596 1.24207Z" fill="var(--fill-0, #FFED63)" stroke="var(--stroke-0, #FFF9D8)" style="fill:#FFED63;fill:color(display-p3 1.0000 0.9294 0.3882);fill-opacity:1;stroke:#FFF9D8;stroke:color(display-p3 1.0000 0.9768 0.8453);stroke-opacity:1;" stroke-width="0.75" stroke-linejoin="round"/>
<path id="&#232;&#183;&#175;&#229;&#190;&#132;_2" d="M3.72835 1.37322C3.92954 1.26235 4.16785 1.2399 4.38617 1.31137L6.89449 2.13239L9.2685 2.9096C9.60181 3.01871 9.74883 3.40765 9.57156 3.71026L7.90654 6.55325L8.81056 7.49454C9.01162 7.70411 8.96895 8.04586 8.72233 8.19934L7.85298 8.7407L7.85196 8.73977L4.24388 11.0235C3.60112 11.4303 2.8312 10.7323 3.17306 10.0529L3.98597 8.43485L2.43524 7.0209C2.35042 6.94344 2.3015 6.8338 2.30109 6.71892L2.28692 2.60465C2.2861 2.33592 2.43139 2.08775 2.66667 1.95791L3.72835 1.37322Z" fill="var(--fill-0, #FFED63)" stroke="url(#paint0_linear_0_5)" style="fill:#FFED63;fill:color(display-p3 1.0000 0.9294 0.3882);fill-opacity:1;" stroke-width="0.45" stroke-linejoin="round"/>
<g id="Mask group">
<mask id="mask0_0_5" style="mask-type:luminance" maskUnits="userSpaceOnUse" x="2" y="1" width="8" height="10">
<path id="&#232;&#183;&#175;&#229;&#190;&#132;_3" fill-rule="evenodd" clip-rule="evenodd" d="M4.12145 10.8338C3.67152 11.1185 3.13243 10.6299 3.37173 10.1542L4.15977 8.58785C4.22021 8.46771 4.19331 8.32203 4.09395 8.23139L2.64645 6.91095C2.5689 6.84021 2.52455 6.74021 2.52418 6.63525L2.50941 2.52377C2.50891 2.38666 2.58328 2.26022 2.70335 2.19402L3.89331 1.53797C4.00259 1.47772 4.13198 1.46555 4.25057 1.50437L6.82214 2.34617L9.31447 3.16203C9.45082 3.20666 9.51113 3.3658 9.43861 3.48959L7.6245 6.58637L8.71656 7.72306C8.78262 7.79182 8.7686 7.90396 8.68764 7.95434L7.73168 8.54925L4.12145 10.8338Z" fill="var(--fill-0, white)" style="fill:white;fill-opacity:1;"/>
</mask>
<g mask="url(#mask0_0_5)">
<g id="&#231;&#188;&#150;&#231;&#187;&#132; 10">
<path id="&#232;&#183;&#175;&#229;&#190;&#132; 47" fill-rule="evenodd" clip-rule="evenodd" d="M7.94275 3.8735L9.58037 3.24802L4.06536 1.44269L2.50932 2.30058L7.94275 3.8735Z" fill="url(#paint1_linear_0_5)"/>
<path id="&#232;&#183;&#175;&#229;&#190;&#132; 48" fill-rule="evenodd" clip-rule="evenodd" d="M9.58205 3.24812L7.62691 6.58565L6.19048 6.95828L7.94444 3.8736L9.58205 3.24812Z" fill="url(#paint2_linear_0_5)"/>
<g id="&#230;&#164;&#173;&#229;&#156;&#134;&#229;&#189;&#162;">
<g id="Object">
<mask id="mask1_0_5" style="mask-type:luminance" maskUnits="userSpaceOnUse" x="2" y="2" width="6" height="9">
<path id="&#232;&#146;&#153;&#231;&#137;&#136;" fill-rule="evenodd" clip-rule="evenodd" d="M2.51491 2.30062L2.53083 6.7333C2.53098 6.77528 2.54872 6.81528 2.57974 6.84358L4.18427 8.30726C4.23395 8.35258 4.2474 8.42542 4.21718 8.48549L3.37803 10.1535C3.13873 10.6291 3.67782 11.1178 4.12775 10.833L7.73798 8.54848L6.23358 6.99861C6.21035 6.97468 6.20571 6.93829 6.2222 6.9093L7.94834 3.87354L2.51491 2.30062Z" fill="var(--fill-0, white)" style="fill:white;fill-opacity:1;"/>
</mask>
<g mask="url(#mask1_0_5)">
<ellipse id="&#230;&#164;&#173;&#229;&#156;&#134;&#229;&#189;&#162;_2" cx="5.53377" cy="10.0413" rx="3.78822" ry="1.48372" transform="rotate(-26 5.53377 10.0413)" fill="var(--fill-0, #FFBB17)" style="fill:#FFBB17;fill:color(display-p3 1.0000 0.7328 0.0889);fill-opacity:1;"/>
<g id="Vector 169" opacity="0.925393">
<path d="M2.74556 3.30425L2.67344 5.30111C2.7266 4.48588 2.89319 3.77438 3.25967 3.4338C3.69742 3.02698 4.38663 3.08635 5.04703 3.26835L3.40972 2.81707C3.08298 2.72702 2.7578 2.96555 2.74556 3.30425Z" fill="var(--fill-0, white)" style="fill:white;fill-opacity:1;"/>
<path d="M3.38974 2.88957L4.00734 3.05979C3.70837 3.08181 3.42954 3.17299 3.20839 3.37849C3.01975 3.5538 2.88605 3.81591 2.7908 4.12543L2.82084 3.30712C2.83133 3.01681 3.10968 2.81238 3.38974 2.88957Z" stroke="var(--stroke-0, #FFED63)" stroke-opacity="0.181125" style="stroke:#FFED63;stroke:color(display-p3 1.0000 0.9294 0.3882);stroke-opacity:0.181125;" stroke-width="0.15"/>
</g>
<ellipse id="&#230;&#164;&#173;&#229;&#156;&#134;&#229;&#189;&#162;_3" cx="5.40291" cy="7.51959" rx="3.78822" ry="1.48372" transform="rotate(-26 5.40291 7.51959)" fill="var(--fill-0, #FDD040)" style="fill:#FDD040;fill:color(display-p3 0.9913 0.8144 0.2511);fill-opacity:1;"/>
</g>
</g>
<path id="&#232;&#146;&#153;&#231;&#137;&#136;_2" opacity="0.42" d="M7.89002 3.89639L6.18797 6.89094C6.16324 6.93443 6.16993 6.98912 6.20477 7.02501L7.64473 8.50832C7.6613 8.5254 7.6581 8.55365 7.63799 8.56637L4.10558 10.8012C3.6879 11.0654 3.18777 10.6123 3.40952 10.1707L4.24914 8.50243C4.28685 8.42736 4.26923 8.33634 4.20715 8.27972L2.60295 6.81577C2.57986 6.79465 2.5666 6.76487 2.56637 6.73359L2.54979 2.34954L7.89002 3.89639Z" stroke="url(#paint3_linear_0_5)" stroke-width="0.075" stroke-linejoin="round"/>
</g>
<path id="&#232;&#183;&#175;&#229;&#190;&#132; 48_2" opacity="0.531759" fill-rule="evenodd" clip-rule="evenodd" d="M9.58205 3.24812L7.62691 6.58565L6.19048 6.95828L7.57493 6.51407L9.58205 3.24812Z" fill="var(--fill-0, #FFE14C)" style="fill:#FFE14C;fill:color(display-p3 1.0000 0.8824 0.2980);fill-opacity:1;"/>
<path id="&#232;&#183;&#175;&#229;&#190;&#132; 49" fill-rule="evenodd" clip-rule="evenodd" d="M6.19328 6.95864L7.6297 6.58602L8.9402 7.87403L7.73688 8.5489L6.19328 6.95864Z" fill="var(--fill-0, #F89627)" style="fill:#F89627;fill:color(display-p3 0.9725 0.5882 0.1529);fill-opacity:1;"/>
<path id="&#232;&#183;&#175;&#229;&#190;&#132; 46" fill-rule="evenodd" clip-rule="evenodd" d="M2.51348 2.30082L2.52964 6.79938L2.60563 2.39798L7.94691 3.87374L2.66844 2.2927L4.06951 1.44293L2.51348 2.30082Z" fill="var(--fill-0, #FFFDE9)" style="fill:#FFFDE9;fill:color(display-p3 1.0000 0.9922 0.9137);fill-opacity:1;"/>
<path id="&#232;&#183;&#175;&#229;&#190;&#132; 3" opacity="0.498324" fill-rule="evenodd" clip-rule="evenodd" d="M6.19046 6.95853L7.94462 3.8777L9.58204 3.24837L7.92392 3.81397L4.32617 2.86035L7.87125 3.88154L6.19046 6.95853Z" fill="var(--fill-0, #FFFDE9)" style="fill:#FFFDE9;fill:color(display-p3 1.0000 0.9922 0.9137);fill-opacity:1;"/>
</g>
</g>
</g>
</g>
<defs>
<linearGradient id="paint0_linear_0_5" x1="5.72728" y1="1.35647" x2="6.26679" y2="11.651" gradientUnits="userSpaceOnUse">
<stop stop-color="#F48620" style="stop-color:#F48620;stop-color:color(display-p3 0.9587 0.5272 0.1235);stop-opacity:1;"/>
<stop offset="1" stop-color="#E17216" style="stop-color:#E17216;stop-color:color(display-p3 0.8804 0.4465 0.0874);stop-opacity:1;"/>
</linearGradient>
<linearGradient id="paint1_linear_0_5" x1="1.12891" y1="2.95009" x2="2.50789" y2="6.09642" gradientUnits="userSpaceOnUse">
<stop stop-color="#FAE05A" style="stop-color:#FAE05A;stop-color:color(display-p3 0.9820 0.8771 0.3526);stop-opacity:1;"/>
<stop offset="1" stop-color="#F7C550" style="stop-color:#F7C550;stop-color:color(display-p3 0.9690 0.7714 0.3142);stop-opacity:1;"/>
</linearGradient>
<linearGradient id="paint2_linear_0_5" x1="6.70268" y1="2.91205" x2="5.35642" y2="6.25168" gradientUnits="userSpaceOnUse">
<stop stop-color="#F89527" style="stop-color:#F89527;stop-color:color(display-p3 0.9725 0.5843 0.1529);stop-opacity:1;"/>
<stop offset="1" stop-color="#FFC02D" style="stop-color:#FFC02D;stop-color:color(display-p3 1.0000 0.7535 0.1784);stop-opacity:1;"/>
</linearGradient>
<linearGradient id="paint3_linear_0_5" x1="2.18498" y1="0.873754" x2="-2.00845" y2="8.28325" gradientUnits="userSpaceOnUse">
<stop stop-color="#FEFACF" style="stop-color:#FEFACF;stop-color:color(display-p3 0.9961 0.9804 0.8118);stop-opacity:1;"/>
<stop offset="0.566902" stop-color="#FCF250" style="stop-color:#FCF250;stop-color:color(display-p3 0.9882 0.9490 0.3137);stop-opacity:1;"/>
<stop offset="1" stop-color="#FDF2AD" style="stop-color:#FDF2AD;stop-color:color(display-p3 0.9922 0.9490 0.6784);stop-opacity:1;"/>
</linearGradient>
</defs>
</svg>
