<svg preserveAspectRatio="xMidYMin meet" width="48" height="22" viewBox="0 0 48 21.6482" fill="none" xmlns="http://www.w3.org/2000/svg">
<path d="M39 0C43.9706 0 48 4.02944 48 9C48 13.9706 43.9706 18 39 18H28.7972C27.4737 18 26.2359 18.6547 25.4909 19.7487L24.333 21.4492C24.1632 21.6986 23.765 21.7177 23.6055 21.4834L22.4241 19.7486C21.6792 18.6546 20.4414 18 19.1179 18H9C4.02944 18 0 13.9706 0 9C0 4.02944 4.02944 0 9 0H39Z" fill="#FFF9CF"/>
<path d="M39 0C43.9706 0 48 4.02944 48 9C48 13.9706 43.9706 18 39 18H28.7972C27.4737 18 26.2359 18.6547 25.4909 19.7487L24.333 21.4492C24.1632 21.6986 23.765 21.7177 23.6055 21.4834L22.4241 19.7486C21.6792 18.6546 20.4414 18 19.1179 18H9C4.02944 18 0 13.9706 0 9C0 4.02944 4.02944 0 9 0H39Z" stroke="#FFE8A2" stroke-width="1"/>
</svg>
