<svg width="24" height="24" viewBox="0 0 24 24" fill="none" xmlns="http://www.w3.org/2000/svg">
<path d="M6.0072 13V12.25H6.00707L6.0072 13ZM7.68689 13.3662L8.20876 13.9049C8.38665 13.7325 8.46798 13.4835 8.42608 13.2393C8.38418 12.9952 8.22445 12.7875 7.99927 12.6844L7.68689 13.3662ZM5.78748 17.8486L5.03748 17.8486V17.8486H5.78748ZM5.78748 18.6348V19.3848C6.20169 19.3848 6.53748 19.049 6.53748 18.6348H5.78748ZM3.46619 18.6348L3.46596 19.3848H3.46619V18.6348ZM1.96814 17.1367H1.21814V17.1367L1.96814 17.1367ZM1.96814 17.0391L1.21814 17.039V17.0391H1.96814ZM6.0072 13V13.75C6.49568 13.75 6.9579 13.8572 7.37451 14.0481L7.68689 13.3662L7.99927 12.6844C7.39262 12.4064 6.71781 12.25 6.0072 12.25V13ZM7.68689 13.3662L7.16502 12.8276C5.85436 14.0974 5.03751 15.878 5.03748 17.8486L5.78748 17.8486L6.53748 17.8486C6.53751 16.301 7.17736 14.9041 8.20876 13.9049L7.68689 13.3662ZM5.78748 17.8486H5.03748V18.6348H5.78748H6.53748V17.8486H5.78748ZM5.78748 18.6348V17.8848H3.46619V18.6348V19.3848H5.78748V18.6348ZM3.46619 18.6348L3.46641 17.8848C3.05341 17.8846 2.71814 17.5492 2.71814 17.1367L1.96814 17.1367L1.21814 17.1367C1.21815 18.378 2.22532 19.3844 3.46596 19.3848L3.46619 18.6348ZM1.96814 17.1367H2.71814V17.0391H1.96814H1.21814V17.1367H1.96814ZM1.96814 17.0391L2.71814 17.0391C2.71825 15.2231 4.19115 13.7503 6.00733 13.75L6.0072 13L6.00707 12.25C3.36283 12.2505 1.2183 14.3945 1.21814 17.039L1.96814 17.0391Z" fill="#9B9B9B" style="fill:#9B9B9B;fill-opacity:1;"/>
<path d="M8.85742 8.07129C8.85742 9.452 7.73813 10.5713 6.35742 10.5713C4.97671 10.5713 3.85742 9.452 3.85742 8.07129C3.85742 6.69058 4.97671 5.57129 6.35742 5.57129C7.73813 5.57129 8.85742 6.69058 8.85742 8.07129Z" stroke="#9B9B9B" style="stroke:#9B9B9B;stroke-opacity:1;" stroke-width="1.5"/>
<path d="M8.35742 19C8.35742 15.134 11.4914 12 15.3574 12C19.2234 12 22.3574 15.134 22.3574 19V19.2C22.3574 20.1941 21.5515 21 20.5574 21H10.1574C9.16331 21 8.35742 20.1941 8.35742 19.2V19Z" stroke="#9B9B9B" style="stroke:#9B9B9B;stroke-opacity:1;" stroke-width="1.5"/>
<path d="M19 6C19 7.933 17.433 9.5 15.5 9.5C13.567 9.5 12 7.933 12 6C12 4.067 13.567 2.5 15.5 2.5C17.433 2.5 19 4.067 19 6Z" stroke="#9B9B9B" style="stroke:#9B9B9B;stroke-opacity:1;" stroke-width="1.5"/>
</svg>
