<svg width="24" height="24" viewBox="0 0 24 24" fill="none" xmlns="http://www.w3.org/2000/svg">
<path d="M15.1258 15.8648C16.5519 15.258 18.2666 14.8439 19.325 15.9761C20.3639 17.0874 20.9999 18.5798 21 20.2213C21 20.6507 20.652 20.9993 20.2227 20.9996H3.77734C3.34799 20.9993 3 20.6507 3 20.2213C3.00009 18.5803 3.63564 17.0883 4.67384 15.977C5.73212 14.8442 7.44734 15.2583 8.87386 15.865C9.83411 16.2735 10.8905 16.4996 12 16.4996C13.1094 16.4996 14.1657 16.2734 15.1258 15.8648Z" fill="#FFDA35" style="fill:#FFDA35;fill-opacity:1;"/>
<path d="M21 20.2213H21.75V20.2212L21 20.2213ZM20.2227 20.9996V21.7496H20.2231L20.2227 20.9996ZM3.77734 20.9996L3.77693 21.7496H3.77734V20.9996ZM3 20.2213L2.25 20.2212V20.2213H3ZM12 16.4996V17.2496V17.2496V16.4996ZM19.325 15.9761L18.7771 16.4883C19.6913 17.4663 20.2499 18.7775 20.25 20.2213L21 20.2213L21.75 20.2212C21.7499 18.3821 21.0364 16.7086 19.8729 15.464L19.325 15.9761ZM21 20.2213H20.25C20.25 20.2265 20.2491 20.2297 20.2481 20.2321C20.2468 20.235 20.2447 20.2383 20.2416 20.2414C20.2385 20.2446 20.2352 20.2466 20.2325 20.2478C20.2303 20.2487 20.2273 20.2496 20.2222 20.2496L20.2227 20.9996L20.2231 21.7496C21.0671 21.7491 21.75 21.0641 21.75 20.2213H21ZM20.2227 20.9996V20.2496H3.77734V20.9996V21.7496H20.2227V20.9996ZM3.77734 20.9996L3.77775 20.2496C3.77272 20.2496 3.76975 20.2487 3.76751 20.2478C3.76476 20.2466 3.76151 20.2446 3.75839 20.2414C3.75526 20.2383 3.75316 20.235 3.75193 20.2321C3.75091 20.2297 3.75 20.2265 3.75 20.2213H3H2.25C2.25 21.0641 2.93287 21.7491 3.77693 21.7496L3.77734 20.9996ZM3 20.2213L3.75 20.2213C3.75008 18.7779 4.30825 17.467 5.22189 16.489L4.67384 15.977L4.12579 15.465C2.96302 16.7096 2.2501 18.3827 2.25 20.2212L3 20.2213ZM8.87386 15.865L8.5803 16.5552C9.63164 17.0024 10.7878 17.2496 12 17.2496V16.4996V15.7496C10.9933 15.7496 10.0366 15.5446 9.16743 15.1749L8.87386 15.865ZM12 16.4996V17.2496C13.2122 17.2496 14.3683 17.0022 15.4194 16.5549L15.1258 15.8648L14.8321 15.1747C13.9631 15.5445 13.0066 15.7496 12 15.7496V16.4996ZM4.67384 15.977L5.22189 16.489C5.55691 16.1304 6.00681 15.9875 6.5975 16.0177C7.20698 16.0488 7.89719 16.2646 8.5803 16.5552L8.87386 15.865L9.16743 15.1749C8.42401 14.8587 7.54335 14.5641 6.67401 14.5197C5.7859 14.4743 4.84905 14.6908 4.12579 15.465L4.67384 15.977ZM19.325 15.9761L19.8729 15.464C19.1496 14.6902 18.2129 14.4739 17.3249 14.5193C16.4558 14.5638 15.5754 14.8584 14.8321 15.1747L15.1258 15.8648L15.4194 16.5549C16.1023 16.2643 16.7923 16.0485 17.4016 16.0173C17.9922 15.9871 18.442 16.1299 18.7771 16.4883L19.325 15.9761Z" fill="black" style="fill:black;fill-opacity:1;"/>
<path d="M17 8.5C17 11.2614 14.7614 13.5 12 13.5C9.23858 13.5 7 11.2614 7 8.5C7 5.73858 9.23858 3.5 12 3.5C14.7614 3.5 17 5.73858 17 8.5Z" fill="#FFDA35" stroke="black" style="fill:#FFDA35;fill-opacity:1;stroke:black;stroke-opacity:1;" stroke-width="1.5"/>
</svg>
