<svg preserveAspectRatio="none" width="100%" height="100%" overflow="visible" style="display: block;" viewBox="0 0 48 21.6482" fill="none" xmlns="http://www.w3.org/2000/svg">
<g id="Icon Container">
<g id="Union">
<mask id="path-1-inside-1_0_24" fill="white">
<path d="M39 0C43.9706 0 48 4.02944 48 9C48 13.9706 43.9706 18 39 18H28.7972C27.4737 18 26.2359 18.6547 25.4909 19.7487L24.333 21.4492C24.1632 21.6986 23.765 21.7177 23.6055 21.4834L22.4241 19.7486C21.6792 18.6546 20.4414 18 19.1179 18H9C4.02944 18 0 13.9706 0 9C0 4.02944 4.02944 0 9 0H39Z"/>
</mask>
<path d="M39 0C43.9706 0 48 4.02944 48 9C48 13.9706 43.9706 18 39 18H28.7972C27.4737 18 26.2359 18.6547 25.4909 19.7487L24.333 21.4492C24.1632 21.6986 23.765 21.7177 23.6055 21.4834L22.4241 19.7486C21.6792 18.6546 20.4414 18 19.1179 18H9C4.02944 18 0 13.9706 0 9C0 4.02944 4.02944 0 9 0H39Z" fill="var(--fill-0, #FFF9CF)" style="fill:#FFF9CF;fill:color(display-p3 1.0000 0.9766 0.8131);fill-opacity:1;"/>
<path d="M24.333 21.4492L25.1596 22.0121L25.1596 22.012L24.333 21.4492ZM23.6055 21.4834L22.7789 22.0463L22.7789 22.0463L23.6055 21.4834ZM22.4241 19.7486L21.5976 20.3114L22.4241 19.7486ZM25.4909 19.7487L26.3175 20.3115L25.4909 19.7487ZM39 0V1C43.4183 1 47 4.58172 47 9H48H49C49 3.47715 44.5228 -1 39 -1V0ZM48 9H47C47 13.4183 43.4183 17 39 17V18V19C44.5228 19 49 14.5228 49 9H48ZM39 18V17H28.7972V18V19H39V18ZM25.4909 19.7487L24.6644 19.1859L23.5064 20.8864L24.333 21.4492L25.1596 22.012L26.3175 20.3115L25.4909 19.7487ZM24.333 21.4492L23.5065 20.8864C23.6225 20.7159 23.7905 20.6548 23.9182 20.6488C24.0433 20.6429 24.2743 20.6889 24.432 20.9205L23.6055 21.4834L22.7789 22.0463C23.0962 22.5122 23.606 22.6658 24.0126 22.6466C24.4217 22.6272 24.8736 22.432 25.1596 22.0121L24.333 21.4492ZM23.6055 21.4834L24.432 20.9205L23.2507 19.1857L22.4241 19.7486L21.5976 20.3114L22.7789 22.0463L23.6055 21.4834ZM19.1179 18V17H9V18V19H19.1179V18ZM9 18V17C4.58172 17 1 13.4183 1 9H0H-1C-1 14.5228 3.47715 19 9 19V18ZM0 9H1C1 4.58172 4.58172 1 9 1V0V-1C3.47715 -1 -1 3.47715 -1 9H0ZM9 0V1H39V0V-1H9V0ZM22.4241 19.7486L23.2507 19.1857C22.3195 17.8183 20.7723 17 19.1179 17V18V19C20.1105 19 21.0389 19.491 21.5976 20.3114L22.4241 19.7486ZM28.7972 18V17C27.1428 17 25.5955 17.8184 24.6644 19.1859L25.4909 19.7487L26.3175 20.3115C26.8762 19.491 27.8046 19 28.7972 19V18Z" fill="var(--stroke-0, #FFE8A2)" style="fill:#FFE8A2;fill:color(display-p3 1.0000 0.9092 0.6369);fill-opacity:1;" mask="url(#path-1-inside-1_0_24)"/>
</g>
</g>
</svg>
