<svg preserveAspectRatio="none" width="100%" height="100%" overflow="visible" style="display: block;" viewBox="0 0 46 21.6482" fill="none" xmlns="http://www.w3.org/2000/svg">
<g id="Icon Container">
<g id="Union">
<mask id="path-1-inside-1_0_28" fill="white">
<path d="M37 0C41.9706 3.22128e-07 46 4.02944 46 9C46 13.9706 41.9706 18 37 18H27.7972C26.4737 18 25.2359 18.6547 24.4909 19.7487L23.333 21.4492C23.1632 21.6986 22.765 21.7177 22.6055 21.4834L21.4241 19.7486C20.6792 18.6546 19.4414 18 18.1179 18H9C4.02944 18 0 13.9706 0 9C0 4.02944 4.02944 0 9 0H37Z"/>
</mask>
<path d="M37 0C41.9706 3.22128e-07 46 4.02944 46 9C46 13.9706 41.9706 18 37 18H27.7972C26.4737 18 25.2359 18.6547 24.4909 19.7487L23.333 21.4492C23.1632 21.6986 22.765 21.7177 22.6055 21.4834L21.4241 19.7486C20.6792 18.6546 19.4414 18 18.1179 18H9C4.02944 18 0 13.9706 0 9C0 4.02944 4.02944 0 9 0H37Z" fill="var(--fill-0, #FFF9CF)" style="fill:#FFF9CF;fill:color(display-p3 1.0000 0.9766 0.8131);fill-opacity:1;"/>
<path d="M37 0V-1V-1V0ZM23.333 21.4492L24.1596 22.0121L24.1596 22.012L23.333 21.4492ZM22.6055 21.4834L21.7789 22.0463L21.7789 22.0463L22.6055 21.4834ZM9 18V19V19V18ZM21.4241 19.7486L20.5976 20.3114L21.4241 19.7486ZM24.4909 19.7487L25.3175 20.3115L24.4909 19.7487ZM37 0V1C41.4183 1 45 4.58172 45 9H46H47C47 3.47715 42.5228 -1 37 -1V0ZM46 9H45C45 13.4183 41.4183 17 37 17V18V19C42.5228 19 47 14.5228 47 9H46ZM37 18V17H27.7972V18V19H37V18ZM24.4909 19.7487L23.6644 19.1859L22.5064 20.8864L23.333 21.4492L24.1596 22.012L25.3175 20.3115L24.4909 19.7487ZM23.333 21.4492L22.5065 20.8864C22.6225 20.7159 22.7905 20.6548 22.9182 20.6488C23.0433 20.6429 23.2743 20.6889 23.432 20.9205L22.6055 21.4834L21.7789 22.0463C22.0962 22.5122 22.606 22.6658 23.0126 22.6466C23.4217 22.6272 23.8736 22.432 24.1596 22.0121L23.333 21.4492ZM22.6055 21.4834L23.432 20.9205L22.2507 19.1857L21.4241 19.7486L20.5976 20.3114L21.7789 22.0463L22.6055 21.4834ZM18.1179 18V17H9V18V19H18.1179V18ZM9 18V17C4.58172 17 1 13.4183 1 9H0H-1C-1 14.5228 3.47715 19 9 19V18ZM0 9H1C1 4.58172 4.58172 1 9 1V0V-1C3.47715 -1 -1 3.47715 -1 9H0ZM9 0V1H37V0V-1H9V0ZM21.4241 19.7486L22.2507 19.1857C21.3195 17.8183 19.7723 17 18.1179 17V18V19C19.1105 19 20.0389 19.491 20.5976 20.3114L21.4241 19.7486ZM27.7972 18V17C26.1428 17 24.5955 17.8184 23.6644 19.1859L24.4909 19.7487L25.3175 20.3115C25.8762 19.491 26.8046 19 27.7972 19V18Z" fill="var(--stroke-0, #FFE8A2)" style="fill:#FFE8A2;fill:color(display-p3 1.0000 0.9092 0.6369);fill-opacity:1;" mask="url(#path-1-inside-1_0_28)"/>
</g>
</g>
</svg>
