<svg preserveAspectRatio="none" width="100%" height="100%" overflow="visible" style="display: block;" viewBox="0 0 11.0644 14.1294" fill="none" xmlns="http://www.w3.org/2000/svg">
<g id="Frame 21194">
<path id="&#232;&#183;&#175;&#229;&#190;&#132;" d="M2.501 0.657025C2.81361 0.487868 3.18198 0.453614 3.52084 0.562484L6.81338 1.6212L9.91486 2.61836C10.4866 2.80247 10.7389 3.46998 10.4318 3.98519L8.34115 7.48986L9.40245 8.57541C9.76598 8.94747 9.69044 9.56014 9.24746 9.83113L8.11942 10.5189L8.12045 10.5199L3.42265 13.439C2.3898 14.0806 1.16511 12.9535 1.71951 11.8712L2.67862 9.99714L0.768301 8.28546C0.610516 8.14399 0.520382 7.94184 0.519608 7.73013L0.499778 2.44683C0.49823 2.01255 0.735415 1.61257 1.11706 1.40591L2.501 0.657025Z" fill="var(--fill-0, #FFED63)" stroke="var(--stroke-0, #FFF9D8)" style="fill:#FFED63;fill:color(display-p3 1.0000 0.9294 0.3882);fill-opacity:1;stroke:#FFF9D8;stroke:color(display-p3 1.0000 0.9768 0.8453);stroke-opacity:1;" stroke-linejoin="round"/>
<path id="&#232;&#183;&#175;&#229;&#190;&#132;_2" d="M2.59645 0.833015C2.86122 0.689733 3.17362 0.661061 3.46062 0.753332L6.75315 1.81204L9.8536 2.80828C10.3031 2.95278 10.5014 3.47765 10.2601 3.88255L8.09041 7.51939L9.25928 8.71479C9.53331 8.99496 9.47633 9.45649 9.14252 9.66052L8.01356 10.3493L3.31776 13.2694C2.45705 13.8043 1.43561 12.8647 1.89749 11.9627L2.9275 9.95108L0.902171 8.13678C0.786622 8.03326 0.719839 7.88558 0.719135 7.73062L0.700229 2.44629C0.699017 2.08564 0.895566 1.75353 1.21251 1.5819L2.59645 0.833015Z" fill="var(--fill-0, #FFED63)" stroke="url(#paint0_linear_0_16)" style="fill:#FFED63;fill:color(display-p3 1.0000 0.9294 0.3882);fill-opacity:1;" stroke-width="0.6" stroke-linejoin="round"/>
<g id="Mask group">
<mask id="mask0_0_16" style="mask-type:luminance" maskUnits="userSpaceOnUse" x="1" y="0" width="10" height="14">
<path id="&#232;&#183;&#175;&#229;&#190;&#132;_3" fill-rule="evenodd" clip-rule="evenodd" d="M3.16052 13.0145C2.558 13.389 1.84348 12.7313 2.1669 12.0999L3.16189 10.1575C3.2447 9.99582 3.20795 9.79844 3.07241 9.67701L1.18769 7.98844C1.08208 7.89382 1.02149 7.75893 1.02097 7.61728L1.00166 2.338C1.00099 2.15412 1.10133 1.9849 1.26293 1.89739L2.8182 1.05524C2.96202 0.977364 3.13154 0.96167 3.28745 1.0118L6.66347 2.0972L9.92397 3.14545C10.1079 3.20458 10.1892 3.41935 10.0904 3.585L7.71682 7.56441L9.14318 9.02256C9.2331 9.11449 9.2144 9.26598 9.10487 9.33293L7.85752 10.0953L3.16052 13.0145Z" fill="var(--fill-0, white)" style="fill:white;fill-opacity:1;"/>
</mask>
<g mask="url(#mask0_0_16)">
<g id="&#231;&#188;&#150;&#231;&#187;&#132; 10">
<path id="&#232;&#183;&#175;&#229;&#190;&#132; 47" fill-rule="evenodd" clip-rule="evenodd" d="M8.13421 4.0661L10.2841 3.25962L3.04388 0.931874L1.00109 2.03801L8.13421 4.0661Z" fill="url(#paint1_linear_0_16)"/>
<path id="&#232;&#183;&#175;&#229;&#190;&#132; 48" fill-rule="evenodd" clip-rule="evenodd" d="M10.2833 3.25953L7.71659 7.56287L5.83082 8.04333L8.13345 4.06601L10.2833 3.25953Z" fill="url(#paint2_linear_0_16)"/>
<g id="&#230;&#164;&#173;&#229;&#156;&#134;&#229;&#189;&#162;">
<g id="Object">
<mask id="mask1_0_16" style="mask-type:luminance" maskUnits="userSpaceOnUse" x="1" y="2" width="8" height="12">
<path id="&#232;&#146;&#153;&#231;&#137;&#136;" fill-rule="evenodd" clip-rule="evenodd" d="M1.00394 2.03828L1.02483 7.74961C1.02504 7.80627 1.04928 7.86023 1.09152 7.89808L3.1908 9.77888C3.25857 9.83959 3.27695 9.93829 3.23554 10.0191L2.17027 12.0987C1.84685 12.7301 2.56137 13.3878 3.1639 13.0133L7.8609 10.0941L5.88817 8.09806C5.85644 8.06596 5.85009 8.01663 5.87266 7.97764L8.13706 4.06637L1.00394 2.03828Z" fill="var(--fill-0, white)" style="fill:white;fill-opacity:1;"/>
</mask>
<g mask="url(#mask1_0_16)">
<ellipse id="&#230;&#164;&#173;&#229;&#156;&#134;&#229;&#189;&#162;_2" cx="4.95631" cy="1.91981" rx="4.95631" ry="1.91981" transform="matrix(0.901866 -0.432015 0.444776 0.895642 -0.354891 12.4409)" fill="var(--fill-0, #FFC334)" style="fill:#FFC334;fill:color(display-p3 1.0000 0.7660 0.2024);fill-opacity:1;"/>
<g id="Vector 169" opacity="0.925393">
<path d="M1.32214 3.44386L1.22597 6.10633C1.29685 5.01936 1.51898 4.07069 2.00761 3.61659C2.59128 3.07415 3.51023 3.15332 4.39075 3.39599L2.20768 2.79429C1.77202 2.67421 1.33845 2.99225 1.32214 3.44386Z" fill="var(--fill-0, white)" style="fill:white;fill-opacity:1;"/>
<path d="M2.18153 2.8904L3.0053 3.11745C2.60648 3.14669 2.2349 3.26899 1.93986 3.54301C1.68885 3.77629 1.50947 4.12446 1.38252 4.53608L1.42211 3.44791C1.43609 3.06082 1.80811 2.78748 2.18153 2.8904Z" stroke="var(--stroke-0, #FFED63)" stroke-opacity="0.181125" style="stroke:#FFED63;stroke:color(display-p3 1.0000 0.9294 0.3882);stroke-opacity:0.181125;" stroke-width="0.2"/>
</g>
<ellipse id="&#230;&#164;&#173;&#229;&#156;&#134;&#229;&#189;&#162;_3" cx="4.95631" cy="1.91981" rx="4.95631" ry="1.91981" transform="matrix(0.901866 -0.432015 0.444776 0.895642 -0.526766 9.18841)" fill="var(--fill-0, #FFDC50)" style="fill:#FFDC50;fill:color(display-p3 1.0000 0.8630 0.3148);fill-opacity:1;"/>
</g>
</g>
<path id="&#232;&#146;&#153;&#231;&#137;&#136;_2" opacity="0.42" d="M8.06178 4.09616L5.82952 7.95233C5.79566 8.01082 5.80526 8.08485 5.85285 8.13301L7.73739 10.0396C7.75996 10.0625 7.75507 10.1005 7.72785 10.1174L3.13703 12.9704C2.57756 13.318 1.91419 12.7075 2.2145 12.1212L3.28003 10.0422C3.33179 9.94116 3.30861 9.81785 3.22392 9.74195L1.12462 7.86105C1.09296 7.83267 1.0748 7.79169 1.07465 7.74922L1.05307 2.10322L8.06178 4.09616Z" stroke="url(#paint3_linear_0_16)" stroke-width="0.1" stroke-linejoin="round"/>
</g>
<path id="&#232;&#183;&#175;&#229;&#190;&#132; 49" fill-rule="evenodd" clip-rule="evenodd" d="M5.83346 8.0432L7.71923 7.56274L9.43968 9.22348L7.85993 10.0936L5.83346 8.0432Z" fill="var(--fill-0, #F89627)" style="fill:#F89627;fill:color(display-p3 0.9725 0.5882 0.1529);fill-opacity:1;"/>
<path id="&#232;&#183;&#175;&#229;&#190;&#132; 46" fill-rule="evenodd" clip-rule="evenodd" d="M1.00151 2.03827L1.02272 7.83861L1.12248 2.16355L8.13462 4.06636L1.20495 2.0278L3.0443 0.932134L1.00151 2.03827Z" fill="var(--fill-0, #FFFDE9)" style="fill:#FFFDE9;fill:color(display-p3 1.0000 0.9922 0.9137);fill-opacity:1;"/>
<path id="&#232;&#183;&#175;&#229;&#190;&#132; 3" opacity="0.498324" fill-rule="evenodd" clip-rule="evenodd" d="M5.8328 8.04456L8.1357 4.07221L10.2853 3.26076L8.10852 3.99004L3.38532 2.76047L8.03938 4.07716L5.8328 8.04456Z" fill="var(--fill-0, #FFFDE9)" style="fill:#FFFDE9;fill:color(display-p3 1.0000 0.9922 0.9137);fill-opacity:1;"/>
</g>
</g>
</g>
</g>
<defs>
<linearGradient id="paint0_linear_0_16" x1="5.2216" y1="0.821103" x2="5.90487" y2="14.0959" gradientUnits="userSpaceOnUse">
<stop stop-color="#F48620" style="stop-color:#F48620;stop-color:color(display-p3 0.9587 0.5272 0.1235);stop-opacity:1;"/>
<stop offset="1" stop-color="#E17216" style="stop-color:#E17216;stop-color:color(display-p3 0.8804 0.4465 0.0874);stop-opacity:1;"/>
</linearGradient>
<linearGradient id="paint1_linear_0_16" x1="-0.811145" y1="2.87547" x2="0.945152" y2="6.95555" gradientUnits="userSpaceOnUse">
<stop stop-color="#FAE05A" style="stop-color:#FAE05A;stop-color:color(display-p3 0.9820 0.8771 0.3526);stop-opacity:1;"/>
<stop offset="1" stop-color="#F7C550" style="stop-color:#F7C550;stop-color:color(display-p3 0.9690 0.7714 0.3142);stop-opacity:1;"/>
</linearGradient>
<linearGradient id="paint2_linear_0_16" x1="6.50325" y1="2.82621" x2="4.78993" y2="7.15367" gradientUnits="userSpaceOnUse">
<stop stop-color="#F89527" style="stop-color:#F89527;stop-color:color(display-p3 0.9725 0.5843 0.1529);stop-opacity:1;"/>
<stop offset="1" stop-color="#FFC02D" style="stop-color:#FFC02D;stop-color:color(display-p3 1.0000 0.7535 0.1784);stop-opacity:1;"/>
</linearGradient>
<linearGradient id="paint3_linear_0_16" x1="0.573372" y1="0.198511" x2="-4.78299" y2="9.8349" gradientUnits="userSpaceOnUse">
<stop stop-color="#FEFACF" style="stop-color:#FEFACF;stop-color:color(display-p3 0.9961 0.9804 0.8118);stop-opacity:1;"/>
<stop offset="0.566902" stop-color="#FCF250" style="stop-color:#FCF250;stop-color:color(display-p3 0.9882 0.9490 0.3137);stop-opacity:1;"/>
<stop offset="1" stop-color="#FDF2AD" style="stop-color:#FDF2AD;stop-color:color(display-p3 0.9922 0.9490 0.6784);stop-opacity:1;"/>
</linearGradient>
</defs>
</svg>
