<svg width="24" height="24" viewBox="0 0 24 24" fill="none" xmlns="http://www.w3.org/2000/svg">
<path fill-rule="evenodd" clip-rule="evenodd" d="M15.768 4.66663C17.8666 4.66663 20.8199 6.3661 20.6096 9.8941C20.4909 11.8855 18.9236 14.05 15.5516 16.9289L14.8548 17.5118C14.3752 17.9051 13.8656 18.308 13.3261 18.7203L12.4944 19.3459L12.0616 19.664C12.0609 19.6677 12.0597 19.6668 12.0585 19.6659C11.7669 19.4604 11.4855 19.2545 11.2114 19.0508L10.4106 18.4467C9.24186 17.5507 8.21922 16.7006 7.34266 15.8964L6.77993 15.367C4.52539 13.1895 3.51109 11.4372 3.39805 9.8941C3.13979 6.36851 6.33836 4.66663 8.34961 4.66663C9.48838 4.66663 10.7088 5.30212 11.8109 6.4216L12.0585 6.66181L12.3056 6.4216C13.3931 5.31468 14.6292 4.66663 15.768 4.66663Z" stroke="#1A1A2E" stroke-width="1.34" stroke-linejoin="round"/>
<path d="M16.5008 12.6539C16.007 13.3919 15.2406 14.2035 14.1695 15.1383" stroke="#1A1A2E" stroke-width="1.34" stroke-linecap="round" stroke-linejoin="round"/>
</svg>
