<svg width="24" height="24" viewBox="0 0 24 24" fill="none" xmlns="http://www.w3.org/2000/svg">
<g clip-path="url(#clip0_1489_3645)">
<path d="M17.6024 1.03972C17.7326 0.993589 17.8693 1.09015 17.8692 1.22826L17.8673 19.4129L6.13593 19.6689L6.13593 1.37341C6.13593 1.23801 6.26765 1.14174 6.39665 1.18285L12.0844 2.99534L17.6024 1.03972Z" fill="#EF3E26"/>
<path d="M9.56772 2.19272L12.0839 2.99048L14.5903 2.10461V10.0259H9.56772V2.19272Z" fill="#FFE9B1"/>
<ellipse opacity="0.3" cx="11.9997" cy="13.6309" rx="9.06641" ry="8.99097" fill="#6D1B00"/>
</g>
<path d="M12 23.3605C17.0074 23.3605 21.0667 19.3012 21.0667 14.2938C21.0667 9.28644 17.0074 5.22716 12 5.22716C6.99264 5.22716 2.93335 9.28644 2.93335 14.2938C2.93335 19.3012 6.99264 23.3605 12 23.3605Z" fill="#D6D6D6"/>
<path d="M12 23.3605C17.0074 23.3605 21.0667 19.3012 21.0667 14.2938C21.0667 9.28644 17.0074 5.22716 12 5.22716C6.99264 5.22716 2.93335 9.28644 2.93335 14.2938C2.93335 19.3012 6.99264 23.3605 12 23.3605Z" fill="#F7BB26"/>
<path d="M2.93335 14.2921C2.93335 14.8846 2.99098 15.4635 3.09944 16.0242L11.0941 5.27011C6.51223 5.72467 2.93335 9.59041 2.93335 14.2921Z" fill="#FFD15D"/>
<path d="M12.0055 23.0449C16.8387 23.0449 20.7568 19.1268 20.7568 14.2936C20.7568 9.46037 16.8387 5.54227 12.0055 5.54227C7.17225 5.54227 3.25415 9.46037 3.25415 14.2936C3.25415 19.1268 7.17225 23.0449 12.0055 23.0449Z" fill="#FFE164"/>
<path d="M12.0083 7.08627C8.03413 7.08627 4.80103 10.3197 4.80103 14.2936C4.80103 18.2674 8.03413 21.5012 12.0083 21.5012C15.9825 21.5012 19.2159 18.2681 19.2159 14.2936C19.2159 10.319 15.9828 7.08627 12.0083 7.08627Z" fill="#E3A000"/>
<path d="M11.8657 7.93848C8.36189 7.93848 5.51147 10.7892 5.51147 14.2927C5.51147 17.7961 8.36189 20.6472 11.8657 20.6472C15.3694 20.6472 18.2202 17.7967 18.2202 14.2927C18.2202 10.7886 15.3697 7.93848 11.8657 7.93848Z" fill="#FFDA64"/>
<path d="M16.8352 10.3433C16.8352 10.3433 15.5424 8.64606 13.8186 8.2321L5.83228 16.3064C7.06067 19.745 10.0584 20.6474 11.8608 20.6474C15.3645 20.6474 18.2153 17.797 18.2153 14.2929C18.2153 12.8016 17.6987 11.4284 16.8352 10.3433Z" fill="#FFCE33"/>
<path d="M16.2047 9.64422L7.27029 18.6846C8.42775 19.8939 10.0566 20.6482 11.859 20.6482C15.3628 20.6482 18.2135 17.7978 18.2135 14.2937C18.2135 12.8024 17.6215 10.8342 16.2047 9.64422Z" fill="#F7BB26"/>
<path d="M13.4275 17.6225C13.3038 17.5649 13.2407 17.5565 13.2407 17.482L13.2462 10.1251L12.9982 9.89786C12.9001 9.89786 12.6255 10.1358 12.5857 10.1578C12.5456 10.1799 12.4144 10.3246 12.1923 10.5923C11.9045 10.9378 11.6096 11.214 11.3075 11.4205C11.0051 11.6271 10.7668 11.7644 10.592 11.832C10.4609 11.8793 10.3789 11.9227 10.3462 11.9615C10.3135 12.0007 10.297 12.059 10.297 12.137L10.0604 12.1917C10.0604 12.307 10.353 12.5132 10.4657 12.5135C10.6949 12.5135 10.9734 12.4614 11.301 12.3565L11.2971 17.4257C11.2971 17.5341 11.1952 17.617 10.9912 17.6747C10.8601 17.7119 10.7846 17.7507 10.7645 17.7915C10.7445 17.8323 10.5217 17.9337 10.5214 18.103C10.5214 18.2218 10.8578 18.3762 10.9633 18.3762L13.4634 18.3782C13.5907 18.3782 13.6545 18.3345 13.6545 18.2461C13.6545 18.0224 13.6428 17.8841 13.6192 17.8317C13.5955 17.7792 13.5324 17.6714 13.4269 17.6238L13.4275 17.6225Z" fill="#7D3109"/>
<path d="M13.1785 17.4532C13.0548 17.3956 12.993 17.3295 12.993 17.2547L12.9985 9.89786H12.5452C12.4471 9.89754 12.3778 9.90855 12.3377 9.93056C12.2975 9.95258 12.1664 10.0973 11.9443 10.3651C11.6565 10.7105 11.3615 10.9867 11.0594 11.1932C10.7571 11.3998 10.5188 11.5371 10.3439 11.6047C10.2128 11.652 10.1309 11.6954 10.0982 11.7343C10.0655 11.7734 10.049 11.8317 10.049 11.9097V12.1131C10.049 12.2283 10.105 12.2859 10.218 12.2859C10.4472 12.2859 10.7256 12.2338 11.0533 12.1289L11.0494 17.1981C11.0494 17.3065 10.9474 17.3894 10.7435 17.4471C10.6123 17.4843 10.5369 17.5231 10.5168 17.5639C10.4967 17.6047 10.4867 17.7096 10.4867 17.8793C10.4867 17.9981 10.4984 18.0726 10.522 18.103C10.5456 18.1334 10.6101 18.149 10.7159 18.149L13.216 18.1509C13.3433 18.1509 13.4071 18.1072 13.4071 18.0188C13.4071 17.7951 13.3954 17.6569 13.3718 17.6044C13.3481 17.552 13.2837 17.5018 13.1782 17.4542L13.1785 17.4532Z" fill="#9D4507"/>
<path d="M11.1031 15.7809L12.9936 13.7706L12.9952 11.4548L11.107 13.4624L11.1031 15.7809Z" fill="#B66C2F"/>
<path d="M6.42568 8.31023L6.2774 7.70187L6.11357 8.26749C6.05626 8.46531 5.89503 8.61035 5.69203 8.64661L5.19635 8.73565L5.71793 8.89753C5.92126 8.96067 6.08184 9.12611 6.13882 9.33138L6.29164 9.8808L6.42989 9.34076C6.48169 9.13841 6.64228 8.98721 6.84754 8.94772L7.37301 8.8467L6.73973 8.64564C6.58497 8.59643 6.46453 8.46757 6.426 8.3099L6.42568 8.31023Z" fill="white"/>
<path d="M18.2962 19.2012L18.2095 18.8454L18.1136 19.1763C18.0803 19.2918 17.9857 19.3767 17.8669 19.398L17.5771 19.4502L17.8821 19.5447C18.001 19.5816 18.0948 19.6784 18.1282 19.7982L18.2176 20.1194L18.2982 19.8037C18.3286 19.6852 18.4225 19.5968 18.5423 19.5738L18.8495 19.5146L18.4792 19.3971C18.3885 19.3682 18.3182 19.2928 18.2959 19.2009L18.2962 19.2012Z" fill="white"/>
<defs>
<clipPath id="clip0_1489_3645">
<rect width="11.7333" height="19.5556" fill="white" transform="translate(6.13596 0.639526)"/>
</clipPath>
</defs>
</svg>
