<svg width="24" height="24" viewBox="0 0 24 24" fill="none" xmlns="http://www.w3.org/2000/svg">
<g clip-path="url(#clip0_1489_3595)">
<path d="M17.7332 0.407154C17.8633 0.361019 18 0.457577 18 0.595686L17.998 19.2L6 19.4619L6 0.74435C6 0.608951 6.13172 0.512681 6.26072 0.553792L12.0837 2.40936L17.7332 0.407154Z" fill="#CE6B3F"/>
<path d="M9.50684 1.58924L12.0802 2.40512L14.6436 1.49912V9.60043H9.50684V1.58924Z" fill="#F6B396"/>
<ellipse opacity="0.3" cx="12" cy="13.2874" rx="9.27246" ry="9.19531" fill="#C9521D"/>
</g>
<path d="M11.9973 23.2364C17.1185 23.2364 21.2701 19.0848 21.2701 13.9636C21.2701 8.84246 17.1185 4.69092 11.9973 4.69092C6.87615 4.69092 2.72461 8.84246 2.72461 13.9636C2.72461 19.0848 6.87615 23.2364 11.9973 23.2364Z" fill="#D6D6D6"/>
<path d="M11.9973 23.2364C17.1185 23.2364 21.2701 19.0848 21.2701 13.9636C21.2701 8.84246 17.1185 4.69092 11.9973 4.69092C6.87615 4.69092 2.72461 8.84246 2.72461 13.9636C2.72461 19.0848 6.87615 23.2364 11.9973 23.2364Z" fill="#EFA279"/>
<path d="M2.72461 13.9638C2.72461 14.5698 2.78355 15.1618 2.89447 15.7353L11.0709 4.73682C6.38483 5.20171 2.72461 9.1553 2.72461 13.9638Z" fill="#FFB48C"/>
<path d="M12 22.9139C16.9431 22.9139 20.9502 18.9067 20.9502 13.9636C20.9502 9.02058 16.9431 5.01343 12 5.01343C7.05695 5.01343 3.0498 9.02058 3.0498 13.9636C3.0498 18.9067 7.05695 22.9139 12 22.9139Z" fill="#FFCEB5"/>
<path d="M12.0029 6.59253C7.93842 6.59253 4.63184 9.89944 4.63184 13.9636C4.63184 18.0278 7.93842 21.3351 12.0029 21.3351C16.0674 21.3351 19.3744 18.0285 19.3744 13.9636C19.3744 9.89878 16.0678 6.59253 12.0029 6.59253Z" fill="#EE9B6E"/>
<path d="M11.8541 7.46484C8.27066 7.46484 5.35547 10.3804 5.35547 13.9634C5.35547 17.5465 8.27066 20.4624 11.8541 20.4624C15.4375 20.4624 18.353 17.5472 18.353 13.9634C18.353 10.3797 15.4378 7.46484 11.8541 7.46484Z" fill="#FFD4C1"/>
<path d="M16.9395 9.92504C16.9395 9.92504 15.6174 8.18923 13.8543 7.76587L5.68652 16.0237C6.94284 19.5404 10.0087 20.4633 11.852 20.4633C15.4354 20.4633 18.351 17.5481 18.351 13.9644C18.351 12.4392 17.8227 11.0349 16.9395 9.92504Z" fill="#FFC8AB"/>
<path d="M16.2947 9.20893L7.15723 18.4548C8.34099 19.6915 10.0069 20.463 11.8503 20.463C15.4337 20.463 18.3492 17.5478 18.3492 13.9641C18.3492 12.4389 17.7437 10.4259 16.2947 9.20893Z" fill="#FDB28A"/>
<path d="M11.9859 17.6235C11.3745 17.6198 10.8476 17.5148 10.405 17.3085C9.96245 17.1022 9.6174 16.8078 9.36986 16.4252C9.12608 16.0427 8.99856 15.5888 8.9873 15.0638H10.3206C10.3994 15.5476 10.5907 15.9076 10.8945 16.1439C11.202 16.3765 11.5752 16.4927 12.014 16.4927C12.3778 16.4927 12.6929 16.4383 12.9591 16.3296C13.2254 16.2171 13.4298 16.0633 13.5724 15.8683C13.7186 15.6732 13.7918 15.4463 13.7918 15.1875C13.7918 14.9137 13.713 14.6793 13.5555 14.4843C13.4017 14.2893 13.1898 14.1393 12.9198 14.0342C12.6497 13.9292 12.3459 13.873 12.0084 13.8655L11.2545 13.843V12.729L11.9521 12.7009C12.2747 12.6897 12.5578 12.6278 12.8016 12.5153C13.0492 12.4027 13.2423 12.2546 13.3811 12.0708C13.5199 11.887 13.5892 11.6808 13.5892 11.452C13.5892 11.2419 13.5236 11.0525 13.3923 10.8838C13.2648 10.715 13.0829 10.5837 12.8466 10.49C12.6103 10.3924 12.3309 10.3437 12.0084 10.3437C11.7346 10.3437 11.4777 10.3924 11.2376 10.49C10.9976 10.5875 10.7988 10.745 10.6413 10.9625C10.4875 11.1763 10.4031 11.4576 10.3881 11.8064H9.06044C9.06044 11.2513 9.19359 10.7844 9.45988 10.4056C9.72616 10.023 10.0825 9.7361 10.5288 9.54482C10.9789 9.34979 11.4777 9.25227 12.0253 9.25227C12.6141 9.25227 13.1354 9.33291 13.5892 9.49418C14.0468 9.65171 14.405 9.88987 14.6638 10.2087C14.9263 10.5275 15.0576 10.9231 15.0576 11.3957C15.0576 11.797 14.9357 12.1552 14.6919 12.4703C14.4481 12.7853 14.0637 13.0328 13.5386 13.2129C13.8649 13.3029 14.1574 13.4379 14.4162 13.6179C14.675 13.7942 14.8794 14.0155 15.0295 14.2818C15.1832 14.5481 15.2601 14.8612 15.2601 15.2213C15.2601 15.6076 15.1757 15.9508 15.007 16.2508C14.8419 16.5509 14.6094 16.804 14.3093 17.0103C14.0131 17.2128 13.6661 17.3666 13.2686 17.4716C12.871 17.5729 12.4434 17.6235 11.9859 17.6235Z" fill="#632A09"/>
<path d="M11.5347 17.6235C10.9234 17.6198 10.3964 17.5148 9.95384 17.3085C9.51128 17.1022 9.16623 16.8078 8.91869 16.4252C8.6749 16.0427 8.54738 15.5888 8.53613 15.0638H9.86946C9.94822 15.5476 10.1395 15.9076 10.4433 16.1439C10.7508 16.3765 11.124 16.4927 11.5628 16.4927C11.9266 16.4927 12.2417 16.4383 12.508 16.3296C12.7743 16.2171 12.9787 16.0633 13.1212 15.8683C13.2675 15.6732 13.3406 15.4463 13.3406 15.1875C13.3406 14.9137 13.2618 14.6793 13.1043 14.4843C12.9505 14.2893 12.7386 14.1393 12.4686 14.0342C12.1986 13.9292 11.8948 13.873 11.5572 13.8655L10.8033 13.843V12.729L11.5009 12.7009C11.8235 12.6897 12.1067 12.6278 12.3505 12.5153C12.598 12.4027 12.7911 12.2546 12.9299 12.0708C13.0687 11.887 13.1381 11.6808 13.1381 11.452C13.1381 11.2419 13.0724 11.0525 12.9412 10.8838C12.8136 10.715 12.6317 10.5837 12.3955 10.49C12.1592 10.3924 11.8798 10.3437 11.5572 10.3437C11.2834 10.3437 11.0265 10.3924 10.7865 10.49C10.5464 10.5875 10.3477 10.745 10.1901 10.9625C10.0364 11.1763 9.95197 11.4576 9.93697 11.8064H8.60927C8.60927 11.2513 8.74241 10.7844 9.0087 10.4056C9.27499 10.023 9.6313 9.7361 10.0776 9.54482C10.5277 9.34979 11.0265 9.25227 11.5741 9.25227C12.1629 9.25227 12.6843 9.33291 13.1381 9.49418C13.5956 9.65171 13.9538 9.88987 14.2126 10.2087C14.4751 10.5275 14.6064 10.9231 14.6064 11.3957C14.6064 11.797 14.4845 12.1552 14.2407 12.4703C13.9969 12.7853 13.6125 13.0328 13.0874 13.2129C13.4137 13.3029 13.7063 13.4379 13.9651 13.6179C14.2239 13.7942 14.4283 14.0155 14.5783 14.2818C14.7321 14.5481 14.8089 14.8612 14.8089 15.2213C14.8089 15.6076 14.7246 15.9508 14.5558 16.2508C14.3908 16.5509 14.1582 16.804 13.8582 17.0103C13.5619 17.2128 13.215 17.3666 12.8174 17.4716C12.4198 17.5729 11.9923 17.6235 11.5347 17.6235Z" fill="#A15326"/>
<path d="M9.87012 15.0637C9.91626 15.3471 10.0016 15.5874 10.125 15.7859L9.16553 16.741C9.07507 16.6431 8.99131 16.5379 8.91797 16.4246C8.74207 16.1483 8.62694 15.8347 8.57227 15.4841L9.00732 15.0637H9.87012Z" fill="#B45F2E"/>
<path d="M14.2119 10.2092C14.4608 10.5114 14.5901 10.8822 14.603 11.3225L12.0073 13.9094C11.8647 13.8847 11.7149 13.869 11.5576 13.8655L10.8032 13.8435V13.3162L11.4331 12.7024L11.5005 12.7009C11.823 12.6897 12.1063 12.6274 12.3501 12.5149C12.5976 12.4024 12.7914 12.2548 12.9302 12.071C13.0689 11.8873 13.1382 11.6802 13.1382 11.4514C13.1381 11.3308 13.1127 11.2185 13.0693 11.1116L14.1123 10.0964C14.1469 10.133 14.1803 10.1703 14.2119 10.2092Z" fill="#B45F2E"/>
<path d="M6.29633 7.84483L6.14468 7.22266L5.97713 7.80113C5.91852 8.00344 5.75362 8.15178 5.54601 8.18887L5.03906 8.27993L5.5725 8.44549C5.78044 8.51006 5.94468 8.67926 6.00296 8.88919L6.15925 9.45111L6.30064 8.89879C6.35362 8.69184 6.51785 8.53721 6.72778 8.49681L7.26519 8.3935L6.61752 8.18788C6.45924 8.13754 6.33607 8.00576 6.29666 7.8445L6.29633 7.84483Z" fill="white"/>
<path d="M18.4337 18.9828L18.3449 18.6189L18.2469 18.9573C18.2128 19.0755 18.1161 19.1623 17.9946 19.1841L17.6982 19.2374L18.0102 19.3341C18.1317 19.3719 18.2277 19.4709 18.2618 19.5934L18.3532 19.9219L18.4357 19.599C18.4668 19.4778 18.5628 19.3874 18.6853 19.3639L18.9996 19.3033L18.6207 19.1831C18.528 19.1537 18.4562 19.0765 18.4333 18.9825L18.4337 18.9828Z" fill="white"/>
<defs>
<clipPath id="clip0_1489_3595">
<rect width="12" height="20" fill="white" transform="translate(6)"/>
</clipPath>
</defs>
</svg>
