<svg width="24" height="24" viewBox="0 0 24 24" fill="none" xmlns="http://www.w3.org/2000/svg">
<g clip-path="url(#clip0_1489_3616)">
<path d="M17.7332 0.407154C17.8633 0.361019 18 0.457577 18 0.595686L17.998 19.2L6 19.4619L6 0.74435C6 0.608951 6.13172 0.512681 6.26072 0.553792L12.0837 2.40936L17.7332 0.407154Z" fill="#439CDF"/>
<path d="M9.50684 1.58924L12.0802 2.40512L14.6436 1.49912V9.60043H9.50684V1.58924Z" fill="#A2D5FF"/>
<ellipse opacity="0.3" cx="12" cy="13.2874" rx="9.27246" ry="9.19531" fill="#00456D"/>
</g>
<path d="M11.9973 23.2364C17.1185 23.2364 21.2701 19.0848 21.2701 13.9636C21.2701 8.84246 17.1185 4.69092 11.9973 4.69092C6.87615 4.69092 2.72461 8.84246 2.72461 13.9636C2.72461 19.0848 6.87615 23.2364 11.9973 23.2364Z" fill="#D6D6D6"/>
<path d="M11.9973 23.2364C17.1185 23.2364 21.2701 19.0848 21.2701 13.9636C21.2701 8.84246 17.1185 4.69092 11.9973 4.69092C6.87615 4.69092 2.72461 8.84246 2.72461 13.9636C2.72461 19.0848 6.87615 23.2364 11.9973 23.2364Z" fill="#8FCCF9"/>
<path d="M2.72461 13.9638C2.72461 14.5698 2.78355 15.1618 2.89447 15.7353L11.0709 4.73682C6.38483 5.20171 2.72461 9.1553 2.72461 13.9638Z" fill="#C6E5FF"/>
<path d="M12 22.9139C16.9431 22.9139 20.9502 18.9067 20.9502 13.9636C20.9502 9.02058 16.9431 5.01343 12 5.01343C7.05695 5.01343 3.0498 9.02058 3.0498 13.9636C3.0498 18.9067 7.05695 22.9139 12 22.9139Z" fill="#B3DDFF"/>
<path d="M12.0029 6.59253C7.93842 6.59253 4.63184 9.89944 4.63184 13.9636C4.63184 18.0278 7.93842 21.3351 12.0029 21.3351C16.0674 21.3351 19.3744 18.0285 19.3744 13.9636C19.3744 9.89878 16.0678 6.59253 12.0029 6.59253Z" fill="#75BCF2"/>
<path d="M11.8541 7.46484C8.27066 7.46484 5.35547 10.3804 5.35547 13.9634C5.35547 17.5465 8.27066 20.4624 11.8541 20.4624C15.4375 20.4624 18.353 17.5472 18.353 13.9634C18.353 10.3797 15.4378 7.46484 11.8541 7.46484Z" fill="#BFE2FF"/>
<path d="M16.9395 9.92504C16.9395 9.92504 15.6174 8.18923 13.8543 7.76587L5.68652 16.0237C6.94284 19.5404 10.0087 20.4633 11.852 20.4633C15.4354 20.4633 18.351 17.5481 18.351 13.9644C18.351 12.4392 17.8227 11.0349 16.9395 9.92504Z" fill="#ADDCFF"/>
<path d="M16.2947 9.20893L7.15723 18.4548C8.34099 19.6915 10.0069 20.463 11.8503 20.463C15.4337 20.463 18.3492 17.5478 18.3492 13.9641C18.3492 12.4389 17.7437 10.4259 16.2947 9.20893Z" fill="#8FCFFF"/>
<path d="M6.29633 7.84483L6.14468 7.22266L5.97713 7.80113C5.91852 8.00344 5.75362 8.15178 5.54601 8.18887L5.03906 8.27993L5.5725 8.44549C5.78044 8.51006 5.94468 8.67926 6.00296 8.88919L6.15925 9.45111L6.30064 8.89879C6.35362 8.69184 6.51785 8.53721 6.72778 8.49681L7.26519 8.3935L6.61752 8.18788C6.45924 8.13754 6.33607 8.00576 6.29666 7.8445L6.29633 7.84483Z" fill="white"/>
<path d="M18.4337 18.9828L18.3449 18.6189L18.2469 18.9573C18.2128 19.0755 18.1161 19.1623 17.9946 19.1841L17.6982 19.2374L18.0102 19.3341C18.1317 19.3719 18.2277 19.4709 18.2618 19.5934L18.3532 19.9219L18.4357 19.599C18.4668 19.4778 18.5628 19.3874 18.6853 19.3639L18.9996 19.3033L18.6207 19.1831C18.528 19.1537 18.4562 19.0765 18.4333 18.9825L18.4337 18.9828Z" fill="white"/>
<path d="M9.36339 17.6625V16.607C9.36339 16.2105 9.43661 15.8694 9.58306 15.5837C9.72951 15.2943 9.92418 15.0425 10.1671 14.8282C10.41 14.6139 10.6761 14.4246 10.9654 14.2603C11.2583 14.0924 11.5476 13.9352 11.8334 13.7888C12.1227 13.6388 12.3888 13.4852 12.6317 13.328C12.8746 13.1673 13.0693 12.9887 13.2157 12.7922C13.3657 12.5958 13.4407 12.3618 13.4407 12.0903C13.4407 11.7438 13.3175 11.4617 13.071 11.2438C12.8282 11.0223 12.4978 10.9116 12.0798 10.9116C11.6369 10.9116 11.2708 11.0384 10.9815 11.292C10.6957 11.5456 10.526 11.9028 10.4725 12.3636H9.20801C9.21515 11.8921 9.32767 11.4635 9.54556 11.0777C9.76344 10.6919 10.0867 10.3847 10.5153 10.1561C10.944 9.92395 11.478 9.80786 12.1173 9.80786C12.671 9.80786 13.1478 9.9043 13.5479 10.0972C13.9515 10.2865 14.2623 10.5526 14.4802 10.8955C14.7016 11.2348 14.8124 11.6313 14.8124 12.085C14.8124 12.4815 14.7391 12.8208 14.5927 13.103C14.4498 13.3851 14.2587 13.6298 14.0194 13.837C13.7836 14.0406 13.5229 14.221 13.2371 14.3781C12.955 14.5353 12.671 14.6835 12.3852 14.8229C12.1031 14.9586 11.8423 15.1015 11.603 15.2515C11.3672 15.3979 11.1761 15.5658 11.0297 15.7551C10.8868 15.9444 10.8154 16.1713 10.8154 16.4356V16.5481H14.8284V17.6625H9.36339Z" fill="#103A5B"/>
<path d="M8.99425 17.4626V16.4071C8.99425 16.0106 9.06747 15.6695 9.21392 15.3837C9.36037 15.0944 9.55504 14.8426 9.79793 14.6283C10.0408 14.4139 10.3069 14.2246 10.5963 14.0603C10.8892 13.8924 11.1785 13.7353 11.4642 13.5888C11.7536 13.4388 12.0197 13.2852 12.2626 13.128C12.5055 12.9673 12.7001 12.7887 12.8466 12.5923C12.9966 12.3958 13.0716 12.1618 13.0716 11.8904C13.0716 11.5439 12.9484 11.2617 12.7019 11.0438C12.459 10.8224 12.1286 10.7116 11.7107 10.7116C11.2678 10.7116 10.9017 10.8384 10.6123 11.092C10.3266 11.3457 10.1569 11.7028 10.1033 12.1636H8.83887C8.84601 11.6921 8.95853 11.2635 9.17641 10.8777C9.3943 10.492 9.71756 10.1848 10.1462 9.95617C10.5748 9.724 11.1088 9.60791 11.7482 9.60791C12.3019 9.60791 12.7787 9.70435 13.1788 9.89724C13.5824 10.0865 13.8931 10.3527 14.111 10.6956C14.3325 11.0349 14.4432 11.4314 14.4432 11.885C14.4432 12.2815 14.37 12.6208 14.2236 12.903C14.0807 13.1852 13.8896 13.4299 13.6503 13.637C13.4145 13.8406 13.1538 14.021 12.868 14.1782C12.5858 14.3354 12.3019 14.4836 12.0161 14.6229C11.7339 14.7586 11.4732 14.9015 11.2338 15.0515C10.9981 15.198 10.807 15.3659 10.6606 15.5552C10.5177 15.7445 10.4462 15.9713 10.4462 16.2356V16.3481H14.4593V17.4626H8.99425Z" fill="#235379"/>
<path d="M13.8545 10.377C13.9495 10.4754 14.0371 10.5802 14.1108 10.6963C14.2722 10.9437 14.3733 11.2216 14.417 11.5298L8.99414 16.9512V16.4077C8.99414 16.0113 9.06744 15.6695 9.21387 15.3838C9.36032 15.0945 9.55545 14.8422 9.79834 14.6279C10.0411 14.4138 10.3075 14.2253 10.5967 14.061C10.8894 13.8933 11.1783 13.7357 11.4639 13.5894C11.7531 13.4394 12.0194 13.285 12.2622 13.1279C12.5051 12.9672 12.7002 12.7883 12.8467 12.5918C12.9965 12.3954 13.0723 12.1614 13.0723 11.8901C13.0722 11.6645 13.0186 11.4665 12.9141 11.2954L13.8545 10.377Z" fill="#3774A5"/>
<defs>
<clipPath id="clip0_1489_3616">
<rect width="12" height="20" fill="white" transform="translate(6)"/>
</clipPath>
</defs>
</svg>
