<svg width="24" height="24" viewBox="0 0 24 24" fill="none" xmlns="http://www.w3.org/2000/svg">
<path fill-rule="evenodd" clip-rule="evenodd" d="M11.901 3.00717C14.6483 3.24008 15.1245 5.18854 14.9688 7.11688L14.9531 7.26919C14.8893 7.77836 15.2862 8.22824 15.7993 8.22848L18.0419 8.22951C20.5272 8.22951 22.5419 10.2442 22.5419 12.7295C22.5419 12.9103 22.531 13.0909 22.5093 13.2703L22.2902 15.08C21.8169 18.9898 18.4987 21.9305 14.5604 21.9305H7C4.51472 21.9305 2.5 19.9158 2.5 17.4305V12.7295C2.5 10.2442 4.51472 8.22951 7 8.22951C7.22216 8.22866 7.40999 8.0648 7.44097 7.84481L7.606 6.67307C7.88987 4.63824 9.47705 2.87313 11.901 3.00717Z" fill="#FF7E32" stroke="#FF7E32" stroke-width="1.5"/>
<circle cx="8.04997" cy="17.2805" r="1.75" fill="#FFFFFF"/>
</svg>
