<svg width="24" height="24" viewBox="0 0 24 24" fill="none" xmlns="http://www.w3.org/2000/svg">
<g clip-path="url(#clip0_1465_332)">
<mask id="mask0_1465_332" maskUnits="userSpaceOnUse" x="1" y="-1" width="22" height="26">
<rect x="1.16512" y="-0.354614" width="20.8364" height="24.5768" fill="white"/>
</mask>
<g mask="url(#mask0_1465_332)">
<path d="M20.7486 13.9811C20.7486 13.5669 20.4128 13.2311 19.9986 13.2311C19.5844 13.2311 19.2486 13.5669 19.2486 13.9811H19.9986H20.7486ZM4.82966 3.8045V4.5545H18.3382V3.8045V3.0545H4.82966V3.8045ZM18.3382 19.8739V19.1239H4.82966V19.8739V20.6239H18.3382V19.8739ZM3.1692 18.2135H3.9192V5.46496H3.1692H2.4192V18.2135H3.1692ZM19.9986 13.9811H19.2486V18.2135H19.9986H20.7486V13.9811H19.9986ZM19.9986 5.46496H19.2486V11.1492H19.9986H20.7486V5.46496H19.9986ZM4.82966 19.8739V19.1239C4.32683 19.1239 3.9192 18.7163 3.9192 18.2135H3.1692H2.4192C2.4192 19.5447 3.4984 20.6239 4.82966 20.6239V19.8739ZM18.3382 19.8739V20.6239C19.6694 20.6239 20.7486 19.5447 20.7486 18.2135H19.9986H19.2486C19.2486 18.7163 18.841 19.1239 18.3382 19.1239V19.8739ZM18.3382 3.8045V4.5545C18.841 4.5545 19.2486 4.96213 19.2486 5.46496H19.9986H20.7486C20.7486 4.1337 19.6694 3.0545 18.3382 3.0545V3.8045ZM4.82966 3.8045V3.0545C3.4984 3.0545 2.4192 4.1337 2.4192 5.46496H3.1692H3.9192C3.9192 4.96213 4.32683 4.5545 4.82966 4.5545V3.8045Z" fill="white"/>
<path d="M3.1691 10.4215L9.20808 10.4221C9.40271 12.0251 10.5716 13.2573 11.9845 13.2573C13.3974 13.2573 14.5663 12.0251 14.7609 10.4221L19.9985 10.4215" stroke="white" stroke-width="1.5" stroke-linejoin="round"/>
</g>
</g>
<defs>
<clipPath id="clip0_1465_332">
<path d="M0 11.5833C0 5.18604 5.18603 0 11.5833 0V0C17.9806 0 23.1667 5.18604 23.1667 11.5833V12.4167C23.1667 18.814 17.9806 24 11.5833 24V24C5.18603 24 0 18.814 0 12.4167V11.5833Z" fill="white"/>
</clipPath>
</defs>
</svg>
