<svg width="24" height="24" viewBox="0 0 24 24" fill="none" xmlns="http://www.w3.org/2000/svg">
<g clip-path="url(#clip0_1465_353)">
<rect x="1.24053" y="-0.266968" width="20.6876" height="24.4013" fill="#D8D8D8" fill-opacity="0.01"/>
<mask id="mask0_1465_353" maskUnits="userSpaceOnUse" x="1" y="-1" width="21" height="26">
<rect x="1.24053" y="-0.266968" width="20.6876" height="24.4013" fill="white"/>
</mask>
<g mask="url(#mask0_1465_353)">
<path d="M17.4426 19.542L16.7059 19.3955L17.4426 19.542ZM17.6929 5.41822L17.6041 6.16295L17.6929 5.41822ZM17.0371 5.30951L16.9484 6.05424L17.6041 6.16295L17.6929 5.41822L17.7816 4.67349L17.1258 4.56478L17.0371 5.30951ZM19.2596 7.57306L18.5229 7.42661L16.7059 19.3955L17.4426 19.542L18.1793 19.6884L19.9962 7.71952L19.2596 7.57306ZM15.8951 20.8791L15.8624 20.1244L14.1884 20.1244L14.2211 20.8791L14.2538 21.6339L15.9278 21.6339L15.8951 20.8791ZM17.4426 19.542L16.7059 19.3955C16.6416 19.8191 16.2883 20.1244 15.8624 20.1244L15.8951 20.8791L15.9278 21.6339C17.0646 21.6339 18.0076 20.8191 18.1793 19.6884L17.4426 19.542ZM17.6929 5.41822L17.6041 6.16295C18.1967 6.26119 18.6129 6.83359 18.5229 7.42661L19.2596 7.57306L19.9962 7.71952C20.2132 6.29006 19.2101 4.91028 17.7816 4.67349L17.6929 5.41822Z" fill="black"/>
<path d="M4.89992 11.9977V19.2355C4.89992 20.146 5.63802 20.8841 6.54852 20.8841H15.4029C16.3134 20.8841 17.0515 20.146 17.0515 19.2355V4.75993C17.0515 3.84943 16.3134 3.11133 15.4029 3.11133H6.54852C5.63802 3.11133 4.89992 3.84943 4.89992 4.75993V7.55452" stroke="black" stroke-width="1.5" stroke-linecap="round" stroke-linejoin="round"/>
<path fill-rule="evenodd" clip-rule="evenodd" d="M11.2197 7.96143L10.2338 11.1627L7.60533 11.9238L10.2338 13.4044L11.2197 16.4414L12.2152 13.4044L14.4153 11.986L12.2152 11.1627L11.2197 7.96143Z" fill="black"/>
</g>
</g>
<defs>
<clipPath id="clip0_1465_353">
<path d="M0 11.5833C0 5.18604 5.18603 0 11.5833 0V0C17.9806 0 23.1667 5.18604 23.1667 11.5833V12.4167C23.1667 18.814 17.9806 24 11.5833 24V24C5.18603 24 0 18.814 0 12.4167V11.5833Z" fill="white"/>
</clipPath>
</defs>
</svg>
