<svg width="24" height="24" viewBox="0 0 24 24" fill="none" xmlns="http://www.w3.org/2000/svg">
<g clip-path="url(#clip0_1465_347)">
<rect x="0.350662" y="-1.31506" width="22.465" height="26.4977" fill="#D8D8D8" fill-opacity="0.01"/>
<mask id="mask0_1465_347" maskUnits="userSpaceOnUse" x="0" y="-2" width="23" height="28">
<rect x="0.350662" y="-1.31506" width="22.465" height="26.4977" fill="white"/>
</mask>
<g mask="url(#mask0_1465_347)">
<path d="M5.37383 12.2141L2.71752 9.08137C2.34942 8.64724 2.34937 8.01054 2.71742 7.57636L6.91263 2.62736C7.28848 2.18398 7.99542 2.20225 8.42133 2.59779C9.11657 3.24347 10.2346 4.02469 11.5742 4.02469C12.9692 4.02469 14.0468 3.28989 14.718 2.65421C15.1542 2.24108 15.8971 2.20512 16.2856 2.66339L20.4504 7.57635C20.8185 8.01053 20.8184 8.64725 20.4503 9.08138L17.7741 12.2375L17.7743 19.9132C17.7743 20.6053 17.2132 21.1664 16.5211 21.1664H6.6272C5.93511 21.1664 5.37405 20.6054 5.37403 19.9133L5.37395 16.6903" stroke="white" stroke-width="1.5" stroke-linecap="round" stroke-linejoin="round"/>
<path d="M9.07776 17.2435H14.1301" stroke="white" stroke-width="1.25317" stroke-linecap="round" stroke-linejoin="round"/>
</g>
</g>
<defs>
<clipPath id="clip0_1465_347">
<path d="M0 11.5833C0 5.18604 5.18603 0 11.5833 0V0C17.9806 0 23.1667 5.18604 23.1667 11.5833V12.4167C23.1667 18.814 17.9806 24 11.5833 24V24C5.18603 24 0 18.814 0 12.4167V11.5833Z" fill="white"/>
</clipPath>
</defs>
</svg>
