<svg preserveAspectRatio="none" width="100%" height="100%" overflow="visible" style="display: block;" viewBox="0 0 24 24" fill="none" xmlns="http://www.w3.org/2000/svg">
<path d="M6.5 5.5H17.5C18.8807 5.5 20 6.61929 20 8V14.5C20 15.8807 18.8807 17 17.5 17H11.5303L7.81066 20.7197C7.39645 21.1339 6.75 20.8427 6.75 20.2803V17H6.5C5.11929 17 4 15.8807 4 14.5V8C4 6.61929 5.11929 5.5 6.5 5.5ZM6.5 7C5.94772 7 5.5 7.44772 5.5 8V14.5C5.5 15.0523 5.94772 15.5 6.5 15.5H8.25C8.66421 15.5 9 15.8358 9 16.25V18.6893L10.7197 16.9697C10.8603 16.829 11.0511 16.75 11.25 16.75H17.5C18.0523 16.75 18.5 16.3023 18.5 15.75V8C18.5 7.44772 18.0523 7 17.5 7H6.5Z" fill="currentColor"/>
</svg>
