<svg width="24" height="24" viewBox="0 0 24 24" fill="none" xmlns="http://www.w3.org/2000/svg">
<g clip-path="url(#clip0_1465_317)">
<mask id="mask0_1465_317" maskUnits="userSpaceOnUse" x="-1" y="-2" width="26" height="27">
<rect x="-0.965279" y="-1.00018" width="25.0972" height="26" fill="white"/>
</mask>
<g mask="url(#mask0_1465_317)">
<path d="M5.01314 10.7972C4.55674 11.309 4.00949 12.0795 3.71302 13.0631C3.15824 14.9035 3.22448 17.0875 4.43875 17.5126C4.84463 17.654 5.28785 17.5681 5.68657 17.2678C5.69694 17.2843 5.70693 17.3005 5.71718 17.3166C5.03632 17.7447 4.65655 18.3423 4.65655 19.0086C4.65655 20.3792 6.22108 21.3737 8.37706 21.3737C9.52047 21.3737 10.5802 21.0679 11.261 20.5481C11.4823 20.5609 11.6797 20.5609 11.9035 20.5484C12.5844 21.0679 13.6437 21.3737 14.7871 21.3737C16.9427 21.3737 18.508 20.3792 18.508 19.0086C18.508 18.3438 18.1296 17.748 17.4516 17.3195C17.4621 17.3033 17.4725 17.2869 17.4826 17.2704C17.8802 17.5685 18.3205 17.6547 18.7268 17.513C19.9421 17.0875 20.0085 14.9028 19.454 13.0631C19.1597 12.0873 18.6188 11.3226 18.1681 10.8138C18.1735 10.7433 18.1763 10.6732 18.1763 10.6023C18.1763 10.0626 18.0391 9.53905 17.7687 9.04237C17.7687 5.4871 14.9955 2.60004 11.587 2.60004C8.55505 2.60004 6.02596 4.88408 5.50385 7.8859" stroke="white" stroke-width="1.4" stroke-linecap="round" stroke-linejoin="round"/>
<path d="M17.7559 9.99451C15.8665 10.7498 14.4018 11.1315 11.923 11.1506C10.0939 11.1647 8.34293 10.8173 7.13212 10.4998" stroke="white" stroke-width="1.4" stroke-linecap="round" stroke-linejoin="round"/>
<path d="M9.12538 11.2548C9.12538 11.2548 8.34418 12.5467 8.00314 14.669" stroke="white" stroke-width="1.6" stroke-linecap="round" stroke-linejoin="round"/>
</g>
</g>
<defs>
<clipPath id="clip0_1465_317">
<path d="M0 11.5833C0 5.18604 5.18603 0 11.5833 0V0C17.9806 0 23.1667 5.18604 23.1667 11.5833V12.4167C23.1667 18.814 17.9806 24 11.5833 24V24C5.18603 24 0 18.814 0 12.4167V11.5833Z" fill="white"/>
</clipPath>
</defs>
</svg>
