<svg width="24" height="24" viewBox="0 0 24 24" fill="none" xmlns="http://www.w3.org/2000/svg">
<g clip-path="url(#clip0_1465_325)">
<mask id="mask0_1465_325" maskUnits="userSpaceOnUse" x="-1" y="-2" width="26" height="27">
<rect x="-0.965279" y="-1.00018" width="25.0972" height="26" fill="white"/>
</mask>
<g mask="url(#mask0_1465_325)">
<path d="M18.1724 5.43245L18.4218 5.58159C19.6293 6.30383 20.3686 7.60738 20.3686 9.01441V14.9859C20.3686 16.3929 19.6293 17.6965 18.4218 18.4187L13.6373 21.2804C12.3729 22.0367 10.7952 22.0367 9.53084 21.2804L4.74634 18.4187C3.53883 17.6965 2.79958 16.3929 2.79958 14.9859V9.01441C2.79958 7.60738 3.53883 6.30383 4.74634 5.58159L9.53084 2.7199C10.7952 1.96365 12.3729 1.96365 13.6373 2.7199L13.7802 2.80536" stroke="black" stroke-width="1.4" stroke-linecap="round" stroke-linejoin="round"/>
<ellipse cx="11.5607" cy="11.9751" rx="3.70836" ry="3.84176" stroke="black" stroke-width="1.4"/>
</g>
</g>
<defs>
<clipPath id="clip0_1465_325">
<path d="M0 11.5833C0 5.18604 5.18603 0 11.5833 0V0C17.9806 0 23.1667 5.18604 23.1667 11.5833V12.4167C23.1667 18.814 17.9806 24 11.5833 24V24C5.18603 24 0 18.814 0 12.4167V11.5833Z" fill="white"/>
</clipPath>
</defs>
</svg>
