<svg width="24" height="24" viewBox="0 0 24 24" fill="none" xmlns="http://www.w3.org/2000/svg">
<path d="M9.5 7.00009C9.5 5.89556 10.3954 5.00014 11.4999 5.00009C12.6045 5.00004 13.5 5.89549 13.5 7.00009V19.0001C13.5 20.1046 12.6046 21 11.5001 21.0001C10.3955 21.0001 9.5 20.1047 9.5 19.0001L9.5 7.00009Z" stroke="white" stroke-width="1.5" stroke-linejoin="round"/>
<path d="M3 5.00009C3 3.89556 3.89537 3.00014 4.99991 3.00009C6.10451 3.00004 7 3.89549 7 5.00009V19.0005C7 20.105 6.10463 21.0004 5.00009 21.0005C3.89549 21.0005 3 20.1051 3 19.0005V5.00009Z" stroke="white" stroke-width="1.5" stroke-linejoin="round"/>
<path d="M15.5511 10.3872C15.2692 9.16608 16.1966 8.00022 17.4498 8.00016C18.3573 8.00012 19.1447 8.62647 19.3488 9.51071L21.4496 18.6131C21.7314 19.8342 20.804 21.0001 19.5508 21.0001C18.6433 21.0002 17.8559 20.3738 17.6518 19.4896L15.5511 10.3872Z" stroke="white" stroke-width="1.5" stroke-linejoin="round"/>
</svg>
