<svg width="24" height="24" viewBox="0 0 24 24" fill="none" xmlns="http://www.w3.org/2000/svg">
<path d="M10.1314 3.1939C11.475 2.29833 13.2254 2.29824 14.5689 3.1939L21.8541 8.05035C23.5005 9.14795 22.7233 11.7142 20.7447 11.7144H19.3492V18.9996C19.3492 20.1041 18.4537 20.9995 17.3492 20.9996H15.3492V17.7144C15.3491 16.0577 14.006 14.7144 12.3492 14.7144C10.6925 14.7145 9.34934 16.0577 9.3492 17.7144V20.9996H7.3492C6.2447 20.9995 5.3492 20.1041 5.3492 18.9996V11.7144H3.95565C1.97683 11.7144 1.1998 9.148 2.84627 8.05035L10.1314 3.1939Z" fill="#000000"/>
<path d="M10.1314 3.1939L9.71545 2.56984L9.71542 2.56985L10.1314 3.1939ZM14.5689 3.1939L14.1529 3.81794L14.1529 3.81795L14.5689 3.1939ZM21.8541 8.05035L22.2701 7.42631L22.2701 7.4263L21.8541 8.05035ZM20.7447 11.7144V12.4644H20.7448L20.7447 11.7144ZM19.3492 11.7144V10.9644C18.935 10.9644 18.5992 11.3002 18.5992 11.7144H19.3492ZM17.3492 20.9996V21.7496H17.3492L17.3492 20.9996ZM15.3492 20.9996H14.5992C14.5992 21.4138 14.935 21.7496 15.3492 21.7496V20.9996ZM15.3492 17.7144H16.0992V17.7143L15.3492 17.7144ZM12.3492 14.7144V13.9644H12.3492L12.3492 14.7144ZM9.3492 17.7144L8.5992 17.7143V17.7144H9.3492ZM9.3492 20.9996V21.7496C9.76342 21.7496 10.0992 21.4138 10.0992 20.9996H9.3492ZM7.3492 20.9996L7.34915 21.7496H7.3492V20.9996ZM5.3492 11.7144H6.0992C6.0992 11.3002 5.76342 10.9644 5.3492 10.9644V11.7144ZM2.84627 8.05035L2.43027 7.4263L2.43025 7.42631L2.84627 8.05035ZM10.1314 3.1939L10.5474 3.81797C11.6391 3.09028 13.0613 3.09024 14.1529 3.81794L14.5689 3.1939L14.985 2.56986C13.3895 1.50623 11.3109 1.50637 9.71545 2.56984L10.1314 3.1939ZM14.5689 3.1939L14.1529 3.81795L21.4381 8.6744L21.8541 8.05035L22.2701 7.4263L14.9849 2.56985L14.5689 3.1939ZM21.8541 8.05035L21.4381 8.67439C22.4669 9.36025 21.9815 10.9643 20.7446 10.9644L20.7447 11.7144L20.7448 12.4644C23.4652 12.4641 24.5341 8.93565 22.2701 7.42631L21.8541 8.05035ZM20.7447 11.7144V10.9644H19.3492V11.7144V12.4644H20.7447V11.7144ZM19.3492 11.7144H18.5992V18.9996H19.3492H20.0992V11.7144H19.3492ZM19.3492 18.9996H18.5992C18.5992 19.6899 18.0395 20.2495 17.3492 20.2496L17.3492 20.9996L17.3492 21.7496C18.8679 21.7495 20.0992 20.5184 20.0992 18.9996H19.3492ZM17.3492 20.9996V20.2496H15.3492V20.9996V21.7496H17.3492V20.9996ZM15.3492 20.9996H16.0992V17.7144H15.3492H14.5992V20.9996H15.3492ZM15.3492 17.7144L16.0992 17.7143C16.099 15.6435 14.4202 13.9644 12.3492 13.9644V14.7144V15.4644C13.5917 15.4644 14.5991 16.4718 14.5992 17.7145L15.3492 17.7144ZM12.3492 14.7144L12.3492 13.9644C10.2783 13.9645 8.59938 15.6435 8.5992 17.7143L9.3492 17.7144L10.0992 17.7145C10.0993 16.4719 11.1068 15.4645 12.3492 15.4644L12.3492 14.7144ZM9.3492 17.7144H8.5992V20.9996H9.3492H10.0992V17.7144H9.3492ZM9.3492 20.9996V20.2496H7.3492V20.9996V21.7496H9.3492V20.9996ZM7.3492 20.9996L7.34925 20.2496C6.65887 20.2495 6.0992 19.6898 6.0992 18.9996H5.3492H4.5992C4.5992 20.5184 5.83052 21.7495 7.34915 21.7496L7.3492 20.9996ZM5.3492 18.9996H6.0992V11.7144H5.3492H4.5992V18.9996H5.3492ZM5.3492 11.7144V10.9644H3.95565V11.7144V12.4644H5.3492V11.7144ZM3.95565 11.7144V10.9644C2.7189 10.9644 2.23324 9.36042 3.2623 8.67439L2.84627 8.05035L2.43025 7.42631C0.166358 8.93557 1.23476 12.4644 3.95565 12.4644V11.7144ZM2.84627 8.05035L3.26228 8.6744L10.5474 3.81795L10.1314 3.1939L9.71542 2.56985L2.43027 7.4263L2.84627 8.05035Z" fill="#000000"/>
</svg>
