<svg width="24" height="24" viewBox="0 0 24 24" fill="none" xmlns="http://www.w3.org/2000/svg">
<path d="M10.1318 3.47919L9.71584 2.85512L9.71582 2.85514L10.1318 3.47919ZM14.5693 3.47919L14.1533 4.10322L14.1533 4.10324L14.5693 3.47919ZM21.8545 8.33563L22.2706 7.71163L22.2705 7.71158L21.8545 8.33563ZM20.7451 11.9997V12.7497H20.7452L20.7451 11.9997ZM19.3496 11.9997V11.2497C18.9354 11.2497 18.5996 11.5855 18.5996 11.9997H19.3496ZM19.3496 18.9997L20.0996 18.9997V18.9997H19.3496ZM17.3496 20.9997V21.7497H17.3497L17.3496 20.9997ZM15.3496 20.9997H14.5996C14.5996 21.4139 14.9354 21.7497 15.3496 21.7497V20.9997ZM15.3496 17.7145H16.0996V17.7145L15.3496 17.7145ZM12.3496 14.7145V13.9645H12.3496L12.3496 14.7145ZM9.34959 17.7145L8.59959 17.7145V17.7145H9.34959ZM9.34959 20.9997V21.7497C9.76381 21.7497 10.0996 21.4139 10.0996 20.9997H9.34959ZM7.34959 20.9997L7.34955 21.7497H7.34959V20.9997ZM5.34959 18.9997H4.59959V18.9997L5.34959 18.9997ZM5.34959 11.9997H6.09959C6.09959 11.5855 5.76381 11.2497 5.34959 11.2497V11.9997ZM2.84666 8.33563L2.43066 7.71158L2.43064 7.71159L2.84666 8.33563ZM10.1318 3.47919L10.5478 4.10325C11.6395 3.37556 13.0617 3.37551 14.1533 4.10322L14.5693 3.47919L14.9853 2.85515C13.3899 1.79149 11.3113 1.79164 9.71584 2.85512L10.1318 3.47919ZM14.5693 3.47919L14.1533 4.10324L21.4385 8.95968L21.8545 8.33563L22.2705 7.71158L14.9853 2.85514L14.5693 3.47919ZM21.8545 8.33563L21.4384 8.95963C22.4671 9.64555 21.9817 11.2495 20.745 11.2497L20.7451 11.9997L20.7452 12.7497C23.4654 12.7492 24.5341 9.221 22.2706 7.71163L21.8545 8.33563ZM20.7451 11.9997V11.2497H19.3496V11.9997V12.7497H20.7451V11.9997ZM19.3496 11.9997H18.5996V18.9997H19.3496H20.0996V11.9997H19.3496ZM19.3496 18.9997L18.5996 18.9997C18.5996 19.6899 18.0399 20.2496 17.3495 20.2497L17.3496 20.9997L17.3497 21.7497C18.8682 21.7495 20.0995 20.5184 20.0996 18.9997L19.3496 18.9997ZM17.3496 20.9997V20.2497H15.3496V20.9997V21.7497H17.3496V20.9997ZM15.3496 20.9997H16.0996V17.7145H15.3496H14.5996V20.9997H15.3496ZM15.3496 17.7145L16.0996 17.7145C16.0994 15.6437 14.4206 13.9645 12.3496 13.9645V14.7145V15.4645C13.5921 15.4645 14.5995 16.472 14.5996 17.7146L15.3496 17.7145ZM12.3496 14.7145L12.3496 13.9645C10.2786 13.9646 8.59981 15.6437 8.59959 17.7145L9.34959 17.7145L10.0996 17.7146C10.0997 16.472 11.1071 15.4645 12.3496 15.4645L12.3496 14.7145ZM9.34959 17.7145H8.59959V20.9997H9.34959H10.0996V17.7145H9.34959ZM9.34959 20.9997V20.2497H7.34959V20.9997V21.7497H9.34959V20.9997ZM7.34959 20.9997L7.34964 20.2497C6.65931 20.2497 6.09962 19.6899 6.09959 18.9997L5.34959 18.9997L4.59959 18.9997C4.59964 20.5184 5.83091 21.7496 7.34955 21.7497L7.34959 20.9997ZM5.34959 18.9997H6.09959V11.9997H5.34959H4.59959V18.9997H5.34959ZM5.34959 11.9997V11.2497H3.95604V11.9997V12.7497H5.34959V11.9997ZM3.95604 11.9997V11.2497C2.71929 11.2497 2.23363 9.64571 3.26269 8.95967L2.84666 8.33563L2.43064 7.71159C0.166749 9.22085 1.23515 12.7497 3.95604 12.7497V11.9997ZM2.84666 8.33563L3.26267 8.95968L10.5478 4.10324L10.1318 3.47919L9.71582 2.85514L2.43066 7.71158L2.84666 8.33563Z" fill="black"/>
</svg>
