<svg width="26" height="26" viewBox="0 0 26 26" fill="none" xmlns="http://www.w3.org/2000/svg">
  <path fill="none" fill-rule="evenodd" clip-rule="evenodd" d="M11.5655 4.50359C12.4263 3.90101 13.572 3.90101 14.4328 4.50359L22.4744 10.1328C23.3492 10.7451 23.5619 11.9506 22.9496 12.8254C22.5878 13.3422 21.9966 13.65 21.3657 13.65H21.0325C20.8668 13.65 20.7324 13.7843 20.7324 13.95V19.85C20.7324 21.2307 19.6132 22.3499 18.2324 22.3499H7.76583C6.38511 22.3499 5.26582 21.2307 5.26582 19.8499V13.95C5.26582 13.7843 5.1315 13.65 4.96582 13.65H4.6326C3.56485 13.65 2.69925 12.7845 2.69922 11.7167C2.6992 11.0858 3.007 10.4946 3.52384 10.1328L11.5655 4.50359Z" stroke="#B2B3BA" stroke-width="1.4" stroke-linejoin="round"/>
  <path fill="none" d="M11.0391 18.6667V17.2048C11.0391 16.1371 11.9174 15.2715 13.001 15.2715C14.0845 15.2715 14.9629 16.1371 14.9629 17.2048V18.6667" stroke="#B2B3BA" stroke-width="1.4" stroke-linecap="round" stroke-linejoin="round"/>
</svg>
