<svg width="24" height="24" viewBox="0 0 24 24" fill="none" xmlns="http://www.w3.org/2000/svg">
<path d="M6.00722 13C6.60676 13 7.17528 13.1318 7.6869 13.3662C6.51588 14.5007 5.78753 16.0895 5.78749 17.8486V18.6348H3.4662C2.63938 18.6345 1.96816 17.9636 1.96815 17.1367V17.0391C1.96829 14.8088 3.777 13.0004 6.00722 13Z" fill="#000000"/>
<path d="M6.00722 13V12.25H6.00709L6.00722 13ZM7.6869 13.3662L8.20878 13.9049C8.38667 13.7325 8.468 13.4835 8.4261 13.2393C8.3842 12.9952 8.22447 12.7875 7.99929 12.6844L7.6869 13.3662ZM5.78749 17.8486L5.03749 17.8486V17.8486H5.78749ZM5.78749 18.6348V19.3848C6.2017 19.3848 6.53749 19.049 6.53749 18.6348H5.78749ZM3.4662 18.6348L3.46598 19.3848H3.4662V18.6348ZM1.96815 17.1367H1.21815V17.1367L1.96815 17.1367ZM1.96815 17.0391L1.21815 17.039V17.0391H1.96815ZM6.00722 13V13.75C6.4957 13.75 6.95792 13.8572 7.37452 14.0481L7.6869 13.3662L7.99929 12.6844C7.39264 12.4064 6.71783 12.25 6.00722 12.25V13ZM7.6869 13.3662L7.16503 12.8276C5.85438 14.0974 5.03753 15.878 5.03749 17.8486L5.78749 17.8486L6.53749 17.8486C6.53752 16.301 7.17738 14.9041 8.20878 13.9049L7.6869 13.3662ZM5.78749 17.8486H5.03749V18.6348H5.78749H6.53749V17.8486H5.78749ZM5.78749 18.6348V17.8848H3.4662V18.6348V19.3848H5.78749V18.6348ZM3.4662 18.6348L3.46643 17.8848C3.05342 17.8846 2.71816 17.5492 2.71815 17.1367L1.96815 17.1367L1.21815 17.1367C1.21816 18.378 2.22534 19.3844 3.46598 19.3848L3.4662 18.6348ZM1.96815 17.1367H2.71815V17.0391H1.96815H1.21815V17.1367H1.96815ZM1.96815 17.0391L2.71815 17.0391C2.71826 15.2231 4.19116 13.7503 6.00735 13.75L6.00722 13L6.00709 12.25C3.36284 12.2505 1.21831 14.3945 1.21815 17.039L1.96815 17.0391Z" fill="#000000"/>
<path d="M8.85742 8.07129C8.85742 9.452 7.73813 10.5713 6.35742 10.5713C4.97671 10.5713 3.85742 9.452 3.85742 8.07129C3.85742 6.69058 4.97671 5.57129 6.35742 5.57129C7.73813 5.57129 8.85742 6.69058 8.85742 8.07129Z" fill="#000000" stroke="#000000" stroke-width="1.5"/>
<path d="M8.35742 19C8.35742 15.134 11.4914 12 15.3574 12C19.2234 12 22.3574 15.134 22.3574 19V19.2C22.3574 20.1941 21.5515 21 20.5574 21H10.1574C9.16331 21 8.35742 20.1941 8.35742 19.2V19Z" fill="#000000" stroke="#000000" stroke-width="1.5"/>
<path d="M19 6C19 7.933 17.433 9.5 15.5 9.5C13.567 9.5 12 7.933 12 6C12 4.067 13.567 2.5 15.5 2.5C17.433 2.5 19 4.067 19 6Z" fill="#000000" stroke="#000000" stroke-width="1.5"/>
</svg>
