<svg width="24" height="24" viewBox="0 0 24 24" fill="none" xmlns="http://www.w3.org/2000/svg">
<path d="M15.1258 15.865C16.5519 15.2582 18.2666 14.8442 19.325 15.9764C20.3639 17.0877 20.9999 18.58 21 20.2215C21 20.6509 20.652 20.9996 20.2227 20.9998H3.77734C3.34799 20.9996 3 20.6509 3 20.2215C3.00009 18.5805 3.63564 17.0885 4.67384 15.9772C5.73212 14.8444 7.44734 15.2585 8.87386 15.8653C9.83411 16.2737 10.8905 16.4998 12 16.4998C13.1094 16.4998 14.1657 16.2736 15.1258 15.865Z" fill="#FFDA35"/>
<path d="M21 20.2215H21.75V20.2215L21 20.2215ZM20.2227 20.9998V21.7498H20.2231L20.2227 20.9998ZM3.77734 20.9998L3.77693 21.7498H3.77734V20.9998ZM3 20.2215L2.25 20.2215V20.2215H3ZM12 16.4998V17.2498V17.2498V16.4998ZM19.325 15.9764L18.7771 16.4885C19.6913 17.4665 20.2499 18.7777 20.25 20.2215L21 20.2215L21.75 20.2215C21.7499 18.3823 21.0364 16.7089 19.8729 15.4642L19.325 15.9764ZM21 20.2215H20.25C20.25 20.2267 20.2491 20.2299 20.2481 20.2323C20.2468 20.2352 20.2447 20.2385 20.2416 20.2417C20.2385 20.2448 20.2352 20.2468 20.2325 20.248C20.2303 20.2489 20.2273 20.2498 20.2222 20.2498L20.2227 20.9998L20.2231 21.7498C21.0671 21.7494 21.75 21.0643 21.75 20.2215H21ZM20.2227 20.9998V20.2498H3.77734V20.9998V21.7498H20.2227V20.9998ZM3.77734 20.9998L3.77775 20.2498C3.77272 20.2498 3.76975 20.2489 3.76751 20.248C3.76476 20.2468 3.76151 20.2448 3.75839 20.2417C3.75526 20.2385 3.75316 20.2352 3.75193 20.2323C3.75091 20.2299 3.75 20.2267 3.75 20.2215H3H2.25C2.25 21.0643 2.93287 21.7494 3.77693 21.7498L3.77734 20.9998ZM3 20.2215L3.75 20.2215C3.75008 18.7781 4.30825 17.4672 5.22189 16.4892L4.67384 15.9772L4.12579 15.4652C2.96302 16.7099 2.2501 18.383 2.25 20.2215L3 20.2215ZM8.87386 15.8653L8.5803 16.5554C9.63164 17.0026 10.7878 17.2498 12 17.2498V16.4998V15.7498C10.9933 15.7498 10.0366 15.5448 9.16743 15.1751L8.87386 15.8653ZM12 16.4998V17.2498C13.2122 17.2498 14.3683 17.0025 15.4194 16.5552L15.1258 15.865L14.8321 15.1749C13.9631 15.5447 13.0066 15.7498 12 15.7498V16.4998ZM4.67384 15.9772L5.22189 16.4892C5.55691 16.1306 6.00681 15.9878 6.5975 16.0179C7.20698 16.0491 7.89719 16.2649 8.5803 16.5554L8.87386 15.8653L9.16743 15.1751C8.42401 14.8589 7.54335 14.5643 6.67401 14.5199C5.7859 14.4745 4.84905 14.691 4.12579 15.4652L4.67384 15.9772ZM19.325 15.9764L19.8729 15.4642C19.1496 14.6904 18.2129 14.4741 17.3249 14.5195C16.4558 14.564 15.5754 14.8587 14.8321 15.1749L15.1258 15.865L15.4194 16.5552C16.1023 16.2646 16.7923 16.0488 17.4016 16.0176C17.9922 15.9873 18.442 16.1301 18.7771 16.4885L19.325 15.9764Z" fill="#FFDA35"/>
<path d="M17 8.5C17 11.2614 14.7614 13.5 12 13.5C9.23858 13.5 7 11.2614 7 8.5C7 5.73858 9.23858 3.5 12 3.5C14.7614 3.5 17 5.73858 17 8.5Z" fill="#FFDA35" stroke="#FFDA35" stroke-width="1.5"/>
</svg>
