<svg width="24" height="24" viewBox="0 0 24 24" fill="none" xmlns="http://www.w3.org/2000/svg">
<path d="M21 20.2222L21.75 20.2225V20.2222H21ZM20.2227 20.9995V21.7495H20.2231L20.2227 20.9995ZM3.77734 20.9995L3.77693 21.7495H3.77734V20.9995ZM3 20.2222H2.25L2.25 20.2225L3 20.2222ZM12 16.4995V17.2495V17.2495V16.4995ZM15.1258 15.8648L14.8321 15.1747L15.1258 15.8648ZM19.325 15.9762L18.777 16.4883C19.6914 17.4665 20.25 18.7781 20.25 20.2222H21H21.75C21.75 18.3829 21.0365 16.709 19.8729 15.464L19.325 15.9762ZM21 20.2222L20.25 20.2219C20.25 20.2371 20.2376 20.2495 20.2222 20.2495L20.2227 20.9995L20.2231 21.7495C21.0661 21.7491 21.7496 21.0658 21.75 20.2225L21 20.2222ZM20.2227 20.9995V20.2495H3.77734V20.9995V21.7495H20.2227V20.9995ZM3.77734 20.9995L3.77775 20.2495C3.76235 20.2495 3.75001 20.2371 3.75 20.2219L3 20.2222L2.25 20.2225C2.25039 21.0658 2.93387 21.7491 3.77693 21.7495L3.77734 20.9995ZM3 20.2222H3.75C3.75 18.7786 4.30822 17.4672 5.22197 16.489L4.67389 15.977L4.12581 15.4651C2.96293 16.71 2.25 18.3835 2.25 20.2222H3ZM8.87385 15.865L8.58029 16.5552C9.63163 17.0024 10.7878 17.2495 12 17.2495V16.4995V15.7495C10.9933 15.7495 10.0366 15.5446 9.16742 15.1749L8.87385 15.865ZM12 16.4995V17.2495C13.2123 17.2495 14.3683 17.0022 15.4194 16.5549L15.1258 15.8648L14.8321 15.1747C13.9631 15.5445 13.0066 15.7495 12 15.7495V16.4995ZM4.67389 15.977L5.22197 16.489C5.55696 16.1304 6.00683 15.9875 6.5975 16.0177C7.20696 16.0488 7.89718 16.2646 8.58029 16.5552L8.87385 15.865L9.16742 15.1749C8.424 14.8587 7.54334 14.564 6.674 14.5196C5.78588 14.4743 4.84904 14.6908 4.12581 15.4651L4.67389 15.977ZM19.325 15.9762L19.8729 15.464C19.1496 14.6902 18.2129 14.4738 17.325 14.5193C16.4558 14.5638 15.5754 14.8584 14.8321 15.1747L15.1258 15.8648L15.4194 16.5549C16.1023 16.2643 16.7923 16.0485 17.4016 16.0173C17.9922 15.9871 18.442 16.1299 18.777 16.4883L19.325 15.9762Z" fill="white"/>
<path d="M17 8.5C17 11.2614 14.7614 13.5 12 13.5C9.23858 13.5 7 11.2614 7 8.5C7 5.73858 9.23858 3.5 12 3.5C14.7614 3.5 17 5.73858 17 8.5Z" stroke="white" stroke-width="1.5"/>
</svg>
