<svg width="24" height="24" viewBox="0 0 24 24" fill="none" xmlns="http://www.w3.org/2000/svg">
<path d="M4 12.5H20V19C20 20.1046 19.1046 21 18 21H6C4.89543 21 4 20.1046 4 19V12.5Z" fill="#FFDA35" stroke="#FFDA35" stroke-width="1.5"/>
<path d="M15.5 2.5C17.1569 2.5 18.5 3.84315 18.5 5.5H20.5C21.6046 5.5 22.5 6.39543 22.5 7.5C22.5 8.60457 21.6046 9.5 20.5 9.5H3.5C2.39543 9.5 1.5 8.60457 1.5 7.5C1.5 6.39543 2.39543 5.5 3.5 5.5H5.5C5.5 3.84315 6.84315 2.5 8.5 2.5C10.1569 2.5 11.5 3.84315 11.5 5.5H12.5C12.5 3.84315 13.8431 2.5 15.5 2.5Z" fill="#FFDA35"/>
<path d="M18.5 5.5H17.75V6.25H18.5V5.5ZM20.5 9.5V10.25V10.25V9.5ZM3.5 5.5V4.75V4.75V5.5ZM5.5 5.5V6.25H6.25V5.5H5.5ZM8.5 2.5V1.75V1.75V2.5ZM11.5 5.5H10.75V6.25H11.5V5.5ZM12.5 5.5V6.25H13.25V5.5H12.5ZM15.5 2.5V3.25C16.7426 3.25 17.75 4.25736 17.75 5.5H18.5H19.25C19.25 3.42893 17.5711 1.75 15.5 1.75V2.5ZM18.5 5.5V6.25H20.5V5.5V4.75H18.5V5.5ZM20.5 5.5V6.25C21.1904 6.25 21.75 6.80964 21.75 7.5H22.5H23.25C23.25 5.98122 22.0188 4.75 20.5 4.75V5.5ZM22.5 7.5H21.75C21.75 8.19036 21.1904 8.75 20.5 8.75V9.5V10.25C22.0188 10.25 23.25 9.01878 23.25 7.5H22.5ZM20.5 9.5V8.75H3.5V9.5V10.25H20.5V9.5ZM3.5 9.5V8.75C2.80964 8.75 2.25 8.19036 2.25 7.5H1.5H0.75C0.75 9.01878 1.98122 10.25 3.5 10.25V9.5ZM1.5 7.5H2.25C2.25 6.80964 2.80964 6.25 3.5 6.25V5.5V4.75C1.98122 4.75 0.75 5.98122 0.75 7.5H1.5ZM3.5 5.5V6.25H5.5V5.5V4.75H3.5V5.5ZM5.5 5.5H6.25C6.25 4.25736 7.25736 3.25 8.5 3.25V2.5V1.75C6.42893 1.75 4.75 3.42893 4.75 5.5H5.5ZM8.5 2.5V3.25C9.74264 3.25 10.75 4.25736 10.75 5.5H11.5H12.25C12.25 3.42893 10.5711 1.75 8.5 1.75V2.5ZM11.5 5.5V6.25H12.5V5.5V4.75H11.5V5.5ZM12.5 5.5H13.25C13.25 4.25736 14.2574 3.25 15.5 3.25V2.5V1.75C13.4289 1.75 11.75 3.42893 11.75 5.5H12.5Z" fill="#FFDA35"/>
</svg>
