<svg width="24" height="24" viewBox="0 0 24 24" fill="none" xmlns="http://www.w3.org/2000/svg">
<path d="M10.3038 1.55669C10.3038 1.55669 9.95016 0.908309 9.12495 0.849365C8.88917 0.849365 8.57433 0.921726 8.24079 1.14408C7.55064 1.60419 6.76023 2.83292 7.69616 3.78496C7.73691 3.82642 7.74535 3.89133 7.71309 3.93968L7.70295 3.95488C7.03586 4.95462 6.63812 5.5507 6.29565 6.92056C5.76516 5.6238 3.82002 5.6238 2.93586 7.39211C1.94561 9.37262 2.79833 11.5575 3.34847 12.4023C3.76107 13.1686 4.40945 13.817 4.93995 14.4064C4.93995 14.7601 4.89266 15.4127 4.90458 15.7621C4.99311 18.3568 5.23467 19.9471 6.47248 21.8333C6.58185 22.0126 6.80846 22.2525 6.9097 22.4227C6.70826 22.6585 6.75053 23.1821 6.9097 23.353C7.41558 23.8963 8.57235 23.9545 9.2828 23.9793C9.88576 24.0005 10.9115 23.9263 11.3576 23.4871C11.724 23.1264 11.7865 22.0965 11.9428 21.4946C11.9562 21.4432 12.003 21.409 12.0561 21.4098C12.4778 21.4158 13.9044 21.4297 13.9712 21.5298C14.2433 21.9376 14.2599 22.9288 14.6404 23.3413C15.2371 23.9242 16.2865 23.9476 17.0736 23.957C17.8527 23.9663 20.2535 23.7785 19.4872 22.4227C20.0767 21.3028 20.2875 19.9118 20.2889 18.6268C20.9294 18.5875 22.221 17.9464 22.1869 16.4694C22.1515 14.9369 21.5595 13.3903 20.7059 11.695C20.474 11.2346 19.9622 10.3356 19.7348 9.92669C20.0885 8.4531 20.3832 7.68683 20.0885 6.09535C21.7978 5.27014 20.7369 3.50183 20.3242 3.14817C19.9116 2.79451 19.475 2.77729 19.0864 2.91239C18.959 2.95743 18.8507 3.03028 18.7328 3.14817C16.8466 0.790422 12.7795 0.318872 10.3038 1.55669Z" fill="#202020"/>
<path d="M8.29427 3.65132C7.84053 3.33782 7.73424 2.9326 7.82552 2.54783C7.88927 2.27914 8.05236 1.99717 8.28215 1.76875C8.49698 1.55521 8.83941 1.36225 9.09865 1.3585C9.28684 1.35179 9.41688 1.38575 9.52925 1.45631C9.72196 1.58652 9.86846 1.66026 10.1524 2.2099C10.4508 2.06759 11.0747 1.80509 11.1835 1.76982C13.4155 1.01842 16.1696 1.46937 17.9118 3.06L17.9355 3.08163C18.2366 3.3565 18.4495 3.55091 18.7007 3.8424C18.8054 3.67496 18.9876 3.48225 19.2689 3.38386C19.646 3.28142 20.0098 3.50764 20.2492 3.92404C20.4931 4.34817 20.5405 4.86363 20.3558 5.1777C20.1997 5.44286 19.9785 5.51965 19.6206 5.61946L19.429 5.67283L19.4741 5.86662C19.704 6.85334 19.641 7.90759 19.4136 8.90456C19.4004 8.96232 19.376 9.04258 19.3446 9.1432C19.3143 9.24041 19.2787 9.35293 19.2474 9.46503C19.2162 9.57681 19.1875 9.69475 19.1719 9.80432C19.1571 9.90834 19.1501 10.0301 19.1823 10.1373C19.1859 10.1503 19.1947 10.1691 19.1987 10.1769C19.4999 10.732 19.7838 11.2134 20.0382 11.701L20.0392 11.7029L20.04 11.7045C20.7787 13.0551 21.4156 14.4693 21.6248 15.9792C21.6983 16.5095 21.6195 17.0111 21.3943 17.3877C21.2024 17.7087 20.8976 17.9508 20.4582 18.0466C20.4542 17.9931 20.4499 17.9316 20.4446 17.863C20.43 17.6704 20.4104 17.4347 20.3823 17.2061C20.3545 16.98 20.3172 16.7501 20.2642 16.5734C20.2382 16.4866 20.2044 16.3981 20.1573 16.3273C20.1138 16.2618 20.0245 16.1619 19.8797 16.1641C19.6576 16.1782 19.632 16.3977 19.647 16.5056C19.7282 16.9776 19.7714 17.4687 19.7896 17.9324C19.8407 19.2379 19.7244 20.9538 18.9655 22.2595L18.8852 22.3977L18.9984 22.5109C18.9916 22.5041 19.0156 22.5303 19.0404 22.5842C19.0636 22.6345 19.0797 22.6929 19.0776 22.7512C19.0756 22.8049 19.058 22.8678 18.9978 22.936C18.9347 23.0075 18.8173 23.0929 18.6029 23.1706C18.2313 23.3053 17.5847 23.374 16.9176 23.3595C16.2493 23.345 15.6097 23.2479 15.2468 23.0825C15.072 23.0028 15.0119 22.9221 14.9696 22.8242C14.9443 22.7657 14.9247 22.6983 14.899 22.6063C14.8777 22.5321 14.7229 21.9378 14.6482 21.6499C14.6171 21.5322 14.5797 21.4117 14.5315 21.3059C14.4326 21.0913 14.3139 21.0062 14.2669 20.9904C14.125 20.9372 13.9168 20.8982 13.693 20.8701C13.4646 20.8413 13.2039 20.8221 12.9481 20.8139C12.6925 20.8056 12.4382 20.808 12.2228 20.8236C12.0075 20.8392 11.7707 20.8701 11.6203 20.9627C11.5038 21.0345 11.3786 21.2471 11.3625 21.3451C11.3066 21.5025 11.2763 21.6861 11.2525 21.8638C11.202 22.2401 11.1759 22.5971 11.0564 22.8701C10.9868 23.0292 10.8171 23.1642 10.5355 23.2617C10.2575 23.358 9.90272 23.4056 9.52215 23.4135C8.7568 23.4294 7.94844 23.2841 7.55624 23.116C7.43676 23.0648 7.38468 22.9687 7.3799 22.8492C7.37473 22.719 7.42931 22.5851 7.50348 22.5109L7.64695 22.3672L7.50673 22.2205C5.92132 20.5595 5.46017 17.9371 5.45174 15.701C5.44861 14.8708 5.45563 14.2325 5.55401 13.4389C5.58121 13.2194 5.6148 13.0008 5.64289 12.8102C5.67006 12.6258 5.6941 12.4562 5.69808 12.3506C5.69808 12.0317 5.41956 12.0698 5.31294 12.1483C5.24706 12.1968 5.20658 12.2707 5.17942 12.3268C5.14943 12.3888 5.12303 12.4613 5.09967 12.5369C5.05281 12.6884 5.01152 12.873 4.97629 13.0555C4.94538 13.2157 4.91761 13.3835 4.89431 13.5314C4.82872 13.4819 4.6504 13.2878 4.56943 13.197C3.98708 12.4898 3.43051 11.5359 3.20153 10.6582L3.18043 10.5736C2.9506 9.51987 2.94393 8.41541 3.48806 7.50968C3.68747 7.17775 4.01449 6.85772 4.38031 6.68135C4.74208 6.50693 5.12148 6.48022 5.46452 6.68784C5.82117 6.90374 5.9252 7.2119 5.93774 7.59531C5.94417 7.79209 5.92584 7.99987 5.90527 8.2199C5.88771 8.40777 5.86841 8.60649 5.86732 8.79843L5.86793 8.88041C5.86872 8.91278 5.87315 8.95022 5.89248 8.98553C5.96735 9.12225 6.18087 9.22742 6.35149 8.99019C6.38081 8.94944 6.39978 8.90029 6.41683 8.85505C6.4511 8.76416 6.47863 8.65493 6.50084 8.55046C6.54237 8.3552 6.57908 8.09931 6.59277 8.02774C6.87922 6.53085 7.43984 5.16647 8.34317 3.94596L8.47081 3.77347L8.29427 3.65132Z" fill="white"/>
<path d="M12.7425 6.25209C13.3932 6.29021 14.185 6.58558 14.6561 6.99733C15.9444 8.12376 15.283 9.59583 13.7743 9.97832C13.5277 10.0408 13.1462 10.0684 12.8697 10.0502C11.9792 9.99137 11.5004 9.81665 10.8372 9.14734C10.5375 8.83271 10.3252 8.35675 10.3553 7.91688C10.4376 6.71872 11.7107 6.19164 12.7425 6.25209ZM12.9372 6.49788C12.228 6.40916 11.4869 6.64979 11.0669 7.10636C10.8385 7.35188 10.7187 7.67784 10.7352 8.01164C10.7885 9.06344 12.0837 9.70957 13.037 9.69614C13.6111 9.67751 14.2594 9.53611 14.6483 9.09659C15.6419 7.90854 14.3112 6.66996 12.9372 6.49788Z" fill="#202020"/>
<path d="M12.4256 6.56787C12.8836 6.54495 13.9562 6.69191 13.7405 7.39254C13.6536 7.67506 13.2505 7.90565 12.9892 8.02244C12.937 8.04408 12.8266 8.08329 12.7709 8.08959C12.3319 8.14793 11.7494 7.60748 11.7034 7.18408C11.6512 6.70298 12.0613 6.58632 12.4256 6.56787Z" fill="#202020"/>
<ellipse cx="17.1227" cy="8.93593" rx="0.927023" ry="0.599839" transform="rotate(-2.72631 17.1227 8.93593)" fill="#F8CFD4"/>
<ellipse cx="16.5237" cy="7.09641" rx="0.761905" ry="0.56144" transform="rotate(-78.949 16.5237 7.09641)" fill="#202020"/>
<ellipse cx="0.688601" cy="0.433175" rx="0.688601" ry="0.433175" transform="matrix(0.318218 -0.948018 0.944938 0.327251 9.28247 6.14771)" fill="#202020"/>
<ellipse cx="8.78854" cy="7.72136" rx="0.895713" ry="0.579579" transform="rotate(15.7303 8.78854 7.72136)" fill="#F8CFD4"/>
<path d="M8.86451 1.92881C9.17613 1.86065 9.48129 2.16854 9.59646 2.41916C9.27125 2.66258 8.90973 2.88784 8.65202 3.19796L8.59611 3.26317C8.23604 3.19796 7.86746 2.14688 8.86451 1.92881Z" fill="#F8CFD4"/>
<path d="M19.43 5.33797C19.8271 5.07408 20.0993 4.94258 19.7842 4.34707C19.6146 4.02663 19.3716 3.99341 19.2537 3.99341C19.1358 3.99341 19.0011 4.06732 18.8411 4.20561C19.0504 4.51665 19.0385 4.51665 19.155 4.72594C19.2832 4.95629 19.3716 5.23123 19.43 5.33797Z" fill="#FFDDDD"/>
<path d="M2.10421 2.56663C1.62993 2.73949 1.29026 3.23927 1.50745 3.83658C1.51876 3.86763 1.53155 3.89907 1.54553 3.92977L1.54653 3.93252L1.56556 3.9734L1.56748 3.97582C1.57127 3.98332 1.57496 3.9912 1.57892 3.99867L1.57992 4.00143L1.60263 4.04097L1.60363 4.04372C1.60802 4.05123 1.61266 4.05935 1.61724 4.06683L1.61882 4.06833L1.64495 4.1087L1.64562 4.11054C1.88466 4.46743 2.33693 4.76218 3.1269 4.97956L3.12815 4.98014L3.22678 5.00556L3.22803 5.00614C3.27941 5.01938 3.33244 5.03241 3.38665 5.04506L3.3879 5.04564L3.49637 5.06956L3.49762 5.07014C3.55377 5.08239 3.61155 5.09424 3.67067 5.10588L3.67159 5.10555L3.79024 5.12888L3.91381 5.15145C3.96448 5.16102 4.01592 5.14279 4.04904 5.10327L4.13195 5.00554L4.13253 5.00429C4.17214 4.9564 4.21039 4.90918 4.24729 4.86276L4.24821 4.86242L4.31893 4.77121L4.31952 4.76996L4.38724 4.68191L4.38782 4.68066C4.39897 4.6658 4.41066 4.65089 4.42152 4.63618L4.42118 4.63527L4.48373 4.55014L4.48432 4.54889C4.5358 4.47686 4.58438 4.40665 4.62901 4.33826L4.6296 4.33701L4.67997 4.2584L4.68055 4.25715C4.70573 4.21696 4.72983 4.17738 4.75268 4.13841L4.75327 4.13715L4.79571 4.06247L4.79722 4.06088C5.15296 3.42383 5.19586 2.94332 5.05149 2.54666C4.83386 1.94931 4.25163 1.78505 3.77712 1.95774C3.4888 2.06269 3.25615 2.29113 3.07072 2.61808C2.71836 2.48669 2.39264 2.46165 2.10421 2.56663Z" fill="#FF7796"/>
<path d="M2.10421 2.56663C1.62993 2.73949 1.29026 3.23927 1.50745 3.83658C1.51876 3.86763 1.53155 3.89907 1.54553 3.92977L1.54653 3.93252L1.56556 3.9734L1.56748 3.97582C1.57127 3.98332 1.57496 3.9912 1.57892 3.99867L1.57992 4.00143L1.60263 4.04097L1.60363 4.04372C1.60802 4.05123 1.61266 4.05935 1.61724 4.06683L1.61882 4.06833L1.64495 4.1087L1.64562 4.11054C1.88466 4.46743 2.33693 4.76218 3.1269 4.97956L3.12815 4.98014L3.22678 5.00556L3.22803 5.00614C3.27941 5.01938 3.33244 5.03241 3.38665 5.04506L3.3879 5.04564L3.49637 5.06956L3.49762 5.07014C3.55377 5.08239 3.61155 5.09424 3.67067 5.10588L3.67159 5.10555L3.79024 5.12888L3.91381 5.15145C3.96448 5.16102 4.01592 5.14279 4.04904 5.10327L4.13195 5.00554L4.13253 5.00429C4.17214 4.9564 4.21039 4.90918 4.24729 4.86276L4.24821 4.86242L4.31893 4.77121L4.31952 4.76996L4.38724 4.68191L4.38782 4.68066C4.39897 4.6658 4.41066 4.65089 4.42152 4.63618L4.42118 4.63527L4.48373 4.55014L4.48432 4.54889C4.5358 4.47686 4.58438 4.40665 4.62901 4.33826L4.6296 4.33701L4.67997 4.2584L4.68055 4.25715C4.70573 4.21696 4.72983 4.17738 4.75268 4.13841L4.75327 4.13715L4.79571 4.06247L4.79722 4.06088C5.15296 3.42383 5.19586 2.94332 5.05149 2.54666C4.83386 1.94931 4.25163 1.78505 3.77712 1.95774C3.4888 2.06269 3.25615 2.29113 3.07072 2.61808C2.71836 2.48669 2.39264 2.46165 2.10421 2.56663Z" stroke="white" stroke-width="0.285026" stroke-linejoin="round"/>
<path d="M2.10421 2.56663C1.62993 2.73949 1.29026 3.23927 1.50745 3.83658C1.51876 3.86763 1.53155 3.89907 1.54553 3.92977L1.54653 3.93252L1.56556 3.9734L1.56748 3.97582C1.57127 3.98332 1.57496 3.9912 1.57892 3.99867L1.57992 4.00143L1.60263 4.04097L1.60363 4.04372C1.60802 4.05123 1.61266 4.05935 1.61724 4.06683L1.61882 4.06833L1.64495 4.1087L1.64562 4.11054C1.88466 4.46743 2.33693 4.76218 3.1269 4.97956L3.12815 4.98014L3.22678 5.00556L3.22803 5.00614C3.27941 5.01938 3.33244 5.03241 3.38665 5.04506L3.3879 5.04564L3.49637 5.06956L3.49762 5.07014C3.55377 5.08239 3.61155 5.09424 3.67067 5.10588L3.67159 5.10555L3.79024 5.12888L3.91381 5.15145C3.96448 5.16102 4.01592 5.14279 4.04904 5.10327L4.13195 5.00554L4.13253 5.00429C4.17214 4.9564 4.21039 4.90918 4.24729 4.86276L4.24821 4.86242L4.31893 4.77121L4.31952 4.76996L4.38724 4.68191L4.38782 4.68066C4.39897 4.6658 4.41066 4.65089 4.42152 4.63618L4.42118 4.63527L4.48373 4.55014L4.48432 4.54889C4.5358 4.47686 4.58438 4.40665 4.62901 4.33826L4.6296 4.33701L4.67997 4.2584L4.68055 4.25715C4.70573 4.21696 4.72983 4.17738 4.75268 4.13841L4.75327 4.13715L4.79571 4.06247L4.79722 4.06088C5.15296 3.42383 5.19586 2.94332 5.05149 2.54666C4.83386 1.94931 4.25163 1.78505 3.77712 1.95774C3.4888 2.06269 3.25615 2.29113 3.07072 2.61808C2.71836 2.48669 2.39264 2.46165 2.10421 2.56663Z" stroke="#F54870" stroke-width="0.285026" stroke-linejoin="round"/>
<ellipse cx="0.449372" cy="0.167264" rx="0.449372" ry="0.167264" transform="matrix(-0.559193 0.829038 0.829038 0.559193 2.23193 2.81982)" fill="url(#paint0_linear_1734_2315)"/>
<defs>
<linearGradient id="paint0_linear_1734_2315" x1="1.12343" y1="0" x2="0.722843" y2="-0.538109" gradientUnits="userSpaceOnUse">
<stop stop-color="white" stop-opacity="0.695243"/>
<stop offset="1" stop-color="white"/>
</linearGradient>
</defs>
</svg>
