<svg width="24" height="24" viewBox="0 0 24 24" fill="none" xmlns="http://www.w3.org/2000/svg">
<path d="M6.75 10.5H20C20 10.5 18.5 9 18.5 7.5C18.5 6 20 5 20 5H6.75C5.23122 5 4 6.23122 4 7.75C4 9.26878 5.23122 10.5 6.75 10.5Z" fill="#FFDA35" stroke="#FFDA35" stroke-width="1.34" stroke-linejoin="round"/>
<path d="M14.5947 12.8301C13.037 13.8012 12 15.5292 12 17.5C12 18.2707 12.1591 19.0041 12.4453 19.6699H6.75C4.86119 19.6699 3.33008 18.1388 3.33008 16.25C3.33008 14.3612 4.86119 12.8301 6.75 12.8301H14.5947Z" fill="#FFDA35"/>
<path d="M19.7678 15.7677L16.5858 18.9497L14.818 17.1819" stroke="#FFDA35" stroke-width="1.34" stroke-linecap="round" stroke-linejoin="round"/>
</svg>
