<svg preserveAspectRatio="none" width="100%" height="100%" overflow="visible" style="display: block;" viewBox="0 0 24 24" fill="none" xmlns="http://www.w3.org/2000/svg">
<path d="M16.5 6.5H7.5C6.11929 6.5 5 7.61929 5 9V13.5C5 14.8807 6.11929 16 7.5 16H8.75L7.28033 17.4697C7.13968 17.6103 7.06066 17.8011 7.06066 18C7.06066 18.4142 7.39645 18.75 7.81066 18.75C8.00957 18.75 8.20034 18.671 8.34099 18.5303L10.4393 16.432H16.5C17.8807 16.432 19 15.3127 19 13.932V9C19 7.61929 17.8807 6.5 16.5 6.5ZM7.5 8H16.5C17.0523 8 17.5 8.44772 17.5 9V13.5C17.5 14.0523 17.0523 14.5 16.5 14.5H10.0607C9.86184 14.5 9.67097 14.579 9.53033 14.7197L9 15.25V14.25C9 13.8358 8.66421 13.5 8.25 13.5H7.5C6.94772 13.5 6.5 13.0523 6.5 12.5V9C6.5 8.44772 6.94772 8 7.5 8ZM9.75 10.25C10.1642 10.25 10.5 10.5858 10.5 11C10.5 11.4142 10.1642 11.75 9.75 11.75C9.33579 11.75 9 11.4142 9 11C9 10.5858 9.33579 10.25 9.75 10.25ZM14.25 10.25C14.6642 10.25 15 10.5858 15 11C15 11.4142 14.6642 11.75 14.25 11.75C13.8358 11.75 13.5 11.4142 13.5 11C13.5 10.5858 13.8358 10.25 14.25 10.25Z" fill="currentColor"/>
</svg>
