<svg width="24" height="24" viewBox="0 0 24 24" fill="none" xmlns="http://www.w3.org/2000/svg">
<path d="M10.5645 9.71791C7.85581 9.58451 5.97301 10.5704 4.91605 12.6755C3.33064 15.8331 4.64093 21 9.93006 21C15.2192 21 15.3722 15.7826 15.3722 15.236C15.3722 14.8716 15.3722 12.8342 15.3722 9.12377C16.5035 9.85521 17.4573 10.2955 18.2337 10.4447C19.01 10.5938 19.5035 10.66 19.7143 10.643V7.60224C18.9962 7.51386 18.3752 7.34538 17.8514 7.09689C17.0655 6.72415 15.5073 5.6896 15.5073 4.17336C15.5084 4.18078 15.5084 3.78966 15.5073 3H12.2331C12.2234 10.4267 12.2234 14.5053 12.2331 15.236C12.2478 16.332 11.4149 17.8652 9.72614 17.8652C8.03741 17.8652 7.20452 16.3332 7.20452 15.3452C7.20452 14.7403 7.40806 13.8635 8.24942 13.2142C8.74836 12.8292 9.44086 12.6755 10.5645 12.6755C10.5645 12.3207 10.5645 11.3348 10.5645 9.71791Z" fill="black" style="fill:black;fill-opacity:1;"/>
</svg>
