<svg preserveAspectRatio="none" width="100%" height="100%" overflow="visible" style="display: block;" viewBox="0 0 24 24" fill="none" xmlns="http://www.w3.org/2000/svg">
<path d="M6.5 4.5H17.5C18.3284 4.5 19 5.17157 19 6V18C19 18.8284 18.3284 19.5 17.5 19.5H6.5C5.67157 19.5 5 18.8284 5 18V6C5 5.17157 5.67157 4.5 6.5 4.5ZM7 7V17H17V7H7ZM10.5 15.5H13.5C13.9142 15.5 14.25 15.8358 14.25 16.25C14.25 16.6642 13.9142 17 13.5 17H10.5C10.0858 17 9.75 16.6642 9.75 16.25C9.75 15.8358 10.0858 15.5 10.5 15.5Z" fill="currentColor"/>
</svg>
