<svg preserveAspectRatio="none" width="100%" height="100%" overflow="visible" style="display: block;" viewBox="0 0 24 24" fill="none" xmlns="http://www.w3.org/2000/svg">
<path d="M12 4.5C8.41015 4.5 5.5 7.41015 5.5 11C5.5 14.5899 8.41015 17.5 12 17.5C15.5899 17.5 18.5 14.5899 18.5 11C18.5 7.41015 15.5899 4.5 12 4.5ZM12 6C14.7614 6 17 8.23858 17 11C17 13.7614 14.7614 16 12 16C9.23858 16 7 13.7614 7 11C7 8.23858 9.23858 6 12 6ZM9.75 10.25C10.1642 10.25 10.5 10.5858 10.5 11C10.5 11.4142 10.1642 11.75 9.75 11.75C9.33579 11.75 9 11.4142 9 11C9 10.5858 9.33579 10.25 9.75 10.25ZM14.25 10.25C14.6642 10.25 15 10.5858 15 11C15 11.4142 14.6642 11.75 14.25 11.75C13.8358 11.75 13.5 11.4142 13.5 11C13.5 10.5858 13.8358 10.25 14.25 10.25ZM8.25 13.25C8.66421 13.25 9 13.5858 9 14C9 14.4142 8.66421 14.75 8.25 14.75C7.83579 14.75 7.5 14.4142 7.5 14C7.5 13.5858 7.83579 13.25 8.25 13.25ZM15.75 13.25C16.1642 13.25 16.5 13.5858 16.5 14C16.5 14.4142 16.1642 14.75 15.75 14.75C15.3358 14.75 15 14.4142 15 14C15 13.5858 15.3358 13.25 15.75 13.25Z" fill="currentColor"/>
</svg>
