<svg width="24" height="24" viewBox="0 0 24 24" fill="none" xmlns="http://www.w3.org/2000/svg">
<path d="M19.0901 14.2767C18.7279 13.1202 18.3115 12.1483 17.671 10.5576C17.7705 6.37941 16.0232 3 11.999 3C7.92946 3 6.22063 6.44691 6.32927 10.5576C5.68647 12.1505 5.27228 13.1157 4.91014 14.2767C4.1406 16.7404 4.38957 17.7596 4.57969 17.7821C4.9871 17.8316 6.16631 15.9282 6.16631 15.9282C6.16631 17.0306 6.73667 18.4684 7.97247 19.5056C7.37494 19.6878 6.03277 20.1783 6.3519 20.7161C6.60992 21.1503 10.7926 20.9928 11.999 20.8578C13.2053 20.9928 17.388 21.1503 17.6461 20.7161C17.9652 20.1806 16.6208 19.6878 16.0255 19.5056C17.2613 18.4661 17.8317 17.0284 17.8317 15.9282C17.8317 15.9282 19.0109 17.8316 19.4183 17.7821C19.6106 17.7574 19.8596 16.7382 19.0901 14.2767Z" fill="black" style="fill:black;fill-opacity:1;"/>
</svg>
