<svg width="24" height="24" viewBox="0 0 24 24" fill="none" xmlns="http://www.w3.org/2000/svg">
<path d="M15.4849 8.84102C15.7108 8.84102 15.9343 8.85756 16.1561 8.88218C15.553 6.08115 12.5506 4 9.12365 4C5.2923 4 2.15384 6.60485 2.15384 9.91255C2.15384 11.8218 3.19799 13.3897 4.94282 14.6058L4.24572 16.6971L6.68223 15.4784C7.55407 15.6505 8.25357 15.8275 9.12363 15.8275C9.34235 15.8275 9.55921 15.8167 9.77428 15.7999C9.63811 15.3351 9.55922 14.8482 9.55922 14.3431C9.55924 11.3059 12.1741 8.84102 15.4849 8.84102ZM11.7373 6.95611C12.2621 6.95611 12.6098 7.30048 12.6098 7.82362C12.6098 8.34468 12.2621 8.69384 11.7373 8.69384C11.2149 8.69384 10.6908 8.34468 10.6908 7.82362C10.6908 7.30046 11.2149 6.95611 11.7373 6.95611ZM6.8594 8.69382C6.33708 8.69382 5.80987 8.34465 5.80987 7.8236C5.80987 7.30046 6.33706 6.95608 6.8594 6.95608C7.38177 6.95608 7.72944 7.30046 7.72944 7.8236C7.72944 8.34465 7.38177 8.69382 6.8594 8.69382ZM21.8461 14.2596C21.8461 11.4802 19.0577 9.21455 15.9259 9.21455C12.6097 9.21455 9.99791 11.4802 9.99791 14.2596C9.99791 17.0438 12.6098 19.3047 15.9259 19.3047C16.62 19.3047 17.3201 19.1301 18.0172 18.9558L19.9289 20L19.4048 18.2626C20.8038 17.2157 21.8461 15.8275 21.8461 14.2596ZM14.0039 13.3897C13.6569 13.3897 13.3068 13.0453 13.3068 12.6941C13.3068 12.3477 13.6569 11.9988 14.0039 11.9988C14.5311 11.9988 14.8764 12.3477 14.8764 12.6941C14.8764 13.0453 14.5311 13.3897 14.0039 13.3897ZM17.8377 13.3897C17.493 13.3897 17.1454 13.0453 17.1454 12.6941C17.1454 12.3477 17.493 11.9988 17.8377 11.9988C18.36 11.9988 18.7101 12.3477 18.7101 12.6941C18.7101 13.0453 18.3601 13.3897 17.8377 13.3897Z" fill="white" style="fill:white;fill-opacity:1;"/>
</svg>
