<svg width="24" height="24" viewBox="0 0 24 24" fill="none" xmlns="http://www.w3.org/2000/svg">
<path d="M12.1778 1.00278C12.2714 0.993791 12.297 1.0044 12.362 1.0562C12.3991 1.16247 12.1945 1.62114 12.1729 1.82026C12.0306 3.13555 13.6416 3.90317 14.549 4.59886C15.0246 4.96348 15.3986 5.26087 15.7589 5.70838C16.8356 7.01096 16.913 8.62961 16.0473 10.0493C15.6723 10.6645 14.819 11.7626 15.4209 12.4125C15.8837 12.9122 16.6136 12.8606 17.1186 12.4571C17.8236 11.8939 17.9987 11.0046 17.9793 10.1749C17.9725 9.87859 17.8988 9.50954 17.9252 9.22572C17.9892 9.14066 17.9551 9.16394 18.0509 9.1302C18.6081 9.17976 19.6079 10.894 19.8358 11.3637C19.9837 11.6714 20.1067 11.9893 20.2035 12.3146C20.847 14.4308 20.7479 16.5939 19.6036 18.5455C18.3682 20.6094 16.3245 22.1309 13.9137 22.7819C13.4061 22.885 12.891 22.9518 12.3728 22.9818C7.69786 23.2816 3.32433 19.8142 3.01631 15.341C2.84916 12.7009 3.96431 10.1328 6.04503 8.36632C6.64446 7.84759 7.32287 7.43249 7.94709 6.94382C8.11908 6.80917 8.31025 6.30881 8.492 6.31601C8.85551 6.63851 8.02686 7.80092 8.21332 8.29362C8.23642 8.35466 8.27717 8.40731 8.34282 8.43191C8.48299 8.48443 8.67887 8.41685 8.81 8.36606C9.30096 8.176 9.74088 7.76459 10.0622 7.37496C11.827 5.23461 10.0876 4.04014 10.8709 2.28264C11.1203 1.72321 11.5779 1.2332 12.1778 1.00278Z" fill="black" style="fill:black;fill-opacity:1;"/>
</svg>
