<svg width="24" height="24" viewBox="0 0 24 24" fill="none" xmlns="http://www.w3.org/2000/svg">
<g id="zhifubao_icon">
<circle cx="12" cy="12" r="12" fill="#3876F5"/>
<mask id="mask0_1375_5977" style="mask-type:luminance" maskUnits="userSpaceOnUse" x="0" y="0" width="24" height="24">
<circle cx="12" cy="12" r="12" fill="white"/>
</mask>
<g mask="url(#mask0_1375_5977)">
<path d="M13.6436 4.74512V7.13184H18.4453V7.9082H13.6436V9.31836H17.5576C17.1917 11.0963 15.9188 13.4689 15.9121 13.4814L24.2559 16.2861L23.3184 19.0527C23.2786 19.0356 17.4673 16.5286 14.6865 15.249C12.3956 18.0721 9.9897 18.6215 8.49219 18.6992C6.4918 18.8783 4.05469 17.478 4.05469 15.3799C4.05478 12.7574 6.06405 11.7248 8.04102 11.6084C10.018 11.492 13.3845 12.6358 13.9824 12.8047C14.4549 12.1064 15.1035 10.0762 15.1035 10.0762H7.32129V9.31836H11.3418V7.9082H6.49121V7.13184H11.3418V4.74512H13.6436ZM12.9668 14.3955C12.9344 14.3794 9.59536 12.7153 7.58984 12.8936C5.57468 13.0727 4.54426 14.2087 4.80273 15.4932C5.06147 16.7774 6.91454 17.5963 8.53223 17.3301C10.8956 16.9013 12.9655 14.3971 12.9668 14.3955Z" fill="white"/>
</g>
</g>
</svg>
