<svg preserveAspectRatio="none" width="100%" height="100%" overflow="visible" style="display: block;" viewBox="0 0 24 24" fill="none" xmlns="http://www.w3.org/2000/svg">
<circle cx="12" cy="12" r="12" fill="#5AC53A"/>
<path d="M8.5 6.5C6.567 6.5 5 8.067 5 10C5 11.3807 5.80589 12.567 7 13.118V16.5C7 16.9142 7.33579 17.25 7.75 17.25C7.94891 17.25 8.13968 17.171 8.28033 17.0303L10.0607 15.25H13.9393L15.7197 17.0303C15.8603 17.171 16.0511 17.25 16.25 17.25C16.6642 17.25 17 16.9142 17 16.5V13.118C18.1941 12.567 19 11.3807 19 10C19 8.067 17.433 6.5 15.5 6.5H8.5ZM8.5 8H15.5C16.6046 8 17.5 8.89543 17.5 10C17.5 10.8284 16.9645 11.5341 16.2071 11.8321C15.8586 11.9706 15.625 12.3082 15.625 12.683V15.4393L14.4697 14.284C14.329 14.1434 14.1382 14.0643 13.9393 14.0643H10.0607C9.86184 14.0643 9.67097 14.1434 9.53033 14.284L8.375 15.4393V12.683C8.375 12.3082 8.14142 11.9706 7.79289 11.8321C7.03548 11.5341 6.5 10.8284 6.5 10C6.5 8.89543 7.39543 8 8.5 8ZM9.75 10.25C10.1642 10.25 10.5 10.5858 10.5 11C10.5 11.4142 10.1642 11.75 9.75 11.75C9.33579 11.75 9 11.4142 9 11C9 10.5858 9.33579 10.25 9.75 10.25ZM14.25 10.25C14.6642 10.25 15 10.5858 15 11C15 11.4142 14.6642 11.75 14.25 11.75C13.8358 11.75 13.5 11.4142 13.5 11C13.5 10.5858 13.8358 10.25 14.25 10.25Z" fill="white"/>
</svg>
