<svg width="24" height="24" viewBox="0 0 24 24" fill="none" xmlns="http://www.w3.org/2000/svg">
<circle cx="12" cy="12" r="12" fill="#0DCD60" style="fill:#0DCD60;fill:color(display-p3 0.0510 0.8039 0.3765);fill-opacity:1;"/>
<path d="M10.9742 14.3592C10.8858 14.36 10.7987 14.3379 10.7214 14.295C10.6441 14.2522 10.5792 14.19 10.533 14.1146L10.4995 14.0458L7.85592 10.5527C7.84 10.5216 7.83136 10.4872 7.83064 10.4523C7.83262 10.3871 7.86034 10.3254 7.90771 10.2806C7.95509 10.2358 8.01827 10.2117 8.08344 10.2134C8.14031 10.2134 8.19277 10.2311 8.23511 10.2608L11.1284 11.988C11.2282 12.049 11.3404 12.0872 11.4567 12.0999C11.5731 12.1125 11.6908 12.0994 11.8014 12.0613L18.1997 8.20806C16.8258 6.67864 14.5645 5.6801 12.0049 5.6801C7.8161 5.6801 4.42105 8.35341 4.42105 11.6499C4.42105 13.4485 5.44235 15.0677 7.04128 16.1617C7.1058 16.2041 7.15891 16.2617 7.19594 16.3295C7.23297 16.3973 7.25278 16.4731 7.25363 16.5503C7.25207 16.6023 7.24313 16.6538 7.22709 16.7033L6.88518 17.9066C6.86875 17.9635 6.8441 18.0222 6.8441 18.081C6.8441 18.2137 6.95786 18.3199 7.0969 18.3199C7.15125 18.3199 7.19612 18.3009 7.24226 18.2757L8.90313 17.3707C9.02826 17.3024 9.15971 17.2601 9.3057 17.2601C9.38344 17.2601 9.45738 17.2714 9.5288 17.291C10.303 17.5015 11.1391 17.619 12.0043 17.619C16.1931 17.6184 19.5888 14.9451 19.5888 11.6499C19.5888 10.6507 19.2747 9.7103 18.7243 8.88366L11.2567 14.2777L11.2017 14.3074C11.1307 14.3417 11.0529 14.3594 10.9742 14.3592Z" fill="white" style="fill:white;fill-opacity:1;"/>
</svg>
