<svg xmlns="http://www.w3.org/2000/svg" width="24" height="24" viewBox="0 0 24 24" fill="none">
  <path d="M10.1932 21.0175H13.8068L15.0067 21.0157C17.5359 21.0018 18.9469 20.8939 19.8748 20.0558L19.9754 19.9597C21.0338 18.9013 21.0341 17.1972 21.0341 13.7902V11.5591C21.0341 9.56039 21.0338 8.56035 20.5647 7.73192C20.0957 6.90372 19.2389 6.38946 17.5254 5.36136L15.7186 4.2771C13.907 3.19011 13.0009 2.64673 12 2.64673C10.9991 2.64673 10.0931 3.19011 8.2814 4.2771L6.47459 5.36136L5.34268 6.0495C4.35699 6.66657 3.78706 7.11083 3.43529 7.73192L3.35236 7.88984C2.96594 8.68952 2.96594 9.68535 2.96594 11.5589V11.5591V13.7902C2.96594 17.1972 2.96622 18.9013 4.02462 19.9597L4.1252 20.0558C5.05312 20.8939 6.46413 21.0018 8.99336 21.0157L10.1932 21.0175Z" stroke="#FFFFFF" stroke-opacity="0.6" stroke-width="2.08"/>
  <path d="M9 15C9 15 10.1829 16 12 16C13.8171 16 15 15 15 15" stroke="#FFFFFF" stroke-opacity="0.6" stroke-width="2" stroke-linecap="square"/>
</svg>
