<svg xmlns="http://www.w3.org/2000/svg" width="24" height="24" viewBox="0 0 24 24" fill="none">
  <path d="M12 1.56555C12.5737 1.56555 13.1163 1.72122 13.7637 2.02551C14.409 2.32892 15.1663 2.78347 16.167 3.38391L18.167 4.58411C19.1139 5.15225 19.831 5.58175 20.375 5.9845C20.9206 6.38847 21.2985 6.7704 21.5674 7.24524C21.8363 7.72015 21.9685 8.2413 22.0342 8.91711C22.0996 9.59071 22.0996 10.4263 22.0996 11.5304V14.0001C22.0996 15.8827 22.1006 17.3051 21.9531 18.4025C21.8052 19.5027 21.5068 20.2921 20.8994 20.8995C20.292 21.507 19.5027 21.8053 18.4023 21.9532C17.3049 22.1008 15.8827 22.1007 14 22.1007H10C8.11726 22.1007 6.69511 22.1008 5.59766 21.9532C4.49731 21.8053 3.70805 21.507 3.10059 20.8995C2.49322 20.2921 2.1948 19.5027 2.04688 18.4025C1.89938 17.3051 1.90039 15.8827 1.90039 14.0001V11.5304C1.90039 10.4263 1.90038 9.59071 1.96582 8.91711C2.03151 8.2413 2.16373 7.72015 2.43262 7.24524C2.70148 6.7704 3.07939 6.38847 3.625 5.9845C4.16897 5.58175 4.88611 5.15225 5.83301 4.58411L7.83301 3.38391C8.83374 2.78347 9.59096 2.32892 10.2363 2.02551C10.8837 1.72122 11.4263 1.56555 12 1.56555Z" fill="url(#paint0_bookstore)" stroke="url(#paint1_bookstore)" stroke-width="0.2"/>
  <path d="M9 15C9 15 10.1829 16 12 16C13.8171 16 15 15 15 15" stroke="#702E00" stroke-width="2" stroke-linecap="square"/>
  <defs>
    <linearGradient id="paint0_bookstore" x1="5.5" y1="5.5" x2="22.6405" y2="21.3054" gradientUnits="userSpaceOnUse">
      <stop stop-color="#FFFFFF"/>
      <stop offset="0.497981" stop-color="#FFED63"/>
      <stop offset="1" stop-color="#EF811D"/>
    </linearGradient>
    <linearGradient id="paint1_bookstore" x1="12" y1="1.66516" x2="12" y2="22.0004" gradientUnits="userSpaceOnUse">
      <stop stop-color="#FFFFFF"/>
      <stop offset="0.399215" stop-color="#FFFFFF"/>
      <stop offset="1" stop-color="#FFFFFF" stop-opacity="0"/>
    </linearGradient>
  </defs>
</svg>
