<svg xmlns="http://www.w3.org/2000/svg" width="24" height="24" viewBox="0 0 24 24" fill="none">
  <path d="M17.959 3.8274L17.9035 2.82894L17.9035 2.82894L17.959 3.8274ZM21 6.99537H22V6.9953L21 6.99537ZM21 15.8967L22 15.8969V15.8967H21ZM16.7637 20.1409L16.8984 21.1318L16.8984 21.1318L16.7637 20.1409ZM7.23633 20.1409L7.10157 21.1318L7.1016 21.1318L7.23633 20.1409ZM3 15.8967H2V15.8969L3 15.8967ZM3 6.99537L2 6.9953V6.99537H3ZM6.04102 3.8274L6.09654 2.82894L6.09647 2.82894L6.04102 3.8274ZM9.61694 20.6992L9.94682 19.7552L9.61694 20.6992ZM17.959 3.8274L18.0144 4.82586C19.0735 4.76704 19.9999 5.67681 20 6.99543L21 6.99537L22 6.9953C21.9999 4.79462 20.3583 2.6926 17.9035 2.82894L17.959 3.8274ZM21 6.99537H20V15.8967H21H22V6.99537H21ZM21 15.8967L20 15.8966C19.9998 17.4661 18.5078 18.8945 16.6289 19.15L16.7637 20.1409L16.8984 21.1318C19.4278 20.7878 21.9996 18.776 22 15.8969L21 15.8967ZM16.7637 20.1409L16.6289 19.15C15.8078 19.2616 14.9282 19.4494 14.0532 19.7552L14.3831 20.6992L14.7129 21.6432C15.4371 21.3902 16.182 21.2292 16.8984 21.1318L16.7637 20.1409ZM9.61694 20.6992L9.94682 19.7552C9.07179 19.4494 8.19224 19.2616 7.37106 19.15L7.23633 20.1409L7.1016 21.1318C7.81795 21.2292 8.56287 21.3902 9.28706 21.6432L9.61694 20.6992ZM7.23633 20.1409L7.37109 19.15C5.49225 18.8945 4.0002 17.4661 4 15.8966L3 15.8967L2 15.8969C2.00037 18.776 4.57223 20.7878 7.10157 21.1318L7.23633 20.1409ZM3 15.8967H4V6.99537H3H2V15.8967H3ZM3 6.99537L4 6.99543C4.00008 5.67681 4.92652 4.76704 5.98556 4.82586L6.04102 3.8274L6.09647 2.82894C3.64167 2.6926 2.00014 4.79462 2 6.9953L3 6.99537ZM6.04102 3.8274L5.98549 4.82586C7.00849 4.88275 8.1703 5.053 9.28689 5.44348L9.61699 4.49953L9.94709 3.55558C8.60351 3.08573 7.24537 2.89283 6.09654 2.82894L6.04102 3.8274ZM14.383 4.49953L14.7131 5.44348C15.8297 5.053 16.9915 4.88275 18.0145 4.82586L17.959 3.8274L17.9035 2.82894C16.7546 2.89283 15.3965 3.08573 14.0529 3.55558L14.383 4.49953ZM9.61699 4.49953L9.28689 5.44348C11.0109 6.04638 12.9891 6.04638 14.7131 5.44348L14.383 4.49953L14.0529 3.55558C12.7563 4.00901 11.2437 4.00901 9.94709 3.55558L9.61699 4.49953ZM14.3831 20.6992L14.0532 19.7552C12.7564 20.2083 11.2436 20.2083 9.94682 19.7552L9.61694 20.6992L9.28706 21.6432C11.011 22.2457 12.989 22.2457 14.7129 21.6432L14.3831 20.6992Z" fill="#FFFFFF" fill-opacity="0.6"/>
  <path d="M17 11C14 11 12 13 12 13C12 13 10 11 7 11" stroke="#FFFFFF" stroke-opacity="0.6" stroke-width="2"/>
</svg>
