<svg xmlns="http://www.w3.org/2000/svg" width="24" height="24" viewBox="0 0 24 24" fill="none">
  <path d="M4 10V18C4 19.6569 5.34315 21 7 21H17C18.6569 21 20 19.6569 20 18V10" stroke="#9AA0AA" stroke-width="2"/>
  <path d="M16.1835 3.31451L15.1935 4.30446" stroke="#9AA0AA" stroke-width="2.6" stroke-linecap="round"/>
  <path d="M7.81946 3.32153L8.80941 4.31148" stroke="#9AA0AA" stroke-width="2.6" stroke-linecap="round"/>
  <path d="M12 14C12 15.1988 12 15.8012 12 17" stroke="#FFFFFF" stroke-opacity="0.6" stroke-width="2" stroke-linecap="square"/>
  <path d="M2 7.5C2 6.11929 3.11929 5 4.5 5H19.5C20.8807 5 22 6.11929 22 7.5C22 8.88071 20.8807 10 19.5 10H4.5C3.11929 10 2 8.88071 2 7.5Z" stroke="#9AA0AA" stroke-width="2"/>
</svg>
