<svg xmlns="http://www.w3.org/2000/svg" width="24" height="24" viewBox="0 0 24 24" fill="none">
  <path d="M14.6992 1.82945C15.5192 1.0099 16.848 1.0099 17.668 1.82945C18.2287 2.39038 18.4044 3.18885 18.1982 3.89977H19.5C21.4882 3.89977 23.0996 5.51213 23.0996 7.50035C23.0994 8.91353 22.2842 10.134 21.0996 10.723V18.0004C21.0993 20.2645 19.2642 22.1 17 22.1H7C4.73579 22.1 2.90066 20.2645 2.90039 18.0004V10.723C1.71576 10.134 0.900589 8.91353 0.900391 7.50035C0.900391 5.51213 2.51178 3.89977 4.5 3.89977H5.80273C5.59981 3.19055 5.77597 2.39536 6.33496 1.83629C7.15495 1.01674 8.48371 1.01675 9.30371 1.83629L11.3672 3.89977H12.6289L14.6992 1.82945Z" fill="url(#paint0_welfare)" stroke="url(#paint1_welfare)" stroke-width="0.2"/>
  <path d="M12 14C12 15.1988 12 15.8012 12 17" stroke="#702E00" stroke-width="2" stroke-linecap="square"/>
  <defs>
    <linearGradient id="paint0_welfare" x1="4.85" y1="5.21568" x2="22.3429" y2="22.6587" gradientUnits="userSpaceOnUse">
      <stop stop-color="#FFFFFF"/>
      <stop offset="0.497981" stop-color="#FFED63"/>
      <stop offset="1" stop-color="#EF811D"/>
    </linearGradient>
    <linearGradient id="paint1_welfare" x1="12" y1="1.3148" x2="12" y2="22.0002" gradientUnits="userSpaceOnUse">
      <stop stop-color="#FFFFFF"/>
      <stop offset="0.399215" stop-color="#FFFFFF"/>
      <stop offset="1" stop-color="#FFFFFF" stop-opacity="0"/>
    </linearGradient>
  </defs>
</svg>
