<svg width="20" height="32" viewBox="0 0 20 32" fill="none" xmlns="http://www.w3.org/2000/svg">
<g opacity="0.8">
<path d="M10.4335 29.6717C11.9194 29.8028 12.9154 29.1397 13.1831 28.9471C12.916 28.7075 11.9216 27.8688 10.4357 27.7377C8.94973 27.6066 7.95369 28.2697 7.68599 28.4623C7.95275 28.7019 8.94752 29.5406 10.4335 29.6717Z" fill="#FFFAD7"/>
<path d="M13.1508 25.7601C13.7856 27.1176 13.5079 28.2869 13.4196 28.6062C13.1032 28.4366 11.975 27.7865 11.3402 26.429C10.7054 25.0711 10.9832 23.9022 11.0714 23.5829C11.3878 23.7525 12.516 24.4022 13.1508 25.7601Z" fill="#FFFAD7"/>
<path d="M6.57345 26.0357C7.94576 26.6219 9.09652 26.2998 9.41019 26.1997C9.22982 25.8886 8.5427 24.7809 7.17039 24.1946C5.79808 23.6084 4.64731 23.9305 4.33365 24.0306C4.51365 24.3418 5.20113 25.4494 6.57345 26.0357Z" fill="#FFFAD7"/>
<path d="M10.3592 23.1596C10.5449 24.6492 9.92156 25.6757 9.73971 25.952C9.49089 25.6922 8.61848 24.7233 8.4328 23.2338C8.24711 21.7442 8.87053 20.7181 9.05231 20.4415C9.3012 20.7016 10.1736 21.6705 10.3592 23.1596Z" fill="#FFFAD7"/>
<path d="M4.0185 21.3797C5.14269 22.3647 6.33626 22.4155 6.66518 22.4178C6.58941 22.0655 6.27655 20.7969 5.15242 19.8122C4.02822 18.8272 2.83465 18.7764 2.50574 18.7742C2.58114 19.1265 2.89394 20.3948 4.0185 21.3797Z" fill="#FFFAD7"/>
<path d="M8.50012 19.8197C8.21898 21.2946 7.31065 22.0777 7.05321 22.2845C6.89695 21.9599 6.36565 20.7673 6.64715 19.2923C6.92865 17.8173 7.83662 17.0342 8.09406 16.8275C8.25026 17.1517 8.78126 18.3447 8.50012 19.8197Z" fill="#FFFAD7"/>
<path d="M3.01876 16.1552C3.78495 17.4422 4.9042 17.8614 5.2163 17.9661C5.25255 17.607 5.34547 16.3021 4.57928 15.0151C3.81309 13.7281 2.69377 13.3085 2.38174 13.2042C2.34513 13.5633 2.25257 14.8682 3.01876 16.1552Z" fill="#FFFAD7"/>
<path d="M7.75969 16.0648C7.03936 17.3809 5.9362 17.8438 5.62778 17.9603C5.57885 17.6034 5.44098 16.3032 6.16138 14.9875C6.88172 13.6714 7.98487 13.2084 8.29329 13.0919C8.34222 13.4489 8.4801 14.749 7.75969 16.0648Z" fill="#FFFAD7"/>
<path d="M3.67116 10.875C4.00368 12.338 4.93898 13.085 5.20356 13.2812C5.34859 12.9509 5.83792 11.7378 5.50534 10.2745C5.17282 8.81154 4.23752 8.06452 3.97294 7.86827C3.82791 8.19857 3.33865 9.41206 3.67116 10.875Z" fill="#FFFAD7"/>
<path d="M8.20758 12.2631C7.11862 13.291 5.92835 13.389 5.59993 13.4043C5.6633 13.0495 5.93154 11.7701 7.02049 10.7422C8.10945 9.7142 9.29972 9.61621 9.62814 9.6009C9.56477 9.95573 9.29647 11.2348 8.20758 12.2631Z" fill="#FFFAD7"/>
<path d="M5.91466 6.05731C5.78082 7.55294 6.43956 8.55387 6.63087 8.82285C6.87026 8.55353 7.70825 7.55102 7.84209 6.05539C7.97593 4.55975 7.31683 3.55889 7.12588 3.28984C6.88643 3.5588 6.04814 4.56174 5.91466 6.05731Z" fill="#FFFAD7"/>
<path d="M9.80169 8.78707C8.45099 9.42696 7.29005 9.15072 6.97293 9.0629C7.14214 8.74504 7.79052 7.61154 9.14085 6.97172C10.4916 6.33183 11.6525 6.60807 11.9696 6.69589C11.8004 7.01375 11.1524 8.14718 9.80169 8.78707Z" fill="#FFFAD7"/>
<path d="M10.0058 3.04041C8.80839 4.20605 8.55467 5.55569 8.49669 5.92909C8.86986 5.88277 10.22 5.67083 11.4173 4.50519C12.6147 3.33955 12.8684 1.98991 12.9263 1.61614C12.5532 1.66246 11.2031 1.8744 10.0058 3.04041Z" fill="#FFFAD7"/>
</g>
</svg>
