<svg preserveAspectRatio="xMidYMid meet" width="100%" height="100%" overflow="visible" style="display: block;" viewBox="0 0 14 14" fill="none" xmlns="http://www.w3.org/2000/svg">
<g id="Frame" opacity="0.5" clip-path="url(#clip0_0_68)">
<path id="Union" d="M5 7.7334C5.69947 7.7334 6.26643 8.30057 6.2666 9V12.333C6.2666 13.0326 5.69957 13.5996 5 13.5996H1.66699C0.967438 13.5996 0.400391 13.0326 0.400391 12.333V9C0.400561 8.30057 0.967543 7.7334 1.66699 7.7334H5ZM12.333 7.7334C13.0325 7.7334 13.5994 8.30057 13.5996 9V12.333C13.5996 13.0326 13.0326 13.5996 12.333 13.5996H9C8.30056 13.5995 7.7334 13.0325 7.7334 12.333V9C7.73357 8.30067 8.30066 7.73355 9 7.7334H12.333ZM1.66699 8.93262C1.63027 8.93262 1.59978 8.96332 1.59961 9V12.333C1.59961 12.3698 1.63017 12.3994 1.66699 12.3994H5C5.03683 12.3994 5.06641 12.3698 5.06641 12.333V9C5.06624 8.96331 5.03672 8.93262 5 8.93262H1.66699ZM9 8.93262C8.9634 8.93277 8.93279 8.9634 8.93262 9V12.333C8.93262 12.3697 8.9633 12.3993 9 12.3994H12.333C12.3698 12.3994 12.3994 12.3698 12.3994 12.333V9C12.3992 8.96331 12.3697 8.93262 12.333 8.93262H9ZM5 0.400391C5.69958 0.400391 6.2666 0.967437 6.2666 1.66699V5C6.2666 5.69957 5.69957 6.2666 5 6.2666H1.66699C0.967438 6.2666 0.400391 5.69958 0.400391 5V1.66699C0.400391 0.967432 0.967432 0.400392 1.66699 0.400391H5ZM12.333 0.400391C13.0326 0.400391 13.5996 0.967437 13.5996 1.66699V5C13.5996 5.69957 13.0326 6.2666 12.333 6.2666H9C8.30056 6.26645 7.7334 5.69948 7.7334 5V1.66699C7.7334 0.967531 8.30055 0.400543 9 0.400391H12.333ZM1.66699 1.59961C1.63017 1.59961 1.59961 1.63017 1.59961 1.66699V5C1.59961 5.03682 1.63017 5.06641 1.66699 5.06641H5C5.03683 5.06641 5.06641 5.03683 5.06641 5V1.66699C5.06641 1.63017 5.03682 1.59961 5 1.59961H1.66699ZM9 1.59961C8.9633 1.59977 8.93262 1.63026 8.93262 1.66699V5C8.93262 5.03673 8.9633 5.06626 9 5.06641H12.333C12.3698 5.06641 12.3994 5.03683 12.3994 5V1.66699C12.3994 1.63017 12.3698 1.59961 12.333 1.59961H9Z" fill="var(--fill-0, white)" style="fill:white;fill-opacity:1;"/>
</g>
<defs>
<clipPath id="clip0_0_68">
<rect width="14" height="14" fill="white" style="fill:white;fill-opacity:1;"/>
</clipPath>
</defs>
</svg>
