<svg width="24" height="24" viewBox="0 0 24 24" fill="none" xmlns="http://www.w3.org/2000/svg">
<g clip-path="url(#clip0_1440_994)">
<path d="M5.97801 5.97778C9.04771 2.90809 14.0251 2.90752 17.0949 5.97709C19.9858 8.86794 20.1529 13.45 17.599 16.5381L19.9682 18.9073C20.2606 19.2003 20.261 19.6753 19.9682 19.968C19.6755 20.2605 19.2004 20.2603 18.9076 19.968L16.5384 17.5988C13.4503 20.1524 8.8688 19.9848 5.97801 17.094C2.9085 14.0243 2.9085 9.0475 5.97801 5.97778ZM7.03867 7.03844C4.55495 9.52237 4.55495 13.5494 7.03867 16.0333C9.52259 18.5172 13.5503 18.5178 16.0343 16.034C18.5182 13.5501 18.5182 9.52173 16.0343 7.03775C13.5503 4.55396 9.52259 4.55453 7.03867 7.03844Z" fill="white" style="fill:white;fill-opacity:1;"/>
</g>
<defs>
<clipPath id="clip0_1440_994">
<rect width="24" height="24" fill="white" style="fill:white;fill-opacity:1;"/>
</clipPath>
</defs>
</svg>
