<svg width="24" height="24" viewBox="0 0 24 24" fill="none" xmlns="http://www.w3.org/2000/svg">
<path d="M7.22507 2.21433C7.76622 1.95617 8.38226 1.89887 8.96238 2.0532L9.0866 2.09011L18.6766 5.17273C19.8841 5.56106 20.4182 6.97191 19.7694 8.05964L16.8579 12.9405L18.1417 14.253C18.9437 15.0731 18.7771 16.4242 17.8001 17.0216L16.1126 18.0522L16.1132 18.0528L9.06785 22.4315C7.02789 23.6994 4.60846 21.4725 5.70339 19.3348L6.94265 16.9149L4.40437 14.6409C4.04716 14.3209 3.84193 13.8643 3.84011 13.3852L3.8114 5.45984L3.81609 5.29929C3.86788 4.5012 4.3254 3.78091 5.03484 3.39675L7.11023 2.27234L7.22507 2.21433Z" fill="#FFED63"/>
<path d="M7.74007 3.43344C8.02943 3.27676 8.37091 3.24528 8.6846 3.34613L18.2746 6.42934C18.6729 6.55748 18.8489 7.02263 18.635 7.38149L15.2037 13.1348L17.1989 15.1745C17.4076 15.3879 17.3641 15.7397 17.1098 15.8952L15.4147 16.9311L8.36878 21.3098C7.46501 21.8714 6.39363 20.8852 6.87874 19.9381L8.58206 16.6129L5.28441 13.6586C5.20595 13.5883 5.16057 13.4879 5.16019 13.3827L5.13148 5.45727C5.13013 5.08164 5.33516 4.73601 5.66527 4.55727L7.74007 3.43344Z" fill="#FFED63"/>
<path d="M7.73768 3.43184C8.02699 3.27519 8.36837 3.24317 8.68201 3.34395L13.6215 4.93184L18.2719 6.42696C18.6703 6.55506 18.8473 7.02117 18.6332 7.38008L15.2015 13.133L17.1967 15.1721C17.4053 15.3854 17.3618 15.7373 17.1078 15.8928L15.4125 16.9289L8.36658 21.3078C7.46281 21.8694 6.39123 20.8828 6.87635 19.9357L8.57947 16.6106L5.28162 13.6565C5.20336 13.5863 5.15908 13.4861 5.15858 13.3811L5.12928 5.45528C5.12791 5.07969 5.33245 4.73366 5.66248 4.55489L7.73768 3.43184Z" fill="#FFED63"/>
<path fill-rule="evenodd" clip-rule="evenodd" d="M7.36566 2.74586C7.84193 2.48798 8.40325 2.43578 8.91957 2.60172L18.5096 5.68492C19.3861 5.96679 19.7733 6.99065 19.3024 7.78023L16.1782 13.0179L17.7532 14.6275C18.3126 15.1994 18.1965 16.1416 17.5153 16.5582L15.8202 17.5947L8.77894 21.9705C7.20388 22.9489 5.33674 21.2297 6.18207 19.5793L7.61058 16.789L4.76175 14.2367C4.51866 14.0188 4.37921 13.7079 4.37797 13.3818L4.34925 5.4564C4.34691 4.79403 4.7082 4.18435 5.29027 3.8691L7.36566 2.74586ZM8.68168 3.34351C8.36811 3.24284 8.02695 3.2748 7.73773 3.4314L5.66293 4.55523C5.33283 4.734 5.12776 5.0796 5.12914 5.45523L5.15785 13.38C5.15823 13.4853 5.20362 13.5857 5.28207 13.656L8.57972 16.6103L6.8764 19.9355C6.3913 20.8825 7.46269 21.8692 8.36644 21.3078L15.4123 16.9291L17.1075 15.8931C17.3617 15.7377 17.4052 15.3858 17.1965 15.1724L15.2008 13.1328L18.6327 7.37945C18.8464 7.02063 18.6705 6.55546 18.2723 6.4273L8.68168 3.34351Z" fill="url(#paint0_linear_1568_2100)"/>
<mask id="mask0_1568_2100" maskUnits="userSpaceOnUse" x="5" y="3" width="14" height="19">
<path fill-rule="evenodd" clip-rule="evenodd" d="M8.37029 21.31C7.4665 21.8717 6.39472 20.8851 6.87986 19.938L8.37233 17.0244C8.49656 16.7819 8.44143 16.4858 8.23813 16.3037L5.41104 13.7708C5.25263 13.6289 5.16174 13.4266 5.16096 13.2141L5.132 5.29518C5.13099 5.01936 5.2815 4.76552 5.5239 4.63427L7.8568 3.37104C8.07254 3.25423 8.32681 3.23069 8.56069 3.30588L13.6247 4.93397L18.5155 6.50636C18.7913 6.59505 18.9133 6.9172 18.7651 7.16568L15.2047 13.1348L17.3443 15.322C17.4792 15.4599 17.4511 15.6871 17.2868 15.7876L15.4158 16.9311L8.37029 21.31Z" fill="white"/>
</mask>
<g mask="url(#mask0_1568_2100)">
<path fill-rule="evenodd" clip-rule="evenodd" d="M15.8285 7.88862L19.0534 6.67891L8.19304 3.18729L5.12885 4.84649L15.8285 7.88862Z" fill="url(#paint1_linear_1568_2100)"/>
<path fill-rule="evenodd" clip-rule="evenodd" d="M19.0546 6.67853L15.2044 13.1335L12.3758 13.8542L15.8297 7.88825L19.0546 6.67853Z" fill="url(#paint2_linear_1568_2100)"/>
<mask id="mask1_1568_2100" maskUnits="userSpaceOnUse" x="5" y="4" width="11" height="18">
<path fill-rule="evenodd" clip-rule="evenodd" d="M5.13249 4.84706L5.16382 13.4141C5.16414 13.4991 5.20049 13.58 5.26386 13.6368L8.41278 16.458C8.51443 16.549 8.54199 16.6971 8.47988 16.8183L6.88198 19.9377C6.39685 20.8848 7.46863 21.8714 8.37242 21.3097L15.4179 16.9308L12.4588 13.9367C12.4112 13.8886 12.4017 13.8146 12.4356 13.7561L15.8322 7.8892L5.13249 4.84706Z" fill="white"/>
</mask>
<g mask="url(#mask1_1568_2100)">
<ellipse cx="7.43447" cy="2.87971" rx="7.43447" ry="2.87971" transform="matrix(0.901866 -0.432015 0.444776 0.895642 3.09424 20.4512)" fill="#FFC334"/>
<g opacity="0.925393">
<path d="M5.60575 6.95567L5.46151 10.9494C5.56783 9.31893 5.90101 7.89593 6.63395 7.21477C7.50946 6.40112 8.88788 6.51987 10.2087 6.88387L6.93406 5.98132C6.28058 5.8012 5.63022 6.27827 5.60575 6.95567Z" fill="white"/>
<path d="M6.89411 6.1263L8.1293 6.46675C7.53131 6.5108 6.97441 6.69427 6.53208 7.10534C6.15542 7.45544 5.88649 7.97717 5.69606 8.59495L5.75536 6.96116C5.77633 6.38052 6.33398 5.97192 6.89411 6.1263Z" stroke="#FFED63" stroke-opacity="0.181125" stroke-width="0.3"/>
</g>
<ellipse cx="7.43447" cy="2.87971" rx="7.43447" ry="2.87971" transform="matrix(0.901866 -0.432015 0.444776 0.895642 2.83411 15.5723)" fill="#FFDC50"/>
</g>
<path opacity="0.42" d="M15.7178 7.93397L12.3709 13.7181C12.3201 13.8059 12.3345 13.9169 12.4059 13.9892L15.2322 16.8496C15.2661 16.8839 15.2597 16.9413 15.2189 16.9667L8.33266 21.2462C7.4935 21.7675 6.49802 20.8513 6.94835 19.9719L8.54709 16.8524C8.62452 16.7009 8.5894 16.5158 8.46242 16.4021L5.31348 13.5807C5.26615 13.5382 5.23926 13.477 5.23903 13.4134L5.20674 4.94592L15.7178 7.93397Z" stroke="url(#paint3_linear_1568_2100)" stroke-width="0.15" stroke-linejoin="round"/>
<path opacity="0.531759" fill-rule="evenodd" clip-rule="evenodd" d="M19.0616 6.67951L15.2115 13.1345L12.3828 13.8552L15.1091 12.9961L19.0616 6.67951Z" fill="#FFE14C"/>
<path fill-rule="evenodd" clip-rule="evenodd" d="M12.378 13.8548L15.2067 13.1341L17.7873 15.6252L15.4177 16.9304L12.378 13.8548Z" fill="#F89527"/>
<path fill-rule="evenodd" clip-rule="evenodd" d="M5.13469 4.84627L5.16652 13.5468L5.31615 5.03419L15.8344 7.8884L5.43985 4.83056L8.19888 3.18706L5.13469 4.84627Z" fill="#FFFDE9"/>
<path opacity="0.498324" fill-rule="evenodd" clip-rule="evenodd" d="M12.3764 13.8553L15.8308 7.89681L19.0552 6.67965L15.79 7.77356L8.7052 5.9292L15.6863 7.90425L12.3764 13.8553Z" fill="#FFFDE9"/>
</g>
<defs>
<linearGradient id="paint0_linear_1568_2100" x1="11.9269" y1="2.50635" x2="11.9269" y2="22.256" gradientUnits="userSpaceOnUse">
<stop stop-color="#F48620"/>
<stop offset="1" stop-color="#E17216"/>
</linearGradient>
<linearGradient id="paint1_linear_1568_2100" x1="2.4105" y1="6.10269" x2="5.04494" y2="12.2228" gradientUnits="userSpaceOnUse">
<stop stop-color="#FAE05A"/>
<stop offset="1" stop-color="#F7C550"/>
</linearGradient>
<linearGradient id="paint2_linear_1568_2100" x1="13.3844" y1="6.02855" x2="10.8144" y2="12.5197" gradientUnits="userSpaceOnUse">
<stop stop-color="#F89527"/>
<stop offset="1" stop-color="#FFC02D"/>
</linearGradient>
<linearGradient id="paint3_linear_1568_2100" x1="4.48663" y1="2.08741" x2="-3.54791" y2="16.542" gradientUnits="userSpaceOnUse">
<stop stop-color="#FEFACF"/>
<stop offset="0.566902" stop-color="#FCF250"/>
<stop offset="1" stop-color="#FDF2AD"/>
</linearGradient>
</defs>
</svg>
