<svg preserveAspectRatio="none" width="100%" height="100%" overflow="visible" style="display: block;" viewBox="0 0 24 24" fill="none" xmlns="http://www.w3.org/2000/svg">
<g id="Welfare_nav-bar_recharge_icon" opacity="0.6">
<path id="Union" d="M12 3.2998C16.8049 3.2998 20.7002 7.19512 20.7002 12C20.7002 16.8049 16.8049 20.7002 12 20.7002C7.19512 20.7002 3.2998 16.8049 3.2998 12C3.2998 7.19512 7.19512 3.2998 12 3.2998ZM12 4.7002C7.96832 4.7002 4.7002 7.96832 4.7002 12C4.7002 16.0317 7.96832 19.2998 12 19.2998C16.0317 19.2998 19.2998 16.0317 19.2998 12C19.2998 7.96832 16.0317 4.7002 12 4.7002ZM12.7002 16H11.2998V10.5H12.7002V16ZM12.7002 9.5H11.2998V8H12.7002V9.5Z" fill="black"/>
</g>
</svg>
