<svg width="24" height="24" viewBox="0 0 24 24" fill="none" xmlns="http://www.w3.org/2000/svg">
<path d="M8.1001 6H4.9458C4.20284 6.00005 3.6002 6.60275 3.6001 7.3457V17.4541C3.6001 18.1971 4.20277 18.7998 4.9458 18.7998H19.854C20.5971 18.7998 21.1997 18.1972 21.1997 17.4541V7.3457C21.1996 6.60272 20.597 6 19.854 6H17.6997V4.7998H19.854C21.2598 4.7998 22.3998 5.93998 22.3999 7.3457V17.4541C22.3999 18.772 21.3983 19.8559 20.1147 19.9863L19.854 20H4.9458L4.68506 19.9863C3.40159 19.8559 2.3999 18.772 2.3999 17.4541V7.3457C2.4 6.02786 3.4016 4.94288 4.68506 4.8125L4.9458 4.7998H8.1001V6ZM12.1987 9.59961C12.5291 9.59962 12.7966 9.66193 13.0005 9.78613C13.2066 9.91028 13.3575 10.0944 13.4536 10.3379C13.5497 10.5792 13.5981 10.8783 13.5981 11.2344V14.1914C13.5981 14.4654 13.5725 14.7103 13.521 14.9258C13.4694 15.1414 13.388 15.3246 13.2778 15.4746C13.1678 15.6244 13.0241 15.7397 12.8462 15.8193C12.6681 15.8967 12.4518 15.9355 12.1987 15.9355C11.8613 15.9355 11.5895 15.8658 11.3833 15.7275C11.1794 15.5893 11.0308 15.39 10.937 15.1299C10.8456 14.8697 10.7993 14.557 10.7993 14.1914V11.2344C10.7994 10.8783 10.8462 10.5792 10.9399 10.3379C11.036 10.0943 11.1879 9.91031 11.394 9.78613C11.6002 9.66208 11.8685 9.59962 12.1987 9.59961ZM16.1997 9.59961C16.5297 9.59968 16.7967 9.66211 17.0005 9.78613C17.2066 9.91031 17.3585 10.0943 17.4546 10.3379C17.5506 10.5792 17.5981 10.8783 17.5981 11.2344V14.1914C17.5981 14.4655 17.5725 14.7102 17.521 14.9258C17.4695 15.1413 17.3889 15.3246 17.2788 15.4746C17.1687 15.6246 17.0243 15.7396 16.8462 15.8193C16.6682 15.8966 16.4526 15.9355 16.1997 15.9355C15.8622 15.9355 15.5895 15.8658 15.3833 15.7275C15.1796 15.5893 15.0307 15.3899 14.937 15.1299C14.8457 14.8698 14.8003 14.5569 14.8003 14.1914V11.2344C14.8003 10.8783 14.8472 10.5792 14.9409 10.3379C15.037 10.0944 15.1879 9.91027 15.394 9.78613C15.6003 9.66195 15.8693 9.59961 16.1997 9.59961ZM9.30908 15.7881H8.3667V10.7676C8.31048 10.8332 8.23851 10.8897 8.15186 10.9365C8.06531 10.9809 7.97272 11.0147 7.87451 11.0381C7.77845 11.0592 7.68679 11.0693 7.6001 11.0693V10.3701C7.72428 10.3514 7.84896 10.3119 7.97314 10.251C8.09957 10.1877 8.21543 10.1018 8.3208 9.99414C8.42617 9.88642 8.51204 9.7551 8.57764 9.60059H9.30908V15.7881ZM12.1958 10.4121C12.1162 10.4121 12.0405 10.4282 11.9702 10.4609C11.9023 10.4937 11.8458 10.5656 11.8013 10.6758C11.7591 10.7859 11.7388 10.9582 11.7388 11.1924V14.209C11.7388 14.4081 11.7474 14.5686 11.7661 14.6904C11.7872 14.81 11.8181 14.9016 11.8579 14.9648C11.8977 15.0281 11.9462 15.0707 12.0024 15.0918C12.0585 15.1127 12.1234 15.123 12.1958 15.123C12.2634 15.123 12.3254 15.1127 12.3813 15.0918C12.4376 15.0684 12.4861 15.0242 12.5259 14.9609C12.5679 14.8977 12.5996 14.8066 12.6206 14.6875C12.644 14.5656 12.6558 14.4058 12.6558 14.209V11.1963C12.6558 10.9667 12.6344 10.7967 12.5923 10.6865C12.5502 10.5743 12.4944 10.5001 12.4243 10.4648C12.3542 10.4298 12.2776 10.4122 12.1958 10.4121ZM16.1958 10.4121C16.1164 10.4121 16.0413 10.4283 15.9712 10.4609C15.9033 10.4937 15.8468 10.5657 15.8022 10.6758C15.7601 10.7859 15.7388 10.9581 15.7388 11.1924V14.209C15.7388 14.4081 15.7484 14.5686 15.7671 14.6904C15.7882 14.8099 15.8181 14.9016 15.8579 14.9648C15.8977 15.0281 15.9462 15.0707 16.0024 15.0918C16.0586 15.1128 16.1233 15.123 16.1958 15.123C16.2637 15.123 16.3261 15.1129 16.3823 15.0918C16.4385 15.0683 16.4861 15.0241 16.5259 14.9609C16.568 14.8977 16.6005 14.8068 16.6216 14.6875C16.645 14.5656 16.6567 14.4058 16.6567 14.209V11.1963C16.6567 10.9668 16.6354 10.7967 16.5933 10.6865C16.5511 10.5741 16.4946 10.5 16.4243 10.4648C16.3541 10.4297 16.2778 10.4121 16.1958 10.4121ZM16.1001 3.2002C16.5419 3.20025 16.8999 3.5582 16.8999 4V6.40039C16.8997 6.84201 16.5418 7.20014 16.1001 7.2002H9.69971C9.25814 7.20004 8.90011 6.84194 8.8999 6.40039V4C8.8999 3.55827 9.25801 3.20035 9.69971 3.2002H16.1001Z" fill="url(#paint0_linear_1502_3999)"/>
<defs>
<linearGradient id="paint0_linear_1502_3999" x1="2.3999" y1="20.0002" x2="22.3999" y2="20.0002" gradientUnits="userSpaceOnUse">
<stop stop-color="#FFE794"/>
<stop offset="0.999534" stop-color="#FFCD5A"/>
</linearGradient>
</defs>
</svg>
