<svg preserveAspectRatio="none" width="100%" height="100%" overflow="visible" viewBox="0 0 30 30" fill="none" xmlns="http://www.w3.org/2000/svg">
<g id="&#231;&#188;&#150;&#231;&#187;&#132; 5">
<path id="Union" d="M11.2694 5C11.2952 5.01403 12.8677 5.86613 14.4559 5.86621C16.0419 5.86621 17.6283 5.01655 17.6591 5H18.9901C19.9633 5 20.8278 5.45888 21.3847 6.16992L24.997 9.60352C26.2175 10.7639 26.2629 12.6954 25.0985 13.9121L22.9784 16.1279C22.7002 16.4186 22.3777 16.6403 22.0331 16.7959V21.958C22.033 23.6381 20.6702 25 18.9901 25H9.92176C8.24174 24.9999 6.87984 23.638 6.87977 21.958V16.8379C6.49913 16.6815 6.14343 16.4452 5.83973 16.1279L3.71864 13.9121C2.55428 12.6954 2.60067 10.7638 3.82118 9.60352L7.70985 5.90625C7.91076 5.71525 8.13147 5.55708 8.36414 5.43164C8.82 5.15909 9.35203 5.00002 9.92176 5H11.2694ZM9.92176 6.5C9.63557 6.50002 9.36782 6.57876 9.13368 6.71875L9.10535 6.73633L9.07606 6.75195C8.95842 6.81538 8.84587 6.89542 8.74305 6.99316L4.85438 10.6904C4.23525 11.2791 4.21291 12.2588 4.80262 12.875L6.92371 15.0908C7.07861 15.2526 7.25802 15.3713 7.45008 15.4502L8.37977 15.832V21.958C8.37984 22.8097 9.07025 23.4999 9.92176 23.5H18.9901C19.7892 23.5 20.4464 22.8926 20.5253 22.1152L20.5331 21.958V15.8271L21.4159 15.4287C21.5925 15.3489 21.7545 15.2369 21.8944 15.0908L24.0145 12.875L24.1181 12.7549C24.5996 12.1368 24.5436 11.2417 23.9638 10.6904L20.3514 7.25684L20.2714 7.18164L20.204 7.09473C19.9172 6.72861 19.4796 6.5 18.9901 6.5H18.0067C17.3605 6.79904 15.9404 7.36621 14.4559 7.36621C12.9741 7.36615 11.5662 6.80075 10.9208 6.5H9.92176ZM14.4423 16.5498L17.0253 12.502L18.7108 13.5781L15.2938 18.9346C15.111 19.221 14.7948 19.3949 14.455 19.3965C14.1151 19.398 13.7976 19.2262 13.6122 18.9414L10.1268 13.5859L11.8026 12.4941L14.4423 16.5498Z" fill="#F0C178"/>
</g>

</svg>
