<svg width="24" height="24" viewBox="0 0 24 24" fill="none" xmlns="http://www.w3.org/2000/svg">
<path d="M11.6792 4V4.04004H15.3345L15.5796 4.05273C16.7897 4.17572 17.7339 5.19785 17.7339 6.44043V6.56836H18.5435C19.7518 6.56857 20.7318 7.54843 20.7319 8.75684V15.2432C20.7318 16.4516 19.7518 17.4314 18.5435 17.4316H17.7339V17.5996C17.7338 18.8421 16.7897 19.8643 15.5796 19.9873L15.3345 20H6.50049L6.25439 19.9873C5.04441 19.8642 4.1002 18.842 4.1001 17.5996V6.44043C4.1001 5.19791 5.04435 4.1758 6.25439 4.05273L6.50049 4.04004H6.62646V4H11.6792ZM6.50049 5.24023C5.83775 5.24023 5.30029 5.77769 5.30029 6.44043V17.5996C5.3004 18.2623 5.83781 18.7998 6.50049 18.7998H15.3345C15.997 18.7996 16.5346 18.2621 16.5347 17.5996V6.44043C16.5347 5.77782 15.997 5.24044 15.3345 5.24023H11.6792V10.7197L9.14893 8.49121L6.62646 10.7197V5.24023H6.50049ZM17.7339 16.1689H18.5435C19.0542 16.1687 19.4682 15.7539 19.4683 15.2432V8.75684C19.4682 8.24605 19.0542 7.83224 18.5435 7.83203H17.7339V16.1689Z" fill="url(#paint0_linear_1502_4026)"/>
<defs>
<linearGradient id="paint0_linear_1502_4026" x1="4.1001" y1="20" x2="20.7319" y2="20" gradientUnits="userSpaceOnUse">
<stop stop-color="#FFE794"/>
<stop offset="0.999534" stop-color="#FFCD5A"/>
</linearGradient>
</defs>
</svg>
