<svg preserveAspectRatio="none" width="100%" height="100%" overflow="visible" viewBox="0 0 30 30" fill="none" xmlns="http://www.w3.org/2000/svg">
<g id="&#231;&#188;&#150;&#231;&#187;&#132; 5">
<path id="Union" d="M10.125 7.5H6.18164C5.25294 7.5001 4.5001 8.25294 4.5 9.18164V21.8184C4.5001 22.7471 5.25294 23.4999 6.18164 23.5H24.8184C25.7471 23.4999 26.4999 22.7471 26.5 21.8184V9.18164C26.4999 8.31097 25.8382 7.59496 24.9902 7.50879L24.8184 7.5H22.125V6H24.8184L24.9814 6.00391C26.6628 6.08888 27.9999 7.4792 28 9.18164V21.8184L27.9961 21.9814C27.9138 23.6088 26.6088 24.9138 24.9814 24.9961L24.8184 25H6.18164C4.4792 24.9999 3.08888 23.6628 3.00391 21.9814L3 21.8184V9.18164C3.0001 7.42451 4.42451 6.0001 6.18164 6H10.125V7.5ZM15.249 12.1738C15.6619 12.1739 15.9962 12.251 16.251 12.4062C16.5086 12.5615 16.6973 12.7921 16.8174 13.0967C16.9374 13.3984 16.998 13.7717 16.998 14.2168V17.9131C16.998 18.2556 16.9658 18.5617 16.9014 18.8311C16.8369 19.1006 16.7354 19.3291 16.5977 19.5166C16.46 19.704 16.2801 19.8477 16.0576 19.9473C15.8351 20.0439 15.5652 20.0927 15.249 20.0928C14.8273 20.0928 14.4873 20.0057 14.2295 19.833C13.9746 19.6602 13.7881 19.4111 13.6709 19.0859C13.5567 18.7609 13.5 18.3699 13.5 17.9131V14.2168C13.5 13.7716 13.5587 13.3984 13.6758 13.0967C13.7959 12.792 13.9844 12.5615 14.2422 12.4062C14.5 12.251 14.8359 12.1738 15.249 12.1738ZM19.6875 12.1738C20.1004 12.1739 20.4347 12.251 20.6895 12.4062C20.9471 12.5615 21.1358 12.7921 21.2559 13.0967C21.3759 13.3984 21.4365 13.7717 21.4365 14.2168V17.9131C21.4365 18.2556 21.4042 18.5617 21.3398 18.8311C21.2754 19.1006 21.1738 19.3291 21.0361 19.5166C20.8985 19.704 20.7186 19.8477 20.4961 19.9473C20.2736 20.0439 20.0037 20.0927 19.6875 20.0928C19.2658 20.0928 18.9257 20.0057 18.668 19.833C18.4131 19.6602 18.2266 19.4111 18.1094 19.0859C17.9952 18.7609 17.9385 18.3699 17.9385 17.9131V14.2168C17.9385 13.7716 17.9971 13.3984 18.1143 13.0967C18.2344 12.792 18.4229 12.5615 18.6807 12.4062C18.9385 12.251 19.2744 12.1738 19.6875 12.1738ZM12.3877 20H11.21V13.7246C11.1397 13.8065 11.0506 13.877 10.9424 13.9355C10.834 13.9912 10.7178 14.0342 10.5947 14.0635C10.4746 14.0898 10.3603 14.1025 10.252 14.1025V13.2285C10.4072 13.2051 10.5626 13.1552 10.7178 13.0791C10.876 13 11.0215 12.8926 11.1533 12.7578C11.285 12.6231 11.3917 12.4589 11.4736 12.2656H12.3877V20ZM15.2441 13.1885C15.1445 13.1885 15.0508 13.209 14.9629 13.25C14.8779 13.291 14.8076 13.3809 14.752 13.5186C14.6993 13.6563 14.6729 13.8714 14.6729 14.1641V17.9346C14.6729 18.1836 14.6846 18.3848 14.708 18.5371C14.7344 18.6863 14.7725 18.8009 14.8223 18.8799C14.872 18.9588 14.9327 19.0118 15.0029 19.0381C15.0731 19.0643 15.1536 19.0771 15.2441 19.0771C15.3291 19.0771 15.4072 19.0645 15.4775 19.0381C15.5477 19.0088 15.6075 18.954 15.6572 18.875C15.71 18.7959 15.75 18.6816 15.7764 18.5322C15.8057 18.3799 15.8203 18.1806 15.8203 17.9346V14.1689C15.8203 13.8819 15.7939 13.6689 15.7412 13.5312C15.6886 13.3909 15.6179 13.2989 15.5303 13.2549C15.4424 13.2109 15.3467 13.1885 15.2441 13.1885ZM19.6826 13.1885C19.583 13.1885 19.4893 13.209 19.4014 13.25C19.3164 13.291 19.2461 13.3809 19.1904 13.5186C19.1378 13.6563 19.1113 13.8714 19.1113 14.1641V17.9346C19.1113 18.1836 19.123 18.3848 19.1465 18.5371C19.1728 18.6863 19.211 18.8009 19.2607 18.8799C19.3105 18.9588 19.3712 19.0118 19.4414 19.0381C19.5116 19.0643 19.5921 19.0771 19.6826 19.0771C19.7676 19.0771 19.8457 19.0645 19.916 19.0381C19.9862 19.0088 20.046 18.954 20.0957 18.875C20.1484 18.7959 20.1885 18.6816 20.2148 18.5322C20.2441 18.3799 20.2588 18.1806 20.2588 17.9346V14.1689C20.2588 13.8819 20.2324 13.6689 20.1797 13.5312C20.1271 13.3909 20.0564 13.2989 19.9688 13.2549C19.8809 13.2109 19.7852 13.1885 19.6826 13.1885ZM20.125 4C20.6773 4 21.125 4.44772 21.125 5V8C21.125 8.55228 20.6773 9 20.125 9H12.125C11.5727 9 11.125 8.55228 11.125 8V5C11.125 4.44772 11.5727 4 12.125 4H20.125Z" fill="#F0C178"/>
</g>

</svg>
