<svg width="24" height="24" viewBox="0 0 24 24" fill="none" xmlns="http://www.w3.org/2000/svg">
<path d="M13.1741 2.41162C18.0348 2.65834 21.9006 6.67807 21.9006 11.6001L21.8879 12.0737C21.6413 16.9344 17.6223 20.8001 12.7004 20.8003L12.2268 20.7876C7.52275 20.5491 3.75061 16.7777 3.51196 12.0737L3.50024 11.6001C3.50024 6.51908 7.61942 2.3999 12.7004 2.3999L13.1741 2.41162ZM12.7004 3.6001C8.28216 3.6001 4.70044 7.18182 4.70044 11.6001C4.70055 16.0183 8.28223 19.6001 12.7004 19.6001C17.1184 19.5999 20.7003 16.0181 20.7004 11.6001C20.7004 7.18197 17.1185 3.60034 12.7004 3.6001ZM12.6741 6.76025C14.215 6.76025 14.5747 6.88027 14.7991 7.82275L16.4895 14.9282C16.5643 15.2274 16.594 15.4521 16.594 15.6167C16.594 15.9905 16.4891 16.1401 15.5168 16.1401C14.5146 16.1401 14.3348 16.0354 14.2151 15.4819L13.8713 13.9106H11.4631L11.134 15.4819C11.0144 16.0354 10.8345 16.1401 9.83228 16.1401C8.86007 16.1401 8.74053 15.9905 8.74048 15.6167C8.74048 15.4521 8.78482 15.2274 8.85962 14.9282L10.55 7.82275C10.7744 6.88036 11.1336 6.76028 12.6741 6.76025ZM11.8069 12.2202H13.5276L12.7795 8.63037H12.5696L11.8069 12.2202Z" fill="#F0C178"/>
<path d="M13.1741 2.41162C18.0348 2.65834 21.9006 6.67807 21.9006 11.6001L21.8879 12.0737C21.6413 16.9344 17.6223 20.8001 12.7004 20.8003L12.2268 20.7876C7.52275 20.5491 3.75061 16.7777 3.51196 12.0737L3.50024 11.6001C3.50024 6.51908 7.61942 2.3999 12.7004 2.3999L13.1741 2.41162ZM12.7004 3.6001C8.28216 3.6001 4.70044 7.18182 4.70044 11.6001C4.70055 16.0183 8.28223 19.6001 12.7004 19.6001C17.1184 19.5999 20.7003 16.0181 20.7004 11.6001C20.7004 7.18197 17.1185 3.60034 12.7004 3.6001ZM12.6741 6.76025C14.215 6.76025 14.5747 6.88027 14.7991 7.82275L16.4895 14.9282C16.5643 15.2274 16.594 15.4521 16.594 15.6167C16.594 15.9905 16.4891 16.1401 15.5168 16.1401C14.5146 16.1401 14.3348 16.0354 14.2151 15.4819L13.8713 13.9106H11.4631L11.134 15.4819C11.0144 16.0354 10.8345 16.1401 9.83228 16.1401C8.86007 16.1401 8.74053 15.9905 8.74048 15.6167C8.74048 15.4521 8.78482 15.2274 8.85962 14.9282L10.55 7.82275C10.7744 6.88036 11.1336 6.76028 12.6741 6.76025ZM11.8069 12.2202H13.5276L12.7795 8.63037H12.5696L11.8069 12.2202Z" fill="url(#paint0_linear_1502_4031)"/>
<defs>
<linearGradient id="paint0_linear_1502_4031" x1="3.50024" y1="20.8003" x2="21.9006" y2="20.8003" gradientUnits="userSpaceOnUse">
<stop stop-color="#FFE794"/>
<stop offset="0.999534" stop-color="#FFCD5A"/>
</linearGradient>
</defs>
</svg>
