<svg width="24" height="24" viewBox="0 0 24 24" fill="none" xmlns="http://www.w3.org/2000/svg">
<path d="M9.01591 4C9.04073 4.01349 10.2964 4.69313 11.5647 4.69336C12.8357 4.69336 14.108 4.01091 14.1282 4H15.1927C15.9707 4 16.6622 4.36635 17.1077 4.93457L19.9983 7.68262C20.9745 8.61085 21.0107 10.1556 20.0794 11.1289L18.3831 12.9023C18.1607 13.1347 17.9018 13.3101 17.6263 13.4346V17.5664C17.6262 18.9105 16.5367 20 15.1927 20H7.93779C6.59387 19.9998 5.50425 18.9103 5.50419 17.5664V13.4697C5.19981 13.3446 4.91505 13.156 4.67216 12.9023L2.9749 11.1289C2.04391 10.1556 2.0808 8.61075 3.05693 7.68262L6.16826 4.72461C6.31775 4.5825 6.48182 4.4649 6.65361 4.36816C7.02643 4.13594 7.46623 4.00006 7.93779 4H9.01591ZM7.93779 5.2002C7.70034 5.20026 7.47929 5.26783 7.28837 5.38672L7.26591 5.40039L7.24248 5.41406C7.1486 5.46693 7.06645 5.52719 6.99541 5.59473L3.88408 8.55273C3.38944 9.02315 3.37017 9.8056 3.84111 10.2988L5.53935 12.0723C5.66258 12.201 5.80576 12.2959 5.96025 12.3594L6.70439 12.665V17.5664C6.70445 18.2477 7.25669 18.7996 7.93779 18.7998H15.1927C15.8314 18.7998 16.3571 18.3146 16.4202 17.6924L16.4261 17.5664V12.6602L17.1321 12.3408C17.2789 12.2745 17.4079 12.1851 17.5159 12.0723L19.2122 10.2988C19.6842 9.80541 19.6662 9.02311 19.1722 8.55273L16.2815 5.80469L16.2181 5.74414L16.1634 5.6748C15.9343 5.38271 15.5845 5.2002 15.1927 5.2002H14.4056C14.2403 5.27659 14.0099 5.37631 13.7347 5.47559C13.1916 5.67139 12.4017 5.89355 11.5647 5.89355C10.3796 5.89339 9.25384 5.44085 8.73759 5.2002H7.93779ZM11.553 13.2393L13.6204 10.001L14.2942 10.4316L14.969 10.8623L12.2347 15.1475C12.0884 15.3764 11.8355 15.5154 11.5638 15.5166C11.292 15.5177 11.0382 15.381 10.8899 15.1533L8.10087 10.8682L9.44267 9.99512L11.553 13.2393Z" fill="url(#paint0_linear_1502_4019)"/>
<defs>
<linearGradient id="paint0_linear_1502_4019" x1="2.30005" y1="20" x2="20.7546" y2="20" gradientUnits="userSpaceOnUse">
<stop stop-color="#FFE794"/>
<stop offset="0.999534" stop-color="#FFCD5A"/>
</linearGradient>
</defs>
</svg>
