<svg preserveAspectRatio="none" width="100%" height="100%" overflow="visible" viewBox="0 0 30 30" fill="none" xmlns="http://www.w3.org/2000/svg">
<g id="&#231;&#188;&#150;&#231;&#187;&#132; 5">
<path id="Union" d="M14.5986 5V5.0498H19.168L19.3223 5.05371C20.9072 5.1342 22.168 6.44482 22.168 8.0498V8.21094H23.1787C24.6895 8.21094 25.9141 9.43551 25.9141 10.9463V19.0537C25.9141 20.5645 24.6895 21.7891 23.1787 21.7891H22.168V22L22.1641 22.1543C22.0863 23.6881 20.8561 24.9182 19.3223 24.9961L19.168 25H8.125L7.9707 24.9961C6.43672 24.9184 5.20672 23.6883 5.12891 22.1543L5.125 22V8.0498C5.125 6.39295 6.46815 5.0498 8.125 5.0498H8.2832V5H14.5986ZM8.125 6.5498C7.29657 6.5498 6.625 7.22138 6.625 8.0498V22C6.62511 22.8283 7.29664 23.5 8.125 23.5H19.168C19.9962 23.4998 20.6679 22.8282 20.668 22V8.0498C20.668 7.2215 19.9962 6.55 19.168 6.5498H14.5986V13.4004L11.4355 10.6143L8.2832 13.4004V6.5498H8.125ZM22.168 20.2109H23.1787C23.8175 20.2109 24.3359 19.6925 24.3359 19.0537V10.9463C24.3359 10.3075 23.8175 9.78906 23.1787 9.78906H22.168V20.2109Z" fill="#F0C178"/>
</g>

</svg>
