<svg preserveAspectRatio="none" width="100%" height="100%" overflow="visible" viewBox="0 0 30 30" fill="none" xmlns="http://www.w3.org/2000/svg">
<g id="&#231;&#188;&#150;&#231;&#187;&#132; 5">
<g id="Union">
<path d="M15.8752 2.9998C22.2264 2.99994 27.3752 8.14861 27.3752 14.4998C27.3752 20.851 22.2264 25.9997 15.8752 25.9998C9.52392 25.9998 4.3752 20.8511 4.3752 14.4998C4.3752 8.14853 9.52392 2.9998 15.8752 2.9998ZM15.8752 4.4998C10.3523 4.4998 5.8752 8.97696 5.8752 14.4998C5.8752 20.0227 10.3523 24.4998 15.8752 24.4998C21.3979 24.4997 25.8752 20.0226 25.8752 14.4998C25.8752 8.97704 21.3979 4.49994 15.8752 4.4998ZM15.843 8.45C17.7691 8.45 18.2177 8.60002 18.4982 9.77812L20.6115 18.66C20.705 19.0339 20.7424 19.3146 20.7424 19.5203C20.7424 19.9878 20.6112 20.1746 19.3957 20.1746C18.1432 20.1746 17.9183 20.044 17.7688 19.3523L17.3391 17.3885H14.3283L13.9172 19.3523C13.7676 20.044 13.5429 20.1746 12.2902 20.1746C11.0747 20.1746 10.925 19.9878 10.925 19.5203C10.925 19.3146 10.9809 19.0339 11.0744 18.66L13.1877 9.77812C13.4682 8.60005 13.917 8.45001 15.843 8.45ZM14.759 15.2752H16.9094L15.9738 10.7879H15.7121L14.759 15.2752Z" fill="#F0C178"/>
<path d="M15.8752 2.9998C22.2264 2.99994 27.3752 8.14861 27.3752 14.4998C27.3752 20.851 22.2264 25.9997 15.8752 25.9998C9.52392 25.9998 4.3752 20.8511 4.3752 14.4998C4.3752 8.14853 9.52392 2.9998 15.8752 2.9998ZM15.8752 4.4998C10.3523 4.4998 5.8752 8.97696 5.8752 14.4998C5.8752 20.0227 10.3523 24.4998 15.8752 24.4998C21.3979 24.4997 25.8752 20.0226 25.8752 14.4998C25.8752 8.97704 21.3979 4.49994 15.8752 4.4998ZM15.843 8.45C17.7691 8.45 18.2177 8.60002 18.4982 9.77812L20.6115 18.66C20.705 19.0339 20.7424 19.3146 20.7424 19.5203C20.7424 19.9878 20.6112 20.1746 19.3957 20.1746C18.1432 20.1746 17.9183 20.044 17.7688 19.3523L17.3391 17.3885H14.3283L13.9172 19.3523C13.7676 20.044 13.5429 20.1746 12.2902 20.1746C11.0747 20.1746 10.925 19.9878 10.925 19.5203C10.925 19.3146 10.9809 19.0339 11.0744 18.66L13.1877 9.77812C13.4682 8.60005 13.917 8.45001 15.843 8.45ZM14.759 15.2752H16.9094L15.9738 10.7879H15.7121L14.759 15.2752Z" fill="#F0C178"/>
</g>
</g>

</svg>
