<svg width="24" height="24" viewBox="0 0 24 24" fill="none" xmlns="http://www.w3.org/2000/svg">
<path d="M17.9951 3.65479C19.5995 3.65499 20.9004 4.95567 20.9004 6.56006V9.84033C18.8066 10.0863 18.8069 13.1252 20.9004 13.3735V16.6401C20.9004 18.2445 19.5995 19.5452 17.9951 19.5454H5.40527C3.80078 19.5454 2.50002 18.2446 2.5 16.6401V13.4155C4.44542 13.0292 4.44566 10.2468 2.5 9.86182V6.56006C2.50002 4.95556 3.80078 3.65481 5.40527 3.65479H17.9951ZM5.40527 4.90869C4.49364 4.90871 3.75491 5.64843 3.75488 6.56006V9.00732C5.70153 10.1464 5.6984 13.1276 3.75488 14.2681V16.6401C3.75491 17.5518 4.49364 18.2905 5.40527 18.2905H17.9951C18.9066 18.2903 19.6455 17.5517 19.6455 16.6401V14.2876C17.5565 13.2091 17.5487 9.99749 19.6455 8.92236V6.56006C19.6455 5.64854 18.9066 4.9089 17.9951 4.90869H5.40527ZM9.05371 8.62451C9.54352 8.62458 9.89207 8.74829 10.0986 8.99561C10.3076 9.24065 10.4121 9.64604 10.4121 10.2104C10.4121 10.5201 10.3722 10.7955 10.293 11.0356C10.2162 11.273 10.088 11.4547 9.9082 11.5796C10.0161 11.6565 10.1073 11.7698 10.1816 11.9185C10.2584 12.0673 10.3161 12.2381 10.3545 12.4302C10.3953 12.6223 10.416 12.8244 10.416 13.0356V13.4712C10.416 14.0282 10.3042 14.4429 10.0811 14.7144C9.8601 14.9833 9.51717 15.1186 9.05371 15.1187C8.59253 15.1187 8.24626 14.9848 8.01562 14.7183C7.7851 14.4493 7.66997 14.0397 7.66992 13.4897V13.0356C7.66993 12.8219 7.69061 12.6184 7.73145 12.4263C7.77228 12.2342 7.83137 12.0649 7.9082 11.9185C7.98746 11.7696 8.08344 11.6564 8.19629 11.5796C8.01852 11.4523 7.88832 11.2681 7.80664 11.0278C7.72746 10.7878 7.68753 10.5153 7.6875 10.2104C7.68751 9.65795 7.79499 9.25468 8.00879 9.00244C8.22504 8.75057 8.57359 8.62451 9.05371 8.62451ZM15.501 9.56494H14.0449V10.8521C14.0906 10.7609 14.1731 10.6881 14.293 10.6353C14.413 10.5801 14.5434 10.5522 14.6826 10.5522C14.937 10.5523 15.1357 10.627 15.2773 10.7759C15.4214 10.9248 15.5224 11.1532 15.5801 11.4604C15.6401 11.7679 15.6699 12.1597 15.6699 12.6353V12.7651C15.6699 13.1639 15.6563 13.5117 15.6299 13.8071C15.6035 14.1022 15.5472 14.3471 15.4609 14.5415C15.3769 14.7336 15.248 14.878 15.0752 14.9741C14.9024 15.0677 14.6681 15.1147 14.373 15.1147C14.0754 15.1147 13.8334 15.0621 13.6484 14.9565C13.4636 14.8485 13.3277 14.6969 13.2412 14.5024C13.1572 14.3056 13.1153 14.0736 13.1152 13.8071V13.0103H14.0195V13.7056C14.0195 13.8713 14.0402 14.0106 14.0811 14.1235C14.1219 14.234 14.2193 14.2896 14.373 14.2896C14.5095 14.2893 14.603 14.2374 14.6533 14.1343C14.706 14.031 14.7334 13.8751 14.7334 13.6665V12.0444C14.7334 11.838 14.7112 11.6722 14.668 11.5474C14.6248 11.4202 14.5286 11.3561 14.3799 11.356C14.26 11.356 14.1674 11.4068 14.1025 11.5073C14.0377 11.6082 14.0049 11.7634 14.0049 11.9722L13.1543 11.9009V8.70068H15.501V9.56494ZM12.1064 15.0425H11.2949V14.1567H12.1064V15.0425ZM9.05762 11.9575C8.92797 11.9575 8.8234 12.041 8.74414 12.2065C8.6673 12.3698 8.62894 12.6124 8.62891 12.9341V13.4644C8.62892 13.7548 8.65372 13.966 8.7041 14.0981C8.75456 14.2278 8.87265 14.2935 9.05762 14.2935C9.17734 14.2933 9.26516 14.2641 9.32031 14.2065C9.37781 14.1465 9.4143 14.0539 9.42871 13.9292C9.44551 13.8043 9.4541 13.6442 9.4541 13.4497V12.9312C9.45409 12.6167 9.42121 12.3762 9.35645 12.2104C9.29409 12.0426 9.1942 11.9578 9.05762 11.9575ZM9.0498 9.37451C8.95644 9.37456 8.87928 9.398 8.81934 9.4458C8.76176 9.49138 8.71979 9.58058 8.69336 9.7124C8.66694 9.84452 8.65332 10.0424 8.65332 10.3042C8.65333 10.5777 8.66849 10.7876 8.69727 10.9341C8.72848 11.0805 8.77397 11.1815 8.83398 11.2368C8.89394 11.2919 8.96592 11.3198 9.0498 11.3198C9.13372 11.3197 9.20513 11.292 9.2627 11.2368C9.32251 11.1791 9.36825 11.0772 9.39941 10.9312C9.43302 10.7822 9.4502 10.5702 9.4502 10.2964C9.45019 10.0251 9.43657 9.82451 9.41016 9.69482C9.38376 9.56288 9.34172 9.47596 9.28418 9.43506C9.22662 9.39438 9.14799 9.37456 9.0498 9.37451Z" fill="url(#paint0_linear_1502_4013)"/>
<defs>
<linearGradient id="paint0_linear_1502_4013" x1="2.90001" y1="19.2001" x2="20.5004" y2="19.2001" gradientUnits="userSpaceOnUse">
<stop stop-color="#FFE794"/>
<stop offset="0.999534" stop-color="#FFCD5A"/>
</linearGradient>
</defs>
</svg>
