<svg preserveAspectRatio="none" width="100%" height="100%" overflow="visible" viewBox="0 0 30 30" fill="none" xmlns="http://www.w3.org/2000/svg">
<g id="&#231;&#188;&#150;&#231;&#187;&#132; 5">
<path id="Union" d="M10.8604 6C11.0889 6 11.278 6.17976 11.3477 6.39746C11.481 6.81463 11.1938 7.5 10.7559 7.5H6C5.17174 7.5002 4.5 8.17169 4.5 9V22C4.5 22.8283 5.17174 23.4998 6 23.5H25C25.8283 23.4998 26.5 22.8283 26.5 22V9C26.5 8.17169 25.8283 7.5002 25 7.5H19.7314C19.5448 7.5 19.4535 7.27188 19.5889 7.14355C20.1448 6.6167 20.7702 6 21.5361 6H25L25.1543 6.00391C26.7393 6.0844 28 7.39502 28 9V22C28 23.6567 26.6567 24.9998 25 25H6C4.34331 24.9998 3 23.6567 3 22V9C3 7.39502 4.26073 6.0844 5.8457 6.00391L6 6H10.8604ZM13.5293 12.1738C13.9424 12.1738 14.2764 12.251 14.5312 12.4062C14.7891 12.5615 14.9785 12.792 15.0986 13.0967C15.2186 13.3983 15.2783 13.7718 15.2783 14.2168V17.9131C15.2783 18.2557 15.2461 18.5617 15.1816 18.8311C15.1172 19.1005 15.0165 19.3291 14.8789 19.5166C14.7412 19.7041 14.5605 19.8477 14.3379 19.9473C14.1152 20.0439 13.8457 20.0928 13.5293 20.0928C13.1074 20.0928 12.7676 20.0059 12.5098 19.833C12.2549 19.6602 12.0693 19.4111 11.9521 19.0859C11.8379 18.7609 11.7803 18.3699 11.7803 17.9131V14.2168C11.7803 13.7717 11.839 13.3984 11.9561 13.0967C12.0762 12.792 12.2656 12.5615 12.5234 12.4062C12.7812 12.2511 13.1164 12.1738 13.5293 12.1738ZM17.9678 12.1738C18.3809 12.1738 18.7148 12.251 18.9697 12.4062C19.2275 12.5615 19.417 12.792 19.5371 13.0967C19.6571 13.3983 19.7168 13.7718 19.7168 14.2168V17.9131C19.7168 18.2557 19.6845 18.5617 19.6201 18.8311C19.5557 19.1005 19.455 19.3291 19.3174 19.5166C19.1797 19.7041 18.999 19.8477 18.7764 19.9473C18.5537 20.0439 18.2842 20.0928 17.9678 20.0928C17.5459 20.0928 17.2061 20.0059 16.9482 19.833C16.6934 19.6602 16.5078 19.4111 16.3906 19.0859C16.2764 18.7609 16.2188 18.3699 16.2188 17.9131V14.2168C16.2188 13.7717 16.2775 13.3984 16.3945 13.0967C16.5146 12.792 16.7041 12.5615 16.9619 12.4062C17.2197 12.2511 17.5549 12.1738 17.9678 12.1738ZM22.4062 12.1738C22.8193 12.1738 23.1533 12.251 23.4082 12.4062C23.666 12.5615 23.8555 12.792 23.9756 13.0967C24.0955 13.3983 24.1553 13.7718 24.1553 14.2168V17.9131C24.1552 18.2557 24.123 18.5617 24.0586 18.8311C23.9942 19.1005 23.8935 19.3291 23.7559 19.5166C23.6182 19.7041 23.4375 19.8477 23.2148 19.9473C22.9922 20.0439 22.7227 20.0928 22.4062 20.0928C21.9844 20.0928 21.6445 20.0059 21.3867 19.833C21.1319 19.6602 20.9463 19.4111 20.8291 19.0859C20.7149 18.7609 20.6573 18.3699 20.6572 17.9131V14.2168C20.6572 13.7717 20.7159 13.3984 20.833 13.0967C20.9531 12.792 21.1426 12.5615 21.4004 12.4062C21.6582 12.2511 21.9934 12.1738 22.4062 12.1738ZM10.6689 20H9.49121V13.7246C9.4209 13.8066 9.33105 13.877 9.22266 13.9355C9.11436 13.9912 8.99889 14.0342 8.87598 14.0635C8.75604 14.0898 8.64146 14.1025 8.5332 14.1025V13.2285C8.68834 13.2051 8.84389 13.1552 8.99902 13.0791C9.15715 13 9.30181 12.8925 9.43359 12.7578C9.56543 12.623 9.67285 12.459 9.75488 12.2656H10.6689V20ZM13.5254 13.1885C13.4259 13.1885 13.3319 13.2091 13.2441 13.25C13.1592 13.291 13.0889 13.3809 13.0332 13.5186C12.9805 13.6563 12.9541 13.8713 12.9541 14.1641V17.9346C12.9541 18.1836 12.9658 18.3848 12.9893 18.5371C13.0156 18.6863 13.0538 18.8009 13.1035 18.8799C13.1532 18.9587 13.2131 19.0118 13.2832 19.0381C13.3535 19.0644 13.4346 19.0771 13.5254 19.0771C13.6101 19.0771 13.6877 19.0644 13.7578 19.0381C13.8281 19.0088 13.8887 18.9541 13.9385 18.875C13.9911 18.7959 14.0303 18.6815 14.0566 18.5322C14.0859 18.3799 14.1006 18.1807 14.1006 17.9346V14.1689C14.1006 13.8818 14.0742 13.6689 14.0215 13.5312C13.9688 13.3907 13.8983 13.2989 13.8105 13.2549C13.7228 13.211 13.6277 13.1885 13.5254 13.1885ZM17.9639 13.1885C17.8644 13.1885 17.7704 13.2091 17.6826 13.25C17.5977 13.291 17.5273 13.3809 17.4717 13.5186C17.419 13.6563 17.3926 13.8713 17.3926 14.1641V17.9346C17.3926 18.1836 17.4043 18.3848 17.4277 18.5371C17.4541 18.6863 17.4922 18.8009 17.542 18.8799C17.5917 18.9587 17.6515 19.0118 17.7217 19.0381C17.792 19.0644 17.8731 19.0771 17.9639 19.0771C18.0486 19.0771 18.1262 19.0644 18.1963 19.0381C18.2666 19.0088 18.3271 18.9541 18.377 18.875C18.4296 18.7959 18.4688 18.6815 18.4951 18.5322C18.5244 18.3799 18.5391 18.1807 18.5391 17.9346V14.1689C18.5391 13.8818 18.5127 13.6689 18.46 13.5312C18.4073 13.3907 18.3368 13.2989 18.249 13.2549C18.1613 13.211 18.0662 13.1885 17.9639 13.1885ZM22.4023 13.1885C22.3029 13.1885 22.2089 13.2091 22.1211 13.25C22.0361 13.291 21.9658 13.3809 21.9102 13.5186C21.8575 13.6563 21.8311 13.8713 21.8311 14.1641V17.9346C21.8311 18.1836 21.8428 18.3848 21.8662 18.5371C21.8926 18.6863 21.9307 18.8009 21.9805 18.8799C22.0302 18.9587 22.09 19.0118 22.1602 19.0381C22.2304 19.0644 22.3116 19.0771 22.4023 19.0771C22.487 19.0771 22.5646 19.0644 22.6348 19.0381C22.7051 19.0088 22.7656 18.9541 22.8154 18.875C22.8681 18.7959 22.9073 18.6815 22.9336 18.5322C22.9629 18.3799 22.9775 18.1807 22.9775 17.9346V14.1689C22.9775 13.8818 22.9512 13.6689 22.8984 13.5312C22.8457 13.3907 22.7753 13.2989 22.6875 13.2549C22.5997 13.211 22.5047 13.1885 22.4023 13.1885ZM18.3115 1.5C18.9039 1.5 19.2808 2.13376 18.998 2.6543L17.7002 5.04297H18.1543C18.6839 5.04305 18.9412 5.69049 18.5566 6.05469L14.3721 10.0176C13.9385 10.4281 13.2405 10.0032 13.4062 9.42969L14.2783 6.41797L13.4287 6.41992C13.0075 6.4208 12.6853 6.04386 12.752 5.62793L13.2822 2.32227C13.3581 1.84869 13.7665 1.50005 14.2461 1.5H18.3115Z" fill="#F0C178"/>
</g>

</svg>
