<svg preserveAspectRatio="none" width="100%" height="100%" overflow="visible" viewBox="0 0 30 30" fill="none" xmlns="http://www.w3.org/2000/svg">
<g id="&#231;&#188;&#150;&#231;&#187;&#132; 5">
<path id="Union" d="M22.1514 5C24.0698 5.00003 25.625 6.55521 25.625 8.47363V12.3955C23.1216 12.6896 23.1219 16.3232 25.625 16.6201V20.5264C25.625 22.4448 24.0698 24 22.1514 24H7.09863C5.18021 24 3.62503 22.4448 3.625 20.5264V16.6709C5.95109 16.2091 5.95135 12.8822 3.625 12.4219V8.47363C3.62503 6.55521 5.18021 5.00003 7.09863 5H22.1514ZM7.09863 6.5C6.00864 6.50003 5.12503 7.38364 5.125 8.47363V11.4004C7.45266 12.7623 7.44888 16.3259 5.125 17.6895V20.5264C5.12503 21.6164 6.00864 22.5 7.09863 22.5H22.1514C23.2414 22.5 24.125 21.6164 24.125 20.5264V17.7129C21.6272 16.4233 21.6177 12.5832 24.125 11.2979V8.47363C24.125 7.38364 23.2414 6.50003 22.1514 6.5H7.09863ZM10.6875 10C11.418 10 11.9372 10.1849 12.2451 10.5537C12.5565 10.919 12.7129 11.522 12.7129 12.3633C12.7129 12.8252 12.6533 13.2357 12.5352 13.5938C12.4206 13.9479 12.2292 14.2182 11.9609 14.4043C12.1219 14.5189 12.2582 14.6873 12.3691 14.9092C12.4837 15.1311 12.5697 15.3855 12.627 15.6719C12.6878 15.9583 12.7178 16.2592 12.7178 16.5742V17.2246C12.7177 18.0549 12.5516 18.6726 12.2188 19.0771C11.8893 19.4782 11.3786 19.6787 10.6875 19.6787C10.0002 19.6787 9.48437 19.4803 9.14062 19.083C8.79688 18.682 8.625 18.071 8.625 17.251V16.5742C8.625 16.2557 8.65598 15.9533 8.7168 15.667C8.77767 15.3805 8.86491 15.1276 8.97949 14.9092C9.09766 14.6872 9.24089 14.5189 9.40918 14.4043C9.14431 14.2146 8.95086 13.9409 8.8291 13.583C8.71094 13.2249 8.65234 12.818 8.65234 12.3633C8.65234 11.5399 8.81136 10.9404 9.12988 10.5645C9.45215 10.1885 9.97135 10 10.6875 10ZM20.2969 11.4023H18.127V13.3193C18.195 13.1834 18.3181 13.0758 18.4971 12.9971C18.6761 12.9147 18.8695 12.874 19.0771 12.874C19.4567 12.874 19.7526 12.985 19.9639 13.207C20.1785 13.429 20.3292 13.7695 20.415 14.2275C20.5045 14.6858 20.5488 15.2698 20.5488 15.9785V16.1719C20.5488 16.7661 20.5296 17.2833 20.4902 17.7236C20.4508 18.1641 20.3662 18.5293 20.2373 18.8193C20.112 19.1057 19.9207 19.3206 19.6631 19.4639C19.4053 19.6035 19.0557 19.6738 18.6152 19.6738C18.1715 19.6738 17.8118 19.5948 17.5361 19.4375C17.2605 19.2764 17.0576 19.0506 16.9287 18.7607C16.8034 18.4671 16.7412 18.1211 16.7412 17.7236V16.5371H18.0889V17.5732C18.0889 17.8203 18.1198 18.028 18.1807 18.1963C18.2416 18.3609 18.3861 18.4434 18.6152 18.4434C18.8192 18.4434 18.9589 18.3666 19.0342 18.2129C19.1129 18.059 19.1523 17.8259 19.1523 17.5146V15.0977C19.1523 14.79 19.12 14.5426 19.0557 14.3564C18.9912 14.1667 18.848 14.0713 18.626 14.0713C18.447 14.0713 18.3096 14.1466 18.2129 14.2969C18.1162 14.4473 18.0674 14.6787 18.0674 14.9902L16.7998 14.8828V10.1133H20.2969V11.4023ZM15.2373 19.5664H14.0283V18.2451H15.2373V19.5664ZM10.6934 14.9688C10.5 14.9688 10.3438 15.0918 10.2256 15.3389C10.111 15.5824 10.0537 15.944 10.0537 16.4238V17.2139C10.0537 17.6469 10.0918 17.9623 10.167 18.1592C10.2423 18.3521 10.4179 18.4492 10.6934 18.4492C10.872 18.4491 11.0027 18.406 11.085 18.3203C11.1709 18.2308 11.2246 18.0924 11.2461 17.9062C11.2711 17.7202 11.2842 17.4822 11.2842 17.1924V16.4189C11.2842 15.9501 11.2352 15.5918 11.1387 15.3447C11.0456 15.0943 10.8972 14.9689 10.6934 14.9688ZM10.6826 11.1172C10.5431 11.1172 10.4283 11.1532 10.3389 11.2246C10.2529 11.2926 10.1898 11.4251 10.1504 11.6221C10.111 11.819 10.0918 12.1126 10.0918 12.5029C10.0918 12.9111 10.1133 13.2249 10.1562 13.4434C10.2028 13.6615 10.2709 13.8122 10.3604 13.8945C10.4498 13.9766 10.5575 14.0176 10.6826 14.0176C10.8076 14.0175 10.9132 13.9766 10.999 13.8945C11.0885 13.8086 11.1566 13.6559 11.2031 13.4375C11.2533 13.2155 11.2783 12.9004 11.2783 12.4922C11.2783 12.088 11.259 11.7891 11.2197 11.5957C11.1804 11.3989 11.1171 11.2699 11.0312 11.209C10.9454 11.1482 10.8292 11.1173 10.6826 11.1172Z" fill="#F0C178"/>
</g>

</svg>
