<svg width="24" height="24" viewBox="0 0 24 24" fill="none" xmlns="http://www.w3.org/2000/svg">
<path d="M8.68799 4.7998C8.87091 4.7998 9.02183 4.94397 9.07764 5.11816C9.18432 5.45184 8.95515 5.99961 8.60498 6H4.80029C4.13775 6.00016 3.6002 6.53764 3.6001 7.2002V17.5996C3.6001 18.2623 4.13769 18.7996 4.80029 18.7998H19.9995C20.6621 18.7996 21.1997 18.2622 21.1997 17.5996V7.2002C21.1996 6.53766 20.662 6.0002 19.9995 6H15.7847C15.6353 6 15.5621 5.81761 15.6704 5.71484C16.1154 5.29328 16.6161 4.7998 17.229 4.7998H19.9995C21.3248 4.8 22.3998 5.87492 22.3999 7.2002V17.5996C22.3999 18.842 21.4555 19.8641 20.2456 19.9873L19.9995 20H4.80029L4.5542 19.9873C3.34429 19.8641 2.3999 18.842 2.3999 17.5996V7.2002C2.4 5.95785 3.34434 4.93568 4.5542 4.8125L4.80029 4.7998H8.68799ZM9.79932 9.59961C10.1294 9.59967 10.3973 9.66207 10.6011 9.78613C10.8071 9.91031 10.9591 10.0944 11.0552 10.3379C11.1512 10.5792 11.1987 10.8784 11.1987 11.2344V14.1914C11.1987 14.4654 11.1731 14.7103 11.1216 14.9258C11.0701 15.1412 10.9894 15.3247 10.8794 15.4746C10.7693 15.6245 10.6247 15.7397 10.4468 15.8193C10.2688 15.8966 10.0522 15.9355 9.79932 15.9355C9.46218 15.9355 9.19002 15.8656 8.98389 15.7275C8.78014 15.5893 8.63132 15.3899 8.5376 15.1299C8.44623 14.8698 8.40088 14.5569 8.40088 14.1914V11.2344C8.40091 10.8783 8.44779 10.5792 8.5415 10.3379C8.63761 10.0945 8.78856 9.91024 8.99463 9.78613C9.20074 9.66214 9.46926 9.59966 9.79932 9.59961ZM13.8013 9.59961C14.1315 9.59967 14.3992 9.66198 14.603 9.78613C14.809 9.91028 14.9601 10.0945 15.0562 10.3379C15.1522 10.5792 15.2006 10.8784 15.2007 11.2344V14.1914C15.2007 14.4654 15.175 14.7103 15.1235 14.9258C15.072 15.1413 14.9904 15.3247 14.8804 15.4746C14.7703 15.6244 14.6257 15.7397 14.4478 15.8193C14.2698 15.8965 14.054 15.9355 13.8013 15.9355C13.464 15.9355 13.192 15.8657 12.9858 15.7275C12.782 15.5893 12.6333 15.39 12.5396 15.1299C12.4482 14.8697 12.4019 14.557 12.4019 14.1914V11.2344C12.4019 10.8783 12.4488 10.5792 12.5425 10.3379C12.6386 10.0944 12.7905 9.91028 12.9966 9.78613C13.2027 9.66221 13.4712 9.59961 13.8013 9.59961ZM17.7993 9.59961C18.1294 9.59967 18.3973 9.66207 18.6011 9.78613C18.8071 9.91031 18.9591 10.0944 19.0552 10.3379C19.1512 10.5792 19.1987 10.8784 19.1987 11.2344V14.1914C19.1987 14.4654 19.1731 14.7103 19.1216 14.9258C19.0701 15.1412 18.9894 15.3247 18.8794 15.4746C18.7693 15.6245 18.6247 15.7397 18.4468 15.8193C18.2688 15.8966 18.0522 15.9355 17.7993 15.9355C17.4622 15.9355 17.19 15.8656 16.9839 15.7275C16.7801 15.5893 16.6313 15.3899 16.5376 15.1299C16.4462 14.8698 16.4009 14.5569 16.4009 14.1914V11.2344C16.4009 10.8783 16.4478 10.5792 16.5415 10.3379C16.6376 10.0945 16.7886 9.91024 16.9946 9.78613C17.2007 9.66214 17.4693 9.59966 17.7993 9.59961ZM7.30908 15.7881H6.3667V10.7676C6.31058 10.833 6.23923 10.8898 6.15283 10.9365C6.06625 10.981 5.97278 11.0147 5.87451 11.0381C5.77889 11.0591 5.68741 11.0693 5.60107 11.0693V10.3701C5.72489 10.3513 5.84933 10.3117 5.97314 10.251C6.09956 10.1877 6.21642 10.1018 6.32178 9.99414C6.42698 9.88651 6.51211 9.75489 6.57764 9.60059H7.30908V15.7881ZM9.79639 10.4121C9.71685 10.4121 9.641 10.4283 9.5708 10.4609C9.50297 10.4938 9.44731 10.5659 9.40283 10.6758C9.36066 10.7859 9.33937 10.9581 9.33936 11.1924V14.209C9.33936 14.4081 9.34894 14.5686 9.36768 14.6904C9.38876 14.8099 9.41869 14.9016 9.4585 14.9648C9.49831 15.028 9.54684 15.0707 9.60303 15.0918C9.65911 15.1127 9.72404 15.123 9.79639 15.123C9.86409 15.123 9.92685 15.1128 9.98291 15.0918C10.0389 15.0683 10.0868 15.024 10.1265 14.9609C10.1685 14.8978 10.2001 14.8066 10.2212 14.6875C10.2446 14.5656 10.2563 14.4058 10.2563 14.209V11.1963C10.2563 10.9669 10.2359 10.7967 10.1938 10.6865C10.1518 10.5743 10.095 10.5001 10.0249 10.4648C9.95479 10.4298 9.87816 10.4122 9.79639 10.4121ZM13.7974 10.4121C13.718 10.4122 13.6428 10.4284 13.5728 10.4609C13.5048 10.4937 13.4483 10.5657 13.4038 10.6758C13.3616 10.7859 13.3403 10.9582 13.3403 11.1924V14.209C13.3403 14.4081 13.3499 14.5686 13.3687 14.6904C13.3897 14.8099 13.4206 14.9016 13.4604 14.9648C13.5002 15.0279 13.5479 15.0707 13.604 15.0918C13.6601 15.1127 13.7251 15.123 13.7974 15.123C13.865 15.123 13.9279 15.1128 13.9839 15.0918C14.04 15.0683 14.0887 15.0241 14.1284 14.9609C14.1704 14.8977 14.2021 14.8065 14.2231 14.6875C14.2466 14.5656 14.2583 14.4058 14.2583 14.209V11.1963C14.2583 10.9668 14.2369 10.7967 14.1948 10.6865C14.1527 10.5742 14.096 10.5001 14.0259 10.4648C13.9558 10.4299 13.8791 10.4122 13.7974 10.4121ZM17.7964 10.4121C17.7169 10.4121 17.641 10.4283 17.5708 10.4609C17.503 10.4938 17.4473 10.5659 17.4028 10.6758C17.3607 10.7859 17.3394 10.9581 17.3394 11.1924V14.209C17.3394 14.4081 17.3489 14.5686 17.3677 14.6904C17.3888 14.8099 17.4187 14.9016 17.4585 14.9648C17.4983 15.028 17.5468 15.0707 17.603 15.0918C17.6591 15.1127 17.724 15.123 17.7964 15.123C17.8641 15.123 17.9268 15.1128 17.9829 15.0918C18.0389 15.0683 18.0868 15.024 18.1265 14.9609C18.1685 14.8978 18.2001 14.8066 18.2212 14.6875C18.2446 14.5656 18.2563 14.4058 18.2563 14.209V11.1963C18.2563 10.9669 18.2359 10.7967 18.1938 10.6865C18.1518 10.5743 18.095 10.5001 18.0249 10.4648C17.9548 10.4298 17.8782 10.4122 17.7964 10.4121ZM14.6489 1.2002C15.1227 1.2002 15.4247 1.70667 15.1987 2.12305L14.1597 4.03516H14.5229C14.9467 4.03516 15.1529 4.55238 14.8452 4.84375L11.4976 8.01465C11.1507 8.34269 10.5927 8.00255 10.7251 7.54395L11.4224 5.13477L10.7427 5.13574C10.4058 5.13635 10.1483 4.83465 10.2017 4.50195L10.6255 1.85742C10.6863 1.4786 11.0133 1.2002 11.397 1.2002H14.6489Z" fill="url(#paint0_linear_1502_4006)"/>
<defs>
<linearGradient id="paint0_linear_1502_4006" x1="2.3999" y1="20.0002" x2="22.3999" y2="20.0002" gradientUnits="userSpaceOnUse">
<stop stop-color="#FFE794"/>
<stop offset="0.999534" stop-color="#FFCD5A"/>
</linearGradient>
</defs>
</svg>
