<svg width="24" height="24" viewBox="0 0 24 24" fill="none" xmlns="http://www.w3.org/2000/svg">
<path d="M6.75 10.5H20C20 10.5 18.5 9 18.5 7.5C18.5 6 20 5 20 5H6.75C5.23122 5 4 6.23122 4 7.75C4 9.26878 5.23122 10.5 6.75 10.5Z" stroke="black" stroke-width="1.34" stroke-linejoin="round"/>
<path d="M14.5947 12.8301C14.0266 13.1842 13.5285 13.6392 13.124 14.1699H6.75C5.60125 14.1699 4.66992 15.1012 4.66992 16.25C4.66992 17.3988 5.60125 18.3301 6.75 18.3301H12.0625C12.1335 18.7988 12.2639 19.2479 12.4453 19.6699H6.75C4.86119 19.6699 3.33008 18.1388 3.33008 16.25C3.33008 14.3612 4.86119 12.8301 6.75 12.8301H14.5947Z" fill="black"/>
<path d="M20 17L15.5 17" stroke="black" stroke-width="1.34" stroke-linecap="round" stroke-linejoin="round"/>
<path d="M17.745 14.755V19.255" stroke="black" stroke-width="1.34" stroke-linecap="round" stroke-linejoin="round"/>
</svg>
