<svg width="30" height="21" viewBox="0 0 30 21" fill="none" xmlns="http://www.w3.org/2000/svg">
<g id="Union">
<mask id="path-2-inside-1_0_1" fill="white">
<path d="M16.5 17H4C1.79086 17 8.05332e-09 15.2091 0 13V4C0 1.79086 1.79086 1.12745e-07 4 0H26C28.2091 0 30 1.79086 30 4V13C30 15.2091 28.2091 17 26 17H21.665L16.5 21V17Z"/>
</mask>
<path d="M16.5 17H4C1.79086 17 8.05332e-09 15.2091 0 13V4C0 1.79086 1.79086 1.12745e-07 4 0H26C28.2091 0 30 1.79086 30 4V13C30 15.2091 28.2091 17 26 17H21.665L16.5 21V17Z" fill="url(#paint0_linear_0_1)"/>
<path d="M16.5 17H17.1V16.4H16.5V17ZM0 13H-0.6H0ZM4 0V-0.6V-0.6V0ZM30 4H30.6H30ZM26 17V17.6V17.6V17ZM21.665 17V16.4H21.4599L21.2977 16.5256L21.665 17ZM16.5 21H15.9V22.2236L16.8674 21.4744L16.5 21ZM16.5 17V16.4H4V17V17.6H16.5V17ZM4 17V16.4C2.12223 16.4 0.6 14.8778 0.6 13H0H-0.6C-0.6 15.5405 1.45949 17.6 4 17.6V17ZM0 13H0.6V4H0H-0.6V13H0ZM0 4H0.6C0.6 2.12223 2.12223 0.6 4 0.6V0V-0.6C1.45949 -0.6 -0.6 1.45949 -0.6 4H0ZM4 0V0.6H26V0V-0.6H4V0ZM26 0V0.6C27.8778 0.6 29.4 2.12223 29.4 4H30H30.6C30.6 1.45949 28.5405 -0.6 26 -0.6V0ZM30 4H29.4V13H30H30.6V4H30ZM30 13H29.4C29.4 14.8778 27.8778 16.4 26 16.4V17V17.6C28.5405 17.6 30.6 15.5405 30.6 13H30ZM26 17V16.4H21.665V17V17.6H26V17ZM21.665 17L21.2977 16.5256L16.1326 20.5256L16.5 21L16.8674 21.4744L22.0324 17.4744L21.665 17ZM16.5 21H17.1V17H16.5H15.9V21H16.5Z" fill="url(#paint1_linear_0_1)" mask="url(#path-2-inside-1_0_1)"/>
</g>
<defs>
<linearGradient id="paint0_linear_0_1" x1="15" y1="2.5" x2="15" y2="13.5" gradientUnits="userSpaceOnUse">
<stop stop-color="#FFFBBD"/>
<stop offset="1" stop-color="#FFDA8A"/>
</linearGradient>
<linearGradient id="paint1_linear_0_1" x1="15" y1="0" x2="15" y2="21" gradientUnits="userSpaceOnUse">
<stop stop-color="#FFDB4C"/>
<stop offset="1" stop-color="#F50010"/>
</linearGradient>
</defs>
</svg>
