<svg preserveAspectRatio="none" width="100%" height="100%" overflow="visible" style="display: block;" viewBox="0 0 12 12" fill="none" xmlns="http://www.w3.org/2000/svg">
<g id="Frame" opacity="0.5">
<path id="Union" d="M2.40039 5.59961C2.53843 5.59974 2.66052 5.66978 2.73242 5.77637C2.74665 5.7974 2.75849 5.82013 2.76855 5.84375C2.77874 5.86772 2.78661 5.89286 2.79199 5.91895C2.79737 5.94501 2.80075 5.97235 2.80078 6C2.80099 7.767 4.233 9.19998 6 9.2002C6.86322 9.20009 7.64675 8.85867 8.22266 8.30273C8.38151 8.14956 8.63468 8.1539 8.78809 8.3125C8.94112 8.47147 8.93712 8.7256 8.77832 8.87891C8.05929 9.57294 7.07865 9.9999 6 10C4.69202 9.99988 3.53064 9.37121 2.80078 8.40039V9.2002C2.80068 9.42089 2.62106 9.5994 2.40039 9.59961C2.17954 9.59961 2.00011 9.42102 2 9.2002V6C2 5.97224 2.00242 5.94512 2.00781 5.91895L2.03125 5.84473V5.84375C2.04136 5.81996 2.05404 5.79755 2.06836 5.77637C2.09712 5.73394 2.13327 5.69665 2.17578 5.66797C2.23974 5.62466 2.31743 5.59961 2.40039 5.59961ZM6 2C7.30799 2.00013 8.46947 2.62769 9.19922 3.59863V2.7998C9.19932 2.57911 9.37894 2.39963 9.59961 2.39941C9.82046 2.39941 9.99989 2.57898 10 2.7998V6C9.99996 6.07536 9.97773 6.14497 9.94141 6.20508C9.91132 6.25516 9.87148 6.29837 9.82324 6.33105C9.80203 6.34533 9.77969 6.3581 9.75586 6.36816C9.70813 6.38845 9.65572 6.40031 9.60059 6.40039C9.5177 6.40039 9.4399 6.37527 9.37598 6.33203C9.33343 6.30338 9.29735 6.26605 9.26855 6.22363C9.25422 6.20247 9.24157 6.18002 9.23145 6.15625C9.21102 6.10832 9.19925 6.0554 9.19922 6V5.9668C9.18141 4.21492 7.75604 2.80099 6 2.80078C5.09608 2.80089 4.28059 3.17514 3.69824 3.77832C3.54494 3.93712 3.2908 3.94112 3.13184 3.78809C2.97317 3.63467 2.96884 3.38153 3.12207 3.22266C3.84894 2.46968 4.87011 2.00011 6 2Z" fill="var(--fill-0, white)" style="fill:white;fill-opacity:1;"/>
</g>
</svg>
