<svg preserveAspectRatio="none" width="100%" height="100%" overflow="visible" style="display: block;" viewBox="0 0 18.5769 16.3402" fill="none" xmlns="http://www.w3.org/2000/svg">
<g id="&#231;&#188;&#150;&#231;&#187;&#132; 6">
<path id="&#232;&#183;&#175;&#229;&#190;&#132;" fill-rule="evenodd" clip-rule="evenodd" d="M13.0547 0.67C15.1533 0.67 18.1066 2.36948 17.8963 5.89747C17.7776 7.88886 16.2103 10.0534 12.8383 12.9323L12.1415 13.5152C11.6619 13.9085 11.1523 14.3113 10.6128 14.7237L9.78108 15.3493L9.34834 15.6674C9.34765 15.671 9.34641 15.6702 9.34518 15.6693C9.05357 15.4638 8.77222 15.2579 8.49808 15.0542L7.69729 14.4501C6.52857 13.5541 5.50592 12.704 4.62936 11.8997L4.06663 11.3704C1.8121 9.19286 0.797797 7.44057 0.68476 5.89747C0.4265 2.37189 3.62507 0.67 5.63632 0.67C6.77508 0.67 7.99549 1.3055 9.09757 2.42498L9.34518 2.66519L9.59234 2.42498C10.6798 1.31806 11.916 0.67 13.0547 0.67Z" stroke="var(--stroke-0, white)" style="stroke:white;stroke-opacity:1;" stroke-width="1.34" stroke-linejoin="round"/>
<path id="&#232;&#183;&#175;&#229;&#190;&#132;_2" d="M13.7875 8.6573C13.2937 9.39526 12.5273 10.2069 11.4563 11.1417" stroke="var(--stroke-0, white)" style="stroke:white;stroke-opacity:1;" stroke-width="1.34" stroke-linecap="round" stroke-linejoin="round"/>
</g>
</svg>
